<?xml version="1.0" encoding="utf-8" standalone="no"?>
<!DOCTYPE svg PUBLIC "-//W3C//DTD SVG 1.1//EN"
  "http://www.w3.org/Graphics/SVG/1.1/DTD/svg11.dtd">
<svg xmlns:xlink="http://www.w3.org/1999/xlink" width="288pt" height="288pt" viewBox="0 0 288 288" xmlns="http://www.w3.org/2000/svg" version="1.1">
 <metadata>
  <rdf:RDF xmlns:dc="http://purl.org/dc/elements/1.1/" xmlns:cc="http://creativecommons.org/ns#" xmlns:rdf="http://www.w3.org/1999/02/22-rdf-syntax-ns#">
   <cc:Work>
    <dc:type rdf:resource="http://purl.org/dc/dcmitype/StillImage"/>
    <dc:date>2023-01-24T13:21:42.646303</dc:date>
    <dc:format>image/svg+xml</dc:format>
    <dc:creator>
     <cc:Agent>
      <dc:title>Matplotlib v3.5.0, https://matplotlib.org/</dc:title>
     </cc:Agent>
    </dc:creator>
   </cc:Work>
  </rdf:RDF>
 </metadata>
 <defs>
  <style type="text/css">*{stroke-linejoin: round; stroke-linecap: butt}</style>
 </defs>
 <g id="figure_1">
  <g id="patch_1">
   <path d="M 0 288 
L 288 288 
L 288 0 
L 0 0 
z
" style="fill: #ffffff"/>
  </g>
  <g id="axes_1">
   <g id="patch_2">
    <path d="M 69.92 52.219913 
L 277.2 52.219913 
L 277.2 28.8 
L 69.92 28.8 
z
" style="fill: #ffffff"/>
   </g>
   <g id="patch_3">
    <path d="M 75.017049 52.219913 
L 80.453902 52.219913 
L 80.453902 52.219913 
L 75.017049 52.219913 
z
" clip-path="url(#pc03c9d7dbb)" style="fill: #008000; opacity: 0.7"/>
   </g>
   <g id="patch_4">
    <path d="M 108.997377 52.219913 
L 114.43423 52.219913 
L 114.43423 52.219913 
L 108.997377 52.219913 
z
" clip-path="url(#pc03c9d7dbb)" style="fill: #008000; opacity: 0.7"/>
   </g>
   <g id="patch_5">
    <path d="M 142.977705 52.219913 
L 148.414557 52.219913 
L 148.414557 51.03709 
L 142.977705 51.03709 
z
" clip-path="url(#pc03c9d7dbb)" style="fill: #008000; opacity: 0.7"/>
   </g>
   <g id="patch_6">
    <path d="M 176.958033 52.219913 
L 182.394885 52.219913 
L 182.394885 52.219913 
L 176.958033 52.219913 
z
" clip-path="url(#pc03c9d7dbb)" style="fill: #008000; opacity: 0.7"/>
   </g>
   <g id="patch_7">
    <path d="M 210.938361 52.219913 
L 216.375213 52.219913 
L 216.375213 45.714382 
L 210.938361 45.714382 
z
" clip-path="url(#pc03c9d7dbb)" style="fill: #008000; opacity: 0.7"/>
   </g>
   <g id="patch_8">
    <path d="M 244.918689 52.219913 
L 250.355541 52.219913 
L 250.355541 48.08003 
L 244.918689 48.08003 
z
" clip-path="url(#pc03c9d7dbb)" style="fill: #008000; opacity: 0.7"/>
   </g>
   <g id="patch_9">
    <path d="M 80.453902 52.219913 
L 85.890754 52.219913 
L 85.890754 49.854266 
L 80.453902 49.854266 
z
" clip-path="url(#pc03c9d7dbb)" style="fill: #0000ff; opacity: 0.7"/>
   </g>
   <g id="patch_10">
    <path d="M 114.43423 52.219913 
L 119.871082 52.219913 
L 119.871082 51.628501 
L 114.43423 51.628501 
z
" clip-path="url(#pc03c9d7dbb)" style="fill: #0000ff; opacity: 0.7"/>
   </g>
   <g id="patch_11">
    <path d="M 148.414557 52.219913 
L 153.85141 52.219913 
L 153.85141 36.843203 
L 148.414557 36.843203 
z
" clip-path="url(#pc03c9d7dbb)" style="fill: #0000ff; opacity: 0.7"/>
   </g>
   <g id="patch_12">
    <path d="M 182.394885 52.219913 
L 187.831738 52.219913 
L 187.831738 51.628501 
L 182.394885 51.628501 
z
" clip-path="url(#pc03c9d7dbb)" style="fill: #0000ff; opacity: 0.7"/>
   </g>
   <g id="patch_13">
    <path d="M 216.375213 52.219913 
L 221.812066 52.219913 
L 221.812066 45.714382 
L 216.375213 45.714382 
z
" clip-path="url(#pc03c9d7dbb)" style="fill: #0000ff; opacity: 0.7"/>
   </g>
   <g id="patch_14">
    <path d="M 250.355541 52.219913 
L 255.792393 52.219913 
L 255.792393 38.617438 
L 250.355541 38.617438 
z
" clip-path="url(#pc03c9d7dbb)" style="fill: #0000ff; opacity: 0.7"/>
   </g>
   <g id="patch_15">
    <path d="M 85.890754 52.219913 
L 91.327607 52.219913 
L 91.327607 45.12297 
L 85.890754 45.12297 
z
" clip-path="url(#pc03c9d7dbb)" style="fill: #ff0000; opacity: 0.7"/>
   </g>
   <g id="patch_16">
    <path d="M 119.871082 52.219913 
L 125.307934 52.219913 
L 125.307934 46.305794 
L 119.871082 46.305794 
z
" clip-path="url(#pc03c9d7dbb)" style="fill: #ff0000; opacity: 0.7"/>
   </g>
   <g id="patch_17">
    <path d="M 153.85141 52.219913 
L 159.288262 52.219913 
L 159.288262 47.488618 
L 153.85141 47.488618 
z
" clip-path="url(#pc03c9d7dbb)" style="fill: #ff0000; opacity: 0.7"/>
   </g>
   <g id="patch_18">
    <path d="M 187.831738 52.219913 
L 193.26859 52.219913 
L 193.26859 52.219913 
L 187.831738 52.219913 
z
" clip-path="url(#pc03c9d7dbb)" style="fill: #ff0000; opacity: 0.7"/>
   </g>
   <g id="patch_19">
    <path d="M 221.812066 52.219913 
L 227.248918 52.219913 
L 227.248918 52.219913 
L 221.812066 52.219913 
z
" clip-path="url(#pc03c9d7dbb)" style="fill: #ff0000; opacity: 0.7"/>
   </g>
   <g id="patch_20">
    <path d="M 255.792393 52.219913 
L 261.229246 52.219913 
L 261.229246 52.219913 
L 255.792393 52.219913 
z
" clip-path="url(#pc03c9d7dbb)" style="fill: #ff0000; opacity: 0.7"/>
   </g>
   <g id="patch_21">
    <path d="M 91.327607 52.219913 
L 96.764459 52.219913 
L 96.764459 40.391674 
L 91.327607 40.391674 
z
" clip-path="url(#pc03c9d7dbb)" style="fill: #ffa500; opacity: 0.7"/>
   </g>
   <g id="patch_22">
    <path d="M 125.307934 52.219913 
L 130.744787 52.219913 
L 130.744787 46.897206 
L 125.307934 46.897206 
z
" clip-path="url(#pc03c9d7dbb)" style="fill: #ffa500; opacity: 0.7"/>
   </g>
   <g id="patch_23">
    <path d="M 159.288262 52.219913 
L 164.725115 52.219913 
L 164.725115 52.219913 
L 159.288262 52.219913 
z
" clip-path="url(#pc03c9d7dbb)" style="fill: #ffa500; opacity: 0.7"/>
   </g>
   <g id="patch_24">
    <path d="M 193.26859 52.219913 
L 198.705443 52.219913 
L 198.705443 51.628501 
L 193.26859 51.628501 
z
" clip-path="url(#pc03c9d7dbb)" style="fill: #ffa500; opacity: 0.7"/>
   </g>
   <g id="patch_25">
    <path d="M 227.248918 52.219913 
L 232.68577 52.219913 
L 232.68577 52.219913 
L 227.248918 52.219913 
z
" clip-path="url(#pc03c9d7dbb)" style="fill: #ffa500; opacity: 0.7"/>
   </g>
   <g id="patch_26">
    <path d="M 261.229246 52.219913 
L 266.666098 52.219913 
L 266.666098 52.219913 
L 261.229246 52.219913 
z
" clip-path="url(#pc03c9d7dbb)" style="fill: #ffa500; opacity: 0.7"/>
   </g>
   <g id="patch_27">
    <path d="M 96.764459 52.219913 
L 102.201311 52.219913 
L 102.201311 52.219913 
L 96.764459 52.219913 
z
" clip-path="url(#pc03c9d7dbb)" style="fill: #808080; opacity: 0.7"/>
   </g>
   <g id="patch_28">
    <path d="M 130.744787 52.219913 
L 136.181639 52.219913 
L 136.181639 42.757322 
L 130.744787 42.757322 
z
" clip-path="url(#pc03c9d7dbb)" style="fill: #808080; opacity: 0.7"/>
   </g>
   <g id="patch_29">
    <path d="M 164.725115 52.219913 
L 170.161967 52.219913 
L 170.161967 52.219913 
L 164.725115 52.219913 
z
" clip-path="url(#pc03c9d7dbb)" style="fill: #808080; opacity: 0.7"/>
   </g>
   <g id="patch_30">
    <path d="M 198.705443 52.219913 
L 204.142295 52.219913 
L 204.142295 32.111907 
L 198.705443 32.111907 
z
" clip-path="url(#pc03c9d7dbb)" style="fill: #808080; opacity: 0.7"/>
   </g>
   <g id="patch_31">
    <path d="M 232.68577 52.219913 
L 238.122623 52.219913 
L 238.122623 43.940146 
L 232.68577 43.940146 
z
" clip-path="url(#pc03c9d7dbb)" style="fill: #808080; opacity: 0.7"/>
   </g>
   <g id="patch_32">
    <path d="M 266.666098 52.219913 
L 272.102951 52.219913 
L 272.102951 48.671442 
L 266.666098 48.671442 
z
" clip-path="url(#pc03c9d7dbb)" style="fill: #808080; opacity: 0.7"/>
   </g>
   <g id="matplotlib.axis_1">
    <g id="xtick_1">
     <g id="line2d_1">
      <defs>
       <path id="m2961e01301" d="M 0 0 
L 0 -3.5 
" style="stroke: #000000; stroke-width: 0.8"/>
      </defs>
      <g>
       <use xlink:href="#m2961e01301" x="88.60918" y="28.8" style="stroke: #000000; stroke-width: 0.8"/>
      </g>
     </g>
     <g id="text_1">
      <g id="patch_33">
       <path d="M 75.68918 25.8 
L 101.52918 25.8 
L 101.52918 10.0575 
L 75.68918 10.0575 
z
" style="fill: #6495ed; stroke: #6495ed; stroke-linejoin: miter"/>
      </g>
      <!-- 11$\cdot$1 -->
      <g transform="translate(79.68918 20.13625)scale(0.08 -0.08)">
       <defs>
        <path id="DejaVuSans-31" d="M 794 531 
L 1825 531 
L 1825 4091 
L 703 3866 
L 703 4441 
L 1819 4666 
L 2450 4666 
L 2450 531 
L 3481 531 
L 3481 0 
L 794 0 
L 794 531 
z
" transform="scale(0.015625)"/>
        <path id="DejaVuSans-22c5" d="M 684 2619 
L 1344 2619 
L 1344 1825 
L 684 1825 
L 684 2619 
z
" transform="scale(0.015625)"/>
       </defs>
       <use xlink:href="#DejaVuSans-31" transform="translate(0 0.09375)"/>
       <use xlink:href="#DejaVuSans-31" transform="translate(63.623047 0.09375)"/>
       <use xlink:href="#DejaVuSans-22c5" transform="translate(127.246094 0.09375)"/>
       <use xlink:href="#DejaVuSans-31" transform="translate(159.033203 0.09375)"/>
      </g>
     </g>
    </g>
    <g id="xtick_2">
     <g id="line2d_2">
      <g>
       <use xlink:href="#m2961e01301" x="122.589508" y="28.8" style="stroke: #000000; stroke-width: 0.8"/>
      </g>
     </g>
     <g id="text_2">
      <g id="patch_34">
       <path d="M 109.669508 25.8 
L 135.509508 25.8 
L 135.509508 10.0575 
L 109.669508 10.0575 
z
" style="fill: #00ff00; stroke: #00ff00; stroke-linejoin: miter"/>
      </g>
      <!-- 10$\cdot$2 -->
      <g transform="translate(113.669508 20.13625)scale(0.08 -0.08)">
       <defs>
        <path id="DejaVuSans-30" d="M 2034 4250 
Q 1547 4250 1301 3770 
Q 1056 3291 1056 2328 
Q 1056 1369 1301 889 
Q 1547 409 2034 409 
Q 2525 409 2770 889 
Q 3016 1369 3016 2328 
Q 3016 3291 2770 3770 
Q 2525 4250 2034 4250 
z
M 2034 4750 
Q 2819 4750 3233 4129 
Q 3647 3509 3647 2328 
Q 3647 1150 3233 529 
Q 2819 -91 2034 -91 
Q 1250 -91 836 529 
Q 422 1150 422 2328 
Q 422 3509 836 4129 
Q 1250 4750 2034 4750 
z
" transform="scale(0.015625)"/>
        <path id="DejaVuSans-32" d="M 1228 531 
L 3431 531 
L 3431 0 
L 469 0 
L 469 531 
Q 828 903 1448 1529 
Q 2069 2156 2228 2338 
Q 2531 2678 2651 2914 
Q 2772 3150 2772 3378 
Q 2772 3750 2511 3984 
Q 2250 4219 1831 4219 
Q 1534 4219 1204 4116 
Q 875 4013 500 3803 
L 500 4441 
Q 881 4594 1212 4672 
Q 1544 4750 1819 4750 
Q 2544 4750 2975 4387 
Q 3406 4025 3406 3419 
Q 3406 3131 3298 2873 
Q 3191 2616 2906 2266 
Q 2828 2175 2409 1742 
Q 1991 1309 1228 531 
z
" transform="scale(0.015625)"/>
       </defs>
       <use xlink:href="#DejaVuSans-31" transform="translate(0 0.78125)"/>
       <use xlink:href="#DejaVuSans-30" transform="translate(63.623047 0.78125)"/>
       <use xlink:href="#DejaVuSans-22c5" transform="translate(127.246094 0.78125)"/>
       <use xlink:href="#DejaVuSans-32" transform="translate(159.033203 0.78125)"/>
      </g>
     </g>
    </g>
    <g id="xtick_3">
     <g id="line2d_3">
      <g>
       <use xlink:href="#m2961e01301" x="156.569836" y="28.8" style="stroke: #000000; stroke-width: 0.8"/>
      </g>
     </g>
     <g id="text_3">
      <g id="patch_35">
       <path d="M 150.024836 25.8 
L 163.114836 25.8 
L 163.114836 10.0575 
L 150.024836 10.0575 
z
" style="fill: #808080; stroke: #808080; stroke-linejoin: miter"/>
      </g>
      <!-- 9 -->
      <g transform="translate(154.024836 20.13625)scale(0.08 -0.08)">
       <defs>
        <path id="DejaVuSans-39" d="M 703 97 
L 703 672 
Q 941 559 1184 500 
Q 1428 441 1663 441 
Q 2288 441 2617 861 
Q 2947 1281 2994 2138 
Q 2813 1869 2534 1725 
Q 2256 1581 1919 1581 
Q 1219 1581 811 2004 
Q 403 2428 403 3163 
Q 403 3881 828 4315 
Q 1253 4750 1959 4750 
Q 2769 4750 3195 4129 
Q 3622 3509 3622 2328 
Q 3622 1225 3098 567 
Q 2575 -91 1691 -91 
Q 1453 -91 1209 -44 
Q 966 3 703 97 
z
M 1959 2075 
Q 2384 2075 2632 2365 
Q 2881 2656 2881 3163 
Q 2881 3666 2632 3958 
Q 2384 4250 1959 4250 
Q 1534 4250 1286 3958 
Q 1038 3666 1038 3163 
Q 1038 2656 1286 2365 
Q 1534 2075 1959 2075 
z
" transform="scale(0.015625)"/>
       </defs>
       <use xlink:href="#DejaVuSans-39"/>
      </g>
     </g>
    </g>
    <g id="xtick_4">
     <g id="line2d_4">
      <g>
       <use xlink:href="#m2961e01301" x="190.550164" y="28.8" style="stroke: #000000; stroke-width: 0.8"/>
      </g>
     </g>
     <g id="text_4">
      <g id="patch_36">
       <path d="M 180.150164 25.8 
L 200.950164 25.8 
L 200.950164 10.0575 
L 180.150164 10.0575 
z
" style="fill: #ffa500; stroke: #ffa500; stroke-linejoin: miter"/>
      </g>
      <!-- 8$\cdot$3 -->
      <g transform="translate(184.150164 20.13625)scale(0.08 -0.08)">
       <defs>
        <path id="DejaVuSans-38" d="M 2034 2216 
Q 1584 2216 1326 1975 
Q 1069 1734 1069 1313 
Q 1069 891 1326 650 
Q 1584 409 2034 409 
Q 2484 409 2743 651 
Q 3003 894 3003 1313 
Q 3003 1734 2745 1975 
Q 2488 2216 2034 2216 
z
M 1403 2484 
Q 997 2584 770 2862 
Q 544 3141 544 3541 
Q 544 4100 942 4425 
Q 1341 4750 2034 4750 
Q 2731 4750 3128 4425 
Q 3525 4100 3525 3541 
Q 3525 3141 3298 2862 
Q 3072 2584 2669 2484 
Q 3125 2378 3379 2068 
Q 3634 1759 3634 1313 
Q 3634 634 3220 271 
Q 2806 -91 2034 -91 
Q 1263 -91 848 271 
Q 434 634 434 1313 
Q 434 1759 690 2068 
Q 947 2378 1403 2484 
z
M 1172 3481 
Q 1172 3119 1398 2916 
Q 1625 2713 2034 2713 
Q 2441 2713 2670 2916 
Q 2900 3119 2900 3481 
Q 2900 3844 2670 4047 
Q 2441 4250 2034 4250 
Q 1625 4250 1398 4047 
Q 1172 3844 1172 3481 
z
" transform="scale(0.015625)"/>
        <path id="DejaVuSans-33" d="M 2597 2516 
Q 3050 2419 3304 2112 
Q 3559 1806 3559 1356 
Q 3559 666 3084 287 
Q 2609 -91 1734 -91 
Q 1441 -91 1130 -33 
Q 819 25 488 141 
L 488 750 
Q 750 597 1062 519 
Q 1375 441 1716 441 
Q 2309 441 2620 675 
Q 2931 909 2931 1356 
Q 2931 1769 2642 2001 
Q 2353 2234 1838 2234 
L 1294 2234 
L 1294 2753 
L 1863 2753 
Q 2328 2753 2575 2939 
Q 2822 3125 2822 3475 
Q 2822 3834 2567 4026 
Q 2313 4219 1838 4219 
Q 1578 4219 1281 4162 
Q 984 4106 628 3988 
L 628 4550 
Q 988 4650 1302 4700 
Q 1616 4750 1894 4750 
Q 2613 4750 3031 4423 
Q 3450 4097 3450 3541 
Q 3450 3153 3228 2886 
Q 3006 2619 2597 2516 
z
" transform="scale(0.015625)"/>
       </defs>
       <use xlink:href="#DejaVuSans-38" transform="translate(0 0.78125)"/>
       <use xlink:href="#DejaVuSans-22c5" transform="translate(63.623047 0.78125)"/>
       <use xlink:href="#DejaVuSans-33" transform="translate(95.410156 0.78125)"/>
      </g>
     </g>
    </g>
    <g id="xtick_5">
     <g id="line2d_5">
      <g>
       <use xlink:href="#m2961e01301" x="224.530492" y="28.8" style="stroke: #000000; stroke-width: 0.8"/>
      </g>
     </g>
     <g id="text_5">
      <g id="patch_37">
       <path d="M 214.130492 25.8 
L 234.930492 25.8 
L 234.930492 10.0575 
L 214.130492 10.0575 
z
" style="fill: #ff0000; stroke: #ff0000; stroke-linejoin: miter"/>
      </g>
      <!-- 4$\cdot$5 -->
      <g transform="translate(218.130492 20.13625)scale(0.08 -0.08)">
       <defs>
        <path id="DejaVuSans-34" d="M 2419 4116 
L 825 1625 
L 2419 1625 
L 2419 4116 
z
M 2253 4666 
L 3047 4666 
L 3047 1625 
L 3713 1625 
L 3713 1100 
L 3047 1100 
L 3047 0 
L 2419 0 
L 2419 1100 
L 313 1100 
L 313 1709 
L 2253 4666 
z
" transform="scale(0.015625)"/>
        <path id="DejaVuSans-35" d="M 691 4666 
L 3169 4666 
L 3169 4134 
L 1269 4134 
L 1269 2991 
Q 1406 3038 1543 3061 
Q 1681 3084 1819 3084 
Q 2600 3084 3056 2656 
Q 3513 2228 3513 1497 
Q 3513 744 3044 326 
Q 2575 -91 1722 -91 
Q 1428 -91 1123 -41 
Q 819 9 494 109 
L 494 744 
Q 775 591 1075 516 
Q 1375 441 1709 441 
Q 2250 441 2565 725 
Q 2881 1009 2881 1497 
Q 2881 1984 2565 2268 
Q 2250 2553 1709 2553 
Q 1456 2553 1204 2497 
Q 953 2441 691 2322 
L 691 4666 
z
" transform="scale(0.015625)"/>
       </defs>
       <use xlink:href="#DejaVuSans-34" transform="translate(0 0.09375)"/>
       <use xlink:href="#DejaVuSans-22c5" transform="translate(63.623047 0.09375)"/>
       <use xlink:href="#DejaVuSans-35" transform="translate(95.410156 0.09375)"/>
      </g>
     </g>
    </g>
    <g id="xtick_6">
     <g id="line2d_6">
      <g>
       <use xlink:href="#m2961e01301" x="258.51082" y="28.8" style="stroke: #000000; stroke-width: 0.8"/>
      </g>
     </g>
     <g id="text_6">
      <g id="patch_38">
       <path d="M 248.11082 25.8 
L 268.91082 25.8 
L 268.91082 10.0575 
L 248.11082 10.0575 
z
" style="fill: #da70d6; stroke: #da70d6; stroke-linejoin: miter"/>
      </g>
      <!-- 7$\cdot$6 -->
      <g transform="translate(252.11082 20.13625)scale(0.08 -0.08)">
       <defs>
        <path id="DejaVuSans-37" d="M 525 4666 
L 3525 4666 
L 3525 4397 
L 1831 0 
L 1172 0 
L 2766 4134 
L 525 4134 
L 525 4666 
z
" transform="scale(0.015625)"/>
        <path id="DejaVuSans-36" d="M 2113 2584 
Q 1688 2584 1439 2293 
Q 1191 2003 1191 1497 
Q 1191 994 1439 701 
Q 1688 409 2113 409 
Q 2538 409 2786 701 
Q 3034 994 3034 1497 
Q 3034 2003 2786 2293 
Q 2538 2584 2113 2584 
z
M 3366 4563 
L 3366 3988 
Q 3128 4100 2886 4159 
Q 2644 4219 2406 4219 
Q 1781 4219 1451 3797 
Q 1122 3375 1075 2522 
Q 1259 2794 1537 2939 
Q 1816 3084 2150 3084 
Q 2853 3084 3261 2657 
Q 3669 2231 3669 1497 
Q 3669 778 3244 343 
Q 2819 -91 2113 -91 
Q 1303 -91 875 529 
Q 447 1150 447 2328 
Q 447 3434 972 4092 
Q 1497 4750 2381 4750 
Q 2619 4750 2861 4703 
Q 3103 4656 3366 4563 
z
" transform="scale(0.015625)"/>
       </defs>
       <use xlink:href="#DejaVuSans-37" transform="translate(0 0.78125)"/>
       <use xlink:href="#DejaVuSans-22c5" transform="translate(63.623047 0.78125)"/>
       <use xlink:href="#DejaVuSans-36" transform="translate(95.410156 0.78125)"/>
      </g>
     </g>
    </g>
   </g>
   <g id="matplotlib.axis_2">
    <g id="ytick_1">
     <g id="line2d_7">
      <defs>
       <path id="m5bf5047f36" d="M 0 0 
L -3.5 0 
" style="stroke: #000000; stroke-width: 0.8"/>
      </defs>
      <g>
       <use xlink:href="#m5bf5047f36" x="69.92" y="52.219913" style="stroke: #000000; stroke-width: 0.8"/>
      </g>
     </g>
     <g id="text_7">
      <!-- 0 -->
      <g transform="translate(56.5575 56.019132)scale(0.1 -0.1)">
       <use xlink:href="#DejaVuSans-30"/>
      </g>
     </g>
    </g>
    <g id="ytick_2">
     <g id="line2d_8">
      <g>
       <use xlink:href="#m5bf5047f36" x="69.92" y="30.929083" style="stroke: #000000; stroke-width: 0.8"/>
      </g>
     </g>
     <g id="text_8">
      <!-- 1 -->
      <g transform="translate(56.5575 34.728302)scale(0.1 -0.1)">
       <use xlink:href="#DejaVuSans-31"/>
      </g>
     </g>
    </g>
    <g id="text_9">
     <g id="patch_39">
      <path d="M 53.192 53.429957 
L 53.192 27.589957 
L 37.4495 27.589957 
L 37.4495 53.429957 
z
" style="fill: #6495ed; stroke: #6495ed; stroke-linejoin: miter"/>
     </g>
     <!-- 11$\cdot$1 -->
     <g transform="translate(47.52825 49.429957)rotate(-90)scale(0.08 -0.08)">
      <use xlink:href="#DejaVuSans-31" transform="translate(0 0.09375)"/>
      <use xlink:href="#DejaVuSans-31" transform="translate(63.623047 0.09375)"/>
      <use xlink:href="#DejaVuSans-22c5" transform="translate(127.246094 0.09375)"/>
      <use xlink:href="#DejaVuSans-31" transform="translate(159.033203 0.09375)"/>
     </g>
    </g>
   </g>
   <g id="LineCollection_1">
    <path d="M 105.599344 52.219913 
L 105.599344 28.8 
" clip-path="url(#pc03c9d7dbb)" style="fill: none; stroke-dasharray: 5.55,2.4; stroke-dashoffset: 0; stroke: #000000; stroke-width: 1.5"/>
    <path d="M 139.579672 52.219913 
L 139.579672 28.8 
" clip-path="url(#pc03c9d7dbb)" style="fill: none; stroke-dasharray: 5.55,2.4; stroke-dashoffset: 0; stroke: #000000; stroke-width: 1.5"/>
    <path d="M 173.56 52.219913 
L 173.56 28.8 
" clip-path="url(#pc03c9d7dbb)" style="fill: none; stroke-dasharray: 5.55,2.4; stroke-dashoffset: 0; stroke: #000000; stroke-width: 1.5"/>
    <path d="M 207.540328 52.219913 
L 207.540328 28.8 
" clip-path="url(#pc03c9d7dbb)" style="fill: none; stroke-dasharray: 5.55,2.4; stroke-dashoffset: 0; stroke: #000000; stroke-width: 1.5"/>
    <path d="M 241.520656 52.219913 
L 241.520656 28.8 
" clip-path="url(#pc03c9d7dbb)" style="fill: none; stroke-dasharray: 5.55,2.4; stroke-dashoffset: 0; stroke: #000000; stroke-width: 1.5"/>
   </g>
   <g id="patch_40">
    <path d="M 69.92 52.219913 
L 69.92 28.8 
" style="fill: none; stroke: #000000; stroke-width: 0.8; stroke-linejoin: miter; stroke-linecap: square"/>
   </g>
   <g id="patch_41">
    <path d="M 277.2 52.219913 
L 277.2 28.8 
" style="fill: none; stroke: #000000; stroke-width: 0.8; stroke-linejoin: miter; stroke-linecap: square"/>
   </g>
   <g id="patch_42">
    <path d="M 69.92 52.219913 
L 277.2 52.219913 
" style="fill: none; stroke: #000000; stroke-width: 0.8; stroke-linejoin: miter; stroke-linecap: square"/>
   </g>
   <g id="patch_43">
    <path d="M 69.92 28.8 
L 277.2 28.8 
" style="fill: none; stroke: #000000; stroke-width: 0.8; stroke-linejoin: miter; stroke-linecap: square"/>
   </g>
   <g id="patch_44">
    <path d="M 71.619016 52.219913 
L 105.599344 52.219913 
L 105.599344 30.07745 
L 71.619016 30.07745 
L 71.619016 52.219913 
z
" clip-path="url(#pc03c9d7dbb)" style="fill: none; stroke: #000000; stroke-width: 2; stroke-linejoin: miter"/>
   </g>
  </g>
  <g id="axes_2">
   <g id="patch_45">
    <path d="M 69.92 93.615931 
L 277.2 93.615931 
L 277.2 70.196017 
L 69.92 70.196017 
z
" style="fill: #ffffff"/>
   </g>
   <g id="patch_46">
    <path d="M 75.017049 93.615931 
L 80.453902 93.615931 
L 80.453902 93.615931 
L 75.017049 93.615931 
z
" clip-path="url(#pc37c40ba36)" style="fill: #008000; opacity: 0.7"/>
   </g>
   <g id="patch_47">
    <path d="M 108.997377 93.615931 
L 114.43423 93.615931 
L 114.43423 93.615931 
L 108.997377 93.615931 
z
" clip-path="url(#pc37c40ba36)" style="fill: #008000; opacity: 0.7"/>
   </g>
   <g id="patch_48">
    <path d="M 142.977705 93.615931 
L 148.414557 93.615931 
L 148.414557 93.615931 
L 142.977705 93.615931 
z
" clip-path="url(#pc37c40ba36)" style="fill: #008000; opacity: 0.7"/>
   </g>
   <g id="patch_49">
    <path d="M 176.958033 93.615931 
L 182.394885 93.615931 
L 182.394885 93.615931 
L 176.958033 93.615931 
z
" clip-path="url(#pc37c40ba36)" style="fill: #008000; opacity: 0.7"/>
   </g>
   <g id="patch_50">
    <path d="M 210.938361 93.615931 
L 216.375213 93.615931 
L 216.375213 93.615931 
L 210.938361 93.615931 
z
" clip-path="url(#pc37c40ba36)" style="fill: #008000; opacity: 0.7"/>
   </g>
   <g id="patch_51">
    <path d="M 244.918689 93.615931 
L 250.355541 93.615931 
L 250.355541 93.024519 
L 244.918689 93.024519 
z
" clip-path="url(#pc37c40ba36)" style="fill: #008000; opacity: 0.7"/>
   </g>
   <g id="patch_52">
    <path d="M 80.453902 93.615931 
L 85.890754 93.615931 
L 85.890754 93.024519 
L 80.453902 93.024519 
z
" clip-path="url(#pc37c40ba36)" style="fill: #0000ff; opacity: 0.7"/>
   </g>
   <g id="patch_53">
    <path d="M 114.43423 93.615931 
L 119.871082 93.615931 
L 119.871082 93.615931 
L 114.43423 93.615931 
z
" clip-path="url(#pc37c40ba36)" style="fill: #0000ff; opacity: 0.7"/>
   </g>
   <g id="patch_54">
    <path d="M 148.414557 93.615931 
L 153.85141 93.615931 
L 153.85141 91.250283 
L 148.414557 91.250283 
z
" clip-path="url(#pc37c40ba36)" style="fill: #0000ff; opacity: 0.7"/>
   </g>
   <g id="patch_55">
    <path d="M 182.394885 93.615931 
L 187.831738 93.615931 
L 187.831738 93.615931 
L 182.394885 93.615931 
z
" clip-path="url(#pc37c40ba36)" style="fill: #0000ff; opacity: 0.7"/>
   </g>
   <g id="patch_56">
    <path d="M 216.375213 93.615931 
L 221.812066 93.615931 
L 221.812066 91.841695 
L 216.375213 91.841695 
z
" clip-path="url(#pc37c40ba36)" style="fill: #0000ff; opacity: 0.7"/>
   </g>
   <g id="patch_57">
    <path d="M 250.355541 93.615931 
L 255.792393 93.615931 
L 255.792393 92.433107 
L 250.355541 92.433107 
z
" clip-path="url(#pc37c40ba36)" style="fill: #0000ff; opacity: 0.7"/>
   </g>
   <g id="patch_58">
    <path d="M 85.890754 93.615931 
L 91.327607 93.615931 
L 91.327607 87.701811 
L 85.890754 87.701811 
z
" clip-path="url(#pc37c40ba36)" style="fill: #ff0000; opacity: 0.7"/>
   </g>
   <g id="patch_59">
    <path d="M 119.871082 93.615931 
L 125.307934 93.615931 
L 125.307934 93.615931 
L 119.871082 93.615931 
z
" clip-path="url(#pc37c40ba36)" style="fill: #ff0000; opacity: 0.7"/>
   </g>
   <g id="patch_60">
    <path d="M 153.85141 93.615931 
L 159.288262 93.615931 
L 159.288262 88.884635 
L 153.85141 88.884635 
z
" clip-path="url(#pc37c40ba36)" style="fill: #ff0000; opacity: 0.7"/>
   </g>
   <g id="patch_61">
    <path d="M 187.831738 93.615931 
L 193.26859 93.615931 
L 193.26859 93.615931 
L 187.831738 93.615931 
z
" clip-path="url(#pc37c40ba36)" style="fill: #ff0000; opacity: 0.7"/>
   </g>
   <g id="patch_62">
    <path d="M 221.812066 93.615931 
L 227.248918 93.615931 
L 227.248918 93.024519 
L 221.812066 93.024519 
z
" clip-path="url(#pc37c40ba36)" style="fill: #ff0000; opacity: 0.7"/>
   </g>
   <g id="patch_63">
    <path d="M 255.792393 93.615931 
L 261.229246 93.615931 
L 261.229246 91.841695 
L 255.792393 91.841695 
z
" clip-path="url(#pc37c40ba36)" style="fill: #ff0000; opacity: 0.7"/>
   </g>
   <g id="patch_64">
    <path d="M 91.327607 93.615931 
L 96.764459 93.615931 
L 96.764459 88.293223 
L 91.327607 88.293223 
z
" clip-path="url(#pc37c40ba36)" style="fill: #ffa500; opacity: 0.7"/>
   </g>
   <g id="patch_65">
    <path d="M 125.307934 93.615931 
L 130.744787 93.615931 
L 130.744787 81.787692 
L 125.307934 81.787692 
z
" clip-path="url(#pc37c40ba36)" style="fill: #ffa500; opacity: 0.7"/>
   </g>
   <g id="patch_66">
    <path d="M 159.288262 93.615931 
L 164.725115 93.615931 
L 164.725115 91.250283 
L 159.288262 91.250283 
z
" clip-path="url(#pc37c40ba36)" style="fill: #ffa500; opacity: 0.7"/>
   </g>
   <g id="patch_67">
    <path d="M 193.26859 93.615931 
L 198.705443 93.615931 
L 198.705443 93.615931 
L 193.26859 93.615931 
z
" clip-path="url(#pc37c40ba36)" style="fill: #ffa500; opacity: 0.7"/>
   </g>
   <g id="patch_68">
    <path d="M 227.248918 93.615931 
L 232.68577 93.615931 
L 232.68577 93.615931 
L 227.248918 93.615931 
z
" clip-path="url(#pc37c40ba36)" style="fill: #ffa500; opacity: 0.7"/>
   </g>
   <g id="patch_69">
    <path d="M 261.229246 93.615931 
L 266.666098 93.615931 
L 266.666098 90.067459 
L 261.229246 90.067459 
z
" clip-path="url(#pc37c40ba36)" style="fill: #ffa500; opacity: 0.7"/>
   </g>
   <g id="patch_70">
    <path d="M 96.764459 93.615931 
L 102.201311 93.615931 
L 102.201311 84.153339 
L 96.764459 84.153339 
z
" clip-path="url(#pc37c40ba36)" style="fill: #808080; opacity: 0.7"/>
   </g>
   <g id="patch_71">
    <path d="M 130.744787 93.615931 
L 136.181639 93.615931 
L 136.181639 84.153339 
L 130.744787 84.153339 
z
" clip-path="url(#pc37c40ba36)" style="fill: #808080; opacity: 0.7"/>
   </g>
   <g id="patch_72">
    <path d="M 164.725115 93.615931 
L 170.161967 93.615931 
L 170.161967 81.787692 
L 164.725115 81.787692 
z
" clip-path="url(#pc37c40ba36)" style="fill: #808080; opacity: 0.7"/>
   </g>
   <g id="patch_73">
    <path d="M 198.705443 93.615931 
L 204.142295 93.615931 
L 204.142295 72.3251 
L 198.705443 72.3251 
z
" clip-path="url(#pc37c40ba36)" style="fill: #808080; opacity: 0.7"/>
   </g>
   <g id="patch_74">
    <path d="M 232.68577 93.615931 
L 238.122623 93.615931 
L 238.122623 74.690748 
L 232.68577 74.690748 
z
" clip-path="url(#pc37c40ba36)" style="fill: #808080; opacity: 0.7"/>
   </g>
   <g id="patch_75">
    <path d="M 266.666098 93.615931 
L 272.102951 93.615931 
L 272.102951 79.422044 
L 266.666098 79.422044 
z
" clip-path="url(#pc37c40ba36)" style="fill: #808080; opacity: 0.7"/>
   </g>
   <g id="matplotlib.axis_3">
    <g id="xtick_7"/>
    <g id="xtick_8"/>
    <g id="xtick_9"/>
    <g id="xtick_10"/>
    <g id="xtick_11"/>
    <g id="xtick_12"/>
   </g>
   <g id="matplotlib.axis_4">
    <g id="ytick_3">
     <g id="line2d_9">
      <g>
       <use xlink:href="#m5bf5047f36" x="69.92" y="93.615931" style="stroke: #000000; stroke-width: 0.8"/>
      </g>
     </g>
     <g id="text_10">
      <!-- 0 -->
      <g transform="translate(56.5575 97.415149)scale(0.1 -0.1)">
       <use xlink:href="#DejaVuSans-30"/>
      </g>
     </g>
    </g>
    <g id="ytick_4">
     <g id="line2d_10">
      <g>
       <use xlink:href="#m5bf5047f36" x="69.92" y="72.3251" style="stroke: #000000; stroke-width: 0.8"/>
      </g>
     </g>
     <g id="text_11">
      <!-- 1 -->
      <g transform="translate(56.5575 76.124319)scale(0.1 -0.1)">
       <use xlink:href="#DejaVuSans-31"/>
      </g>
     </g>
    </g>
    <g id="text_12">
     <g id="patch_76">
      <path d="M 53.192 94.825974 
L 53.192 68.985974 
L 37.4495 68.985974 
L 37.4495 94.825974 
z
" style="fill: #00ff00; stroke: #00ff00; stroke-linejoin: miter"/>
     </g>
     <!-- 10$\cdot$2 -->
     <g transform="translate(47.52825 90.825974)rotate(-90)scale(0.08 -0.08)">
      <use xlink:href="#DejaVuSans-31" transform="translate(0 0.78125)"/>
      <use xlink:href="#DejaVuSans-30" transform="translate(63.623047 0.78125)"/>
      <use xlink:href="#DejaVuSans-22c5" transform="translate(127.246094 0.78125)"/>
      <use xlink:href="#DejaVuSans-32" transform="translate(159.033203 0.78125)"/>
     </g>
    </g>
   </g>
   <g id="LineCollection_2">
    <path d="M 105.599344 93.615931 
L 105.599344 70.196017 
" clip-path="url(#pc37c40ba36)" style="fill: none; stroke-dasharray: 5.55,2.4; stroke-dashoffset: 0; stroke: #000000; stroke-width: 1.5"/>
    <path d="M 139.579672 93.615931 
L 139.579672 70.196017 
" clip-path="url(#pc37c40ba36)" style="fill: none; stroke-dasharray: 5.55,2.4; stroke-dashoffset: 0; stroke: #000000; stroke-width: 1.5"/>
    <path d="M 173.56 93.615931 
L 173.56 70.196017 
" clip-path="url(#pc37c40ba36)" style="fill: none; stroke-dasharray: 5.55,2.4; stroke-dashoffset: 0; stroke: #000000; stroke-width: 1.5"/>
    <path d="M 207.540328 93.615931 
L 207.540328 70.196017 
" clip-path="url(#pc37c40ba36)" style="fill: none; stroke-dasharray: 5.55,2.4; stroke-dashoffset: 0; stroke: #000000; stroke-width: 1.5"/>
    <path d="M 241.520656 93.615931 
L 241.520656 70.196017 
" clip-path="url(#pc37c40ba36)" style="fill: none; stroke-dasharray: 5.55,2.4; stroke-dashoffset: 0; stroke: #000000; stroke-width: 1.5"/>
   </g>
   <g id="patch_77">
    <path d="M 69.92 93.615931 
L 69.92 70.196017 
" style="fill: none; stroke: #000000; stroke-width: 0.8; stroke-linejoin: miter; stroke-linecap: square"/>
   </g>
   <g id="patch_78">
    <path d="M 277.2 93.615931 
L 277.2 70.196017 
" style="fill: none; stroke: #000000; stroke-width: 0.8; stroke-linejoin: miter; stroke-linecap: square"/>
   </g>
   <g id="patch_79">
    <path d="M 69.92 93.615931 
L 277.2 93.615931 
" style="fill: none; stroke: #000000; stroke-width: 0.8; stroke-linejoin: miter; stroke-linecap: square"/>
   </g>
   <g id="patch_80">
    <path d="M 69.92 70.196017 
L 277.2 70.196017 
" style="fill: none; stroke: #000000; stroke-width: 0.8; stroke-linejoin: miter; stroke-linecap: square"/>
   </g>
   <g id="patch_81">
    <path d="M 105.599344 93.615931 
L 139.579672 93.615931 
L 139.579672 71.473467 
L 105.599344 71.473467 
L 105.599344 93.615931 
z
" clip-path="url(#pc37c40ba36)" style="fill: none; stroke: #000000; stroke-width: 2; stroke-linejoin: miter"/>
   </g>
  </g>
  <g id="axes_3">
   <g id="patch_82">
    <path d="M 69.92 135.011948 
L 277.2 135.011948 
L 277.2 111.592035 
L 69.92 111.592035 
z
" style="fill: #ffffff"/>
   </g>
   <g id="patch_83">
    <path d="M 75.017049 135.011948 
L 80.453902 135.011948 
L 80.453902 133.829124 
L 75.017049 133.829124 
z
" clip-path="url(#p2b82797f04)" style="fill: #008000; opacity: 0.7"/>
   </g>
   <g id="patch_84">
    <path d="M 108.997377 135.011948 
L 114.43423 135.011948 
L 114.43423 135.011948 
L 108.997377 135.011948 
z
" clip-path="url(#p2b82797f04)" style="fill: #008000; opacity: 0.7"/>
   </g>
   <g id="patch_85">
    <path d="M 142.977705 135.011948 
L 148.414557 135.011948 
L 148.414557 135.011948 
L 142.977705 135.011948 
z
" clip-path="url(#p2b82797f04)" style="fill: #008000; opacity: 0.7"/>
   </g>
   <g id="patch_86">
    <path d="M 176.958033 135.011948 
L 182.394885 135.011948 
L 182.394885 135.011948 
L 176.958033 135.011948 
z
" clip-path="url(#p2b82797f04)" style="fill: #008000; opacity: 0.7"/>
   </g>
   <g id="patch_87">
    <path d="M 210.938361 135.011948 
L 216.375213 135.011948 
L 216.375213 129.097829 
L 210.938361 129.097829 
z
" clip-path="url(#p2b82797f04)" style="fill: #008000; opacity: 0.7"/>
   </g>
   <g id="patch_88">
    <path d="M 244.918689 135.011948 
L 250.355541 135.011948 
L 250.355541 133.829124 
L 244.918689 133.829124 
z
" clip-path="url(#p2b82797f04)" style="fill: #008000; opacity: 0.7"/>
   </g>
   <g id="patch_89">
    <path d="M 80.453902 135.011948 
L 85.890754 135.011948 
L 85.890754 119.635237 
L 80.453902 119.635237 
z
" clip-path="url(#p2b82797f04)" style="fill: #0000ff; opacity: 0.7"/>
   </g>
   <g id="patch_90">
    <path d="M 114.43423 135.011948 
L 119.871082 135.011948 
L 119.871082 132.6463 
L 114.43423 132.6463 
z
" clip-path="url(#p2b82797f04)" style="fill: #0000ff; opacity: 0.7"/>
   </g>
   <g id="patch_91">
    <path d="M 148.414557 135.011948 
L 153.85141 135.011948 
L 153.85141 135.011948 
L 148.414557 135.011948 
z
" clip-path="url(#p2b82797f04)" style="fill: #0000ff; opacity: 0.7"/>
   </g>
   <g id="patch_92">
    <path d="M 182.394885 135.011948 
L 187.831738 135.011948 
L 187.831738 135.011948 
L 182.394885 135.011948 
z
" clip-path="url(#p2b82797f04)" style="fill: #0000ff; opacity: 0.7"/>
   </g>
   <g id="patch_93">
    <path d="M 216.375213 135.011948 
L 221.812066 135.011948 
L 221.812066 125.549357 
L 216.375213 125.549357 
z
" clip-path="url(#p2b82797f04)" style="fill: #0000ff; opacity: 0.7"/>
   </g>
   <g id="patch_94">
    <path d="M 250.355541 135.011948 
L 255.792393 135.011948 
L 255.792393 120.818061 
L 250.355541 120.818061 
z
" clip-path="url(#p2b82797f04)" style="fill: #0000ff; opacity: 0.7"/>
   </g>
   <g id="patch_95">
    <path d="M 85.890754 135.011948 
L 91.327607 135.011948 
L 91.327607 130.280652 
L 85.890754 130.280652 
z
" clip-path="url(#p2b82797f04)" style="fill: #ff0000; opacity: 0.7"/>
   </g>
   <g id="patch_96">
    <path d="M 119.871082 135.011948 
L 125.307934 135.011948 
L 125.307934 130.280652 
L 119.871082 130.280652 
z
" clip-path="url(#p2b82797f04)" style="fill: #ff0000; opacity: 0.7"/>
   </g>
   <g id="patch_97">
    <path d="M 153.85141 135.011948 
L 159.288262 135.011948 
L 159.288262 135.011948 
L 153.85141 135.011948 
z
" clip-path="url(#p2b82797f04)" style="fill: #ff0000; opacity: 0.7"/>
   </g>
   <g id="patch_98">
    <path d="M 187.831738 135.011948 
L 193.26859 135.011948 
L 193.26859 129.097829 
L 187.831738 129.097829 
z
" clip-path="url(#p2b82797f04)" style="fill: #ff0000; opacity: 0.7"/>
   </g>
   <g id="patch_99">
    <path d="M 221.812066 135.011948 
L 227.248918 135.011948 
L 227.248918 131.463476 
L 221.812066 131.463476 
z
" clip-path="url(#p2b82797f04)" style="fill: #ff0000; opacity: 0.7"/>
   </g>
   <g id="patch_100">
    <path d="M 255.792393 135.011948 
L 261.229246 135.011948 
L 261.229246 131.463476 
L 255.792393 131.463476 
z
" clip-path="url(#p2b82797f04)" style="fill: #ff0000; opacity: 0.7"/>
   </g>
   <g id="patch_101">
    <path d="M 91.327607 135.011948 
L 96.764459 135.011948 
L 96.764459 135.011948 
L 91.327607 135.011948 
z
" clip-path="url(#p2b82797f04)" style="fill: #ffa500; opacity: 0.7"/>
   </g>
   <g id="patch_102">
    <path d="M 125.307934 135.011948 
L 130.744787 135.011948 
L 130.744787 132.6463 
L 125.307934 132.6463 
z
" clip-path="url(#p2b82797f04)" style="fill: #ffa500; opacity: 0.7"/>
   </g>
   <g id="patch_103">
    <path d="M 159.288262 135.011948 
L 164.725115 135.011948 
L 164.725115 135.011948 
L 159.288262 135.011948 
z
" clip-path="url(#p2b82797f04)" style="fill: #ffa500; opacity: 0.7"/>
   </g>
   <g id="patch_104">
    <path d="M 193.26859 135.011948 
L 198.705443 135.011948 
L 198.705443 132.6463 
L 193.26859 132.6463 
z
" clip-path="url(#p2b82797f04)" style="fill: #ffa500; opacity: 0.7"/>
   </g>
   <g id="patch_105">
    <path d="M 227.248918 135.011948 
L 232.68577 135.011948 
L 232.68577 133.829124 
L 227.248918 133.829124 
z
" clip-path="url(#p2b82797f04)" style="fill: #ffa500; opacity: 0.7"/>
   </g>
   <g id="patch_106">
    <path d="M 261.229246 135.011948 
L 266.666098 135.011948 
L 266.666098 133.829124 
L 261.229246 133.829124 
z
" clip-path="url(#p2b82797f04)" style="fill: #ffa500; opacity: 0.7"/>
   </g>
   <g id="patch_107">
    <path d="M 96.764459 135.011948 
L 102.201311 135.011948 
L 102.201311 135.011948 
L 96.764459 135.011948 
z
" clip-path="url(#p2b82797f04)" style="fill: #808080; opacity: 0.7"/>
   </g>
   <g id="patch_108">
    <path d="M 130.744787 135.011948 
L 136.181639 135.011948 
L 136.181639 123.183709 
L 130.744787 123.183709 
z
" clip-path="url(#p2b82797f04)" style="fill: #808080; opacity: 0.7"/>
   </g>
   <g id="patch_109">
    <path d="M 164.725115 135.011948 
L 170.161967 135.011948 
L 170.161967 135.011948 
L 164.725115 135.011948 
z
" clip-path="url(#p2b82797f04)" style="fill: #808080; opacity: 0.7"/>
   </g>
   <g id="patch_110">
    <path d="M 198.705443 135.011948 
L 204.142295 135.011948 
L 204.142295 122.000885 
L 198.705443 122.000885 
z
" clip-path="url(#p2b82797f04)" style="fill: #808080; opacity: 0.7"/>
   </g>
   <g id="patch_111">
    <path d="M 232.68577 135.011948 
L 238.122623 135.011948 
L 238.122623 133.829124 
L 232.68577 133.829124 
z
" clip-path="url(#p2b82797f04)" style="fill: #808080; opacity: 0.7"/>
   </g>
   <g id="patch_112">
    <path d="M 266.666098 135.011948 
L 272.102951 135.011948 
L 272.102951 133.829124 
L 266.666098 133.829124 
z
" clip-path="url(#p2b82797f04)" style="fill: #808080; opacity: 0.7"/>
   </g>
   <g id="matplotlib.axis_5">
    <g id="xtick_13"/>
    <g id="xtick_14"/>
    <g id="xtick_15"/>
    <g id="xtick_16"/>
    <g id="xtick_17"/>
    <g id="xtick_18"/>
   </g>
   <g id="matplotlib.axis_6">
    <g id="ytick_5">
     <g id="line2d_11">
      <g>
       <use xlink:href="#m5bf5047f36" x="69.92" y="135.011948" style="stroke: #000000; stroke-width: 0.8"/>
      </g>
     </g>
     <g id="text_13">
      <!-- 0 -->
      <g transform="translate(56.5575 138.811167)scale(0.1 -0.1)">
       <use xlink:href="#DejaVuSans-30"/>
      </g>
     </g>
    </g>
    <g id="ytick_6">
     <g id="line2d_12">
      <g>
       <use xlink:href="#m5bf5047f36" x="69.92" y="113.721118" style="stroke: #000000; stroke-width: 0.8"/>
      </g>
     </g>
     <g id="text_14">
      <!-- 1 -->
      <g transform="translate(56.5575 117.520336)scale(0.1 -0.1)">
       <use xlink:href="#DejaVuSans-31"/>
      </g>
     </g>
    </g>
    <g id="text_15">
     <g id="patch_113">
      <path d="M 53.192 129.846991 
L 53.192 116.756991 
L 37.4495 116.756991 
L 37.4495 129.846991 
z
" style="fill: #808080; stroke: #808080; stroke-linejoin: miter"/>
     </g>
     <!-- 9 -->
     <g transform="translate(47.52825 125.846991)rotate(-90)scale(0.08 -0.08)">
      <use xlink:href="#DejaVuSans-39"/>
     </g>
    </g>
   </g>
   <g id="LineCollection_3">
    <path d="M 105.599344 135.011948 
L 105.599344 111.592035 
" clip-path="url(#p2b82797f04)" style="fill: none; stroke-dasharray: 5.55,2.4; stroke-dashoffset: 0; stroke: #000000; stroke-width: 1.5"/>
    <path d="M 139.579672 135.011948 
L 139.579672 111.592035 
" clip-path="url(#p2b82797f04)" style="fill: none; stroke-dasharray: 5.55,2.4; stroke-dashoffset: 0; stroke: #000000; stroke-width: 1.5"/>
    <path d="M 173.56 135.011948 
L 173.56 111.592035 
" clip-path="url(#p2b82797f04)" style="fill: none; stroke-dasharray: 5.55,2.4; stroke-dashoffset: 0; stroke: #000000; stroke-width: 1.5"/>
    <path d="M 207.540328 135.011948 
L 207.540328 111.592035 
" clip-path="url(#p2b82797f04)" style="fill: none; stroke-dasharray: 5.55,2.4; stroke-dashoffset: 0; stroke: #000000; stroke-width: 1.5"/>
    <path d="M 241.520656 135.011948 
L 241.520656 111.592035 
" clip-path="url(#p2b82797f04)" style="fill: none; stroke-dasharray: 5.55,2.4; stroke-dashoffset: 0; stroke: #000000; stroke-width: 1.5"/>
   </g>
   <g id="patch_114">
    <path d="M 69.92 135.011948 
L 69.92 111.592035 
" style="fill: none; stroke: #000000; stroke-width: 0.8; stroke-linejoin: miter; stroke-linecap: square"/>
   </g>
   <g id="patch_115">
    <path d="M 277.2 135.011948 
L 277.2 111.592035 
" style="fill: none; stroke: #000000; stroke-width: 0.8; stroke-linejoin: miter; stroke-linecap: square"/>
   </g>
   <g id="patch_116">
    <path d="M 69.92 135.011948 
L 277.2 135.011948 
" style="fill: none; stroke: #000000; stroke-width: 0.8; stroke-linejoin: miter; stroke-linecap: square"/>
   </g>
   <g id="patch_117">
    <path d="M 69.92 111.592035 
L 277.2 111.592035 
" style="fill: none; stroke: #000000; stroke-width: 0.8; stroke-linejoin: miter; stroke-linecap: square"/>
   </g>
  </g>
  <g id="axes_4">
   <g id="patch_118">
    <path d="M 69.92 176.407965 
L 277.2 176.407965 
L 277.2 152.988052 
L 69.92 152.988052 
z
" style="fill: #ffffff"/>
   </g>
   <g id="patch_119">
    <path d="M 75.017049 176.407965 
L 80.453902 176.407965 
L 80.453902 176.407965 
L 75.017049 176.407965 
z
" clip-path="url(#p9e45a58c60)" style="fill: #008000; opacity: 0.7"/>
   </g>
   <g id="patch_120">
    <path d="M 108.997377 176.407965 
L 114.43423 176.407965 
L 114.43423 176.407965 
L 108.997377 176.407965 
z
" clip-path="url(#p9e45a58c60)" style="fill: #008000; opacity: 0.7"/>
   </g>
   <g id="patch_121">
    <path d="M 142.977705 176.407965 
L 148.414557 176.407965 
L 148.414557 176.407965 
L 142.977705 176.407965 
z
" clip-path="url(#p9e45a58c60)" style="fill: #008000; opacity: 0.7"/>
   </g>
   <g id="patch_122">
    <path d="M 176.958033 176.407965 
L 182.394885 176.407965 
L 182.394885 176.407965 
L 176.958033 176.407965 
z
" clip-path="url(#p9e45a58c60)" style="fill: #008000; opacity: 0.7"/>
   </g>
   <g id="patch_123">
    <path d="M 210.938361 176.407965 
L 216.375213 176.407965 
L 216.375213 176.407965 
L 210.938361 176.407965 
z
" clip-path="url(#p9e45a58c60)" style="fill: #008000; opacity: 0.7"/>
   </g>
   <g id="patch_124">
    <path d="M 244.918689 176.407965 
L 250.355541 176.407965 
L 250.355541 176.407965 
L 244.918689 176.407965 
z
" clip-path="url(#p9e45a58c60)" style="fill: #008000; opacity: 0.7"/>
   </g>
   <g id="patch_125">
    <path d="M 80.453902 176.407965 
L 85.890754 176.407965 
L 85.890754 175.816553 
L 80.453902 175.816553 
z
" clip-path="url(#p9e45a58c60)" style="fill: #0000ff; opacity: 0.7"/>
   </g>
   <g id="patch_126">
    <path d="M 114.43423 176.407965 
L 119.871082 176.407965 
L 119.871082 176.407965 
L 114.43423 176.407965 
z
" clip-path="url(#p9e45a58c60)" style="fill: #0000ff; opacity: 0.7"/>
   </g>
   <g id="patch_127">
    <path d="M 148.414557 176.407965 
L 153.85141 176.407965 
L 153.85141 176.407965 
L 148.414557 176.407965 
z
" clip-path="url(#p9e45a58c60)" style="fill: #0000ff; opacity: 0.7"/>
   </g>
   <g id="patch_128">
    <path d="M 182.394885 176.407965 
L 187.831738 176.407965 
L 187.831738 176.407965 
L 182.394885 176.407965 
z
" clip-path="url(#p9e45a58c60)" style="fill: #0000ff; opacity: 0.7"/>
   </g>
   <g id="patch_129">
    <path d="M 216.375213 176.407965 
L 221.812066 176.407965 
L 221.812066 175.225141 
L 216.375213 175.225141 
z
" clip-path="url(#p9e45a58c60)" style="fill: #0000ff; opacity: 0.7"/>
   </g>
   <g id="patch_130">
    <path d="M 250.355541 176.407965 
L 255.792393 176.407965 
L 255.792393 174.042318 
L 250.355541 174.042318 
z
" clip-path="url(#p9e45a58c60)" style="fill: #0000ff; opacity: 0.7"/>
   </g>
   <g id="patch_131">
    <path d="M 85.890754 176.407965 
L 91.327607 176.407965 
L 91.327607 176.407965 
L 85.890754 176.407965 
z
" clip-path="url(#p9e45a58c60)" style="fill: #ff0000; opacity: 0.7"/>
   </g>
   <g id="patch_132">
    <path d="M 119.871082 176.407965 
L 125.307934 176.407965 
L 125.307934 176.407965 
L 119.871082 176.407965 
z
" clip-path="url(#p9e45a58c60)" style="fill: #ff0000; opacity: 0.7"/>
   </g>
   <g id="patch_133">
    <path d="M 153.85141 176.407965 
L 159.288262 176.407965 
L 159.288262 170.493846 
L 153.85141 170.493846 
z
" clip-path="url(#p9e45a58c60)" style="fill: #ff0000; opacity: 0.7"/>
   </g>
   <g id="patch_134">
    <path d="M 187.831738 176.407965 
L 193.26859 176.407965 
L 193.26859 169.311022 
L 187.831738 169.311022 
z
" clip-path="url(#p9e45a58c60)" style="fill: #ff0000; opacity: 0.7"/>
   </g>
   <g id="patch_135">
    <path d="M 221.812066 176.407965 
L 227.248918 176.407965 
L 227.248918 175.225141 
L 221.812066 175.225141 
z
" clip-path="url(#p9e45a58c60)" style="fill: #ff0000; opacity: 0.7"/>
   </g>
   <g id="patch_136">
    <path d="M 255.792393 176.407965 
L 261.229246 176.407965 
L 261.229246 174.042318 
L 255.792393 174.042318 
z
" clip-path="url(#p9e45a58c60)" style="fill: #ff0000; opacity: 0.7"/>
   </g>
   <g id="patch_137">
    <path d="M 91.327607 176.407965 
L 96.764459 176.407965 
L 96.764459 175.816553 
L 91.327607 175.816553 
z
" clip-path="url(#p9e45a58c60)" style="fill: #ffa500; opacity: 0.7"/>
   </g>
   <g id="patch_138">
    <path d="M 125.307934 176.407965 
L 130.744787 176.407965 
L 130.744787 176.407965 
L 125.307934 176.407965 
z
" clip-path="url(#p9e45a58c60)" style="fill: #ffa500; opacity: 0.7"/>
   </g>
   <g id="patch_139">
    <path d="M 159.288262 176.407965 
L 164.725115 176.407965 
L 164.725115 174.042318 
L 159.288262 174.042318 
z
" clip-path="url(#p9e45a58c60)" style="fill: #ffa500; opacity: 0.7"/>
   </g>
   <g id="patch_140">
    <path d="M 193.26859 176.407965 
L 198.705443 176.407965 
L 198.705443 176.407965 
L 193.26859 176.407965 
z
" clip-path="url(#p9e45a58c60)" style="fill: #ffa500; opacity: 0.7"/>
   </g>
   <g id="patch_141">
    <path d="M 227.248918 176.407965 
L 232.68577 176.407965 
L 232.68577 168.128198 
L 227.248918 168.128198 
z
" clip-path="url(#p9e45a58c60)" style="fill: #ffa500; opacity: 0.7"/>
   </g>
   <g id="patch_142">
    <path d="M 261.229246 176.407965 
L 266.666098 176.407965 
L 266.666098 169.902434 
L 261.229246 169.902434 
z
" clip-path="url(#p9e45a58c60)" style="fill: #ffa500; opacity: 0.7"/>
   </g>
   <g id="patch_143">
    <path d="M 96.764459 176.407965 
L 102.201311 176.407965 
L 102.201311 156.299959 
L 96.764459 156.299959 
z
" clip-path="url(#p9e45a58c60)" style="fill: #808080; opacity: 0.7"/>
   </g>
   <g id="patch_144">
    <path d="M 130.744787 176.407965 
L 136.181639 176.407965 
L 136.181639 155.117135 
L 130.744787 155.117135 
z
" clip-path="url(#p9e45a58c60)" style="fill: #808080; opacity: 0.7"/>
   </g>
   <g id="patch_145">
    <path d="M 164.725115 176.407965 
L 170.161967 176.407965 
L 170.161967 163.396902 
L 164.725115 163.396902 
z
" clip-path="url(#p9e45a58c60)" style="fill: #808080; opacity: 0.7"/>
   </g>
   <g id="patch_146">
    <path d="M 198.705443 176.407965 
L 204.142295 176.407965 
L 204.142295 162.214078 
L 198.705443 162.214078 
z
" clip-path="url(#p9e45a58c60)" style="fill: #808080; opacity: 0.7"/>
   </g>
   <g id="patch_147">
    <path d="M 232.68577 176.407965 
L 238.122623 176.407965 
L 238.122623 165.76255 
L 232.68577 165.76255 
z
" clip-path="url(#p9e45a58c60)" style="fill: #808080; opacity: 0.7"/>
   </g>
   <g id="patch_148">
    <path d="M 266.666098 176.407965 
L 272.102951 176.407965 
L 272.102951 166.353962 
L 266.666098 166.353962 
z
" clip-path="url(#p9e45a58c60)" style="fill: #808080; opacity: 0.7"/>
   </g>
   <g id="matplotlib.axis_7">
    <g id="xtick_19"/>
    <g id="xtick_20"/>
    <g id="xtick_21"/>
    <g id="xtick_22"/>
    <g id="xtick_23"/>
    <g id="xtick_24"/>
   </g>
   <g id="matplotlib.axis_8">
    <g id="ytick_7">
     <g id="line2d_13">
      <g>
       <use xlink:href="#m5bf5047f36" x="69.92" y="176.407965" style="stroke: #000000; stroke-width: 0.8"/>
      </g>
     </g>
     <g id="text_16">
      <!-- 0 -->
      <g transform="translate(56.5575 180.207184)scale(0.1 -0.1)">
       <use xlink:href="#DejaVuSans-30"/>
      </g>
     </g>
    </g>
    <g id="ytick_8">
     <g id="line2d_14">
      <g>
       <use xlink:href="#m5bf5047f36" x="69.92" y="155.117135" style="stroke: #000000; stroke-width: 0.8"/>
      </g>
     </g>
     <g id="text_17">
      <!-- 1 -->
      <g transform="translate(56.5575 158.916354)scale(0.1 -0.1)">
       <use xlink:href="#DejaVuSans-31"/>
      </g>
     </g>
    </g>
    <g id="text_18">
     <g id="patch_149">
      <path d="M 53.192 175.098009 
L 53.192 154.298009 
L 37.4495 154.298009 
L 37.4495 175.098009 
z
" style="fill: #ffa500; stroke: #ffa500; stroke-linejoin: miter"/>
     </g>
     <!-- 8$\cdot$3 -->
     <g transform="translate(47.52825 171.098009)rotate(-90)scale(0.08 -0.08)">
      <use xlink:href="#DejaVuSans-38" transform="translate(0 0.78125)"/>
      <use xlink:href="#DejaVuSans-22c5" transform="translate(63.623047 0.78125)"/>
      <use xlink:href="#DejaVuSans-33" transform="translate(95.410156 0.78125)"/>
     </g>
    </g>
   </g>
   <g id="LineCollection_4">
    <path d="M 105.599344 176.407965 
L 105.599344 152.988052 
" clip-path="url(#p9e45a58c60)" style="fill: none; stroke-dasharray: 5.55,2.4; stroke-dashoffset: 0; stroke: #000000; stroke-width: 1.5"/>
    <path d="M 139.579672 176.407965 
L 139.579672 152.988052 
" clip-path="url(#p9e45a58c60)" style="fill: none; stroke-dasharray: 5.55,2.4; stroke-dashoffset: 0; stroke: #000000; stroke-width: 1.5"/>
    <path d="M 173.56 176.407965 
L 173.56 152.988052 
" clip-path="url(#p9e45a58c60)" style="fill: none; stroke-dasharray: 5.55,2.4; stroke-dashoffset: 0; stroke: #000000; stroke-width: 1.5"/>
    <path d="M 207.540328 176.407965 
L 207.540328 152.988052 
" clip-path="url(#p9e45a58c60)" style="fill: none; stroke-dasharray: 5.55,2.4; stroke-dashoffset: 0; stroke: #000000; stroke-width: 1.5"/>
    <path d="M 241.520656 176.407965 
L 241.520656 152.988052 
" clip-path="url(#p9e45a58c60)" style="fill: none; stroke-dasharray: 5.55,2.4; stroke-dashoffset: 0; stroke: #000000; stroke-width: 1.5"/>
   </g>
   <g id="patch_150">
    <path d="M 69.92 176.407965 
L 69.92 152.988052 
" style="fill: none; stroke: #000000; stroke-width: 0.8; stroke-linejoin: miter; stroke-linecap: square"/>
   </g>
   <g id="patch_151">
    <path d="M 277.2 176.407965 
L 277.2 152.988052 
" style="fill: none; stroke: #000000; stroke-width: 0.8; stroke-linejoin: miter; stroke-linecap: square"/>
   </g>
   <g id="patch_152">
    <path d="M 69.92 176.407965 
L 277.2 176.407965 
" style="fill: none; stroke: #000000; stroke-width: 0.8; stroke-linejoin: miter; stroke-linecap: square"/>
   </g>
   <g id="patch_153">
    <path d="M 69.92 152.988052 
L 277.2 152.988052 
" style="fill: none; stroke: #000000; stroke-width: 0.8; stroke-linejoin: miter; stroke-linecap: square"/>
   </g>
   <g id="patch_154">
    <path d="M 173.56 176.407965 
L 207.540328 176.407965 
L 207.540328 154.265502 
L 173.56 154.265502 
L 173.56 176.407965 
z
" clip-path="url(#p9e45a58c60)" style="fill: none; stroke: #000000; stroke-width: 2; stroke-linejoin: miter"/>
   </g>
  </g>
  <g id="axes_5">
   <g id="patch_155">
    <path d="M 69.92 217.803983 
L 277.2 217.803983 
L 277.2 194.384069 
L 69.92 194.384069 
z
" style="fill: #ffffff"/>
   </g>
   <g id="patch_156">
    <path d="M 75.017049 217.803983 
L 80.453902 217.803983 
L 80.453902 211.298451 
L 75.017049 211.298451 
z
" clip-path="url(#p15583291a5)" style="fill: #008000; opacity: 0.7"/>
   </g>
   <g id="patch_157">
    <path d="M 108.997377 217.803983 
L 114.43423 217.803983 
L 114.43423 217.803983 
L 108.997377 217.803983 
z
" clip-path="url(#p15583291a5)" style="fill: #008000; opacity: 0.7"/>
   </g>
   <g id="patch_158">
    <path d="M 142.977705 217.803983 
L 148.414557 217.803983 
L 148.414557 211.889863 
L 142.977705 211.889863 
z
" clip-path="url(#p15583291a5)" style="fill: #008000; opacity: 0.7"/>
   </g>
   <g id="patch_159">
    <path d="M 176.958033 217.803983 
L 182.394885 217.803983 
L 182.394885 217.803983 
L 176.958033 217.803983 
z
" clip-path="url(#p15583291a5)" style="fill: #008000; opacity: 0.7"/>
   </g>
   <g id="patch_160">
    <path d="M 210.938361 217.803983 
L 216.375213 217.803983 
L 216.375213 217.803983 
L 210.938361 217.803983 
z
" clip-path="url(#p15583291a5)" style="fill: #008000; opacity: 0.7"/>
   </g>
   <g id="patch_161">
    <path d="M 244.918689 217.803983 
L 250.355541 217.803983 
L 250.355541 214.255511 
L 244.918689 214.255511 
z
" clip-path="url(#p15583291a5)" style="fill: #008000; opacity: 0.7"/>
   </g>
   <g id="patch_162">
    <path d="M 80.453902 217.803983 
L 85.890754 217.803983 
L 85.890754 211.298451 
L 80.453902 211.298451 
z
" clip-path="url(#p15583291a5)" style="fill: #0000ff; opacity: 0.7"/>
   </g>
   <g id="patch_163">
    <path d="M 114.43423 217.803983 
L 119.871082 217.803983 
L 119.871082 216.029747 
L 114.43423 216.029747 
z
" clip-path="url(#p15583291a5)" style="fill: #0000ff; opacity: 0.7"/>
   </g>
   <g id="patch_164">
    <path d="M 148.414557 217.803983 
L 153.85141 217.803983 
L 153.85141 208.341391 
L 148.414557 208.341391 
z
" clip-path="url(#p15583291a5)" style="fill: #0000ff; opacity: 0.7"/>
   </g>
   <g id="patch_165">
    <path d="M 182.394885 217.803983 
L 187.831738 217.803983 
L 187.831738 216.621159 
L 182.394885 216.621159 
z
" clip-path="url(#p15583291a5)" style="fill: #0000ff; opacity: 0.7"/>
   </g>
   <g id="patch_166">
    <path d="M 216.375213 217.803983 
L 221.812066 217.803983 
L 221.812066 213.072687 
L 216.375213 213.072687 
z
" clip-path="url(#p15583291a5)" style="fill: #0000ff; opacity: 0.7"/>
   </g>
   <g id="patch_167">
    <path d="M 250.355541 217.803983 
L 255.792393 217.803983 
L 255.792393 210.115627 
L 250.355541 210.115627 
z
" clip-path="url(#p15583291a5)" style="fill: #0000ff; opacity: 0.7"/>
   </g>
   <g id="patch_168">
    <path d="M 85.890754 217.803983 
L 91.327607 217.803983 
L 91.327607 217.803983 
L 85.890754 217.803983 
z
" clip-path="url(#p15583291a5)" style="fill: #ff0000; opacity: 0.7"/>
   </g>
   <g id="patch_169">
    <path d="M 119.871082 217.803983 
L 125.307934 217.803983 
L 125.307934 217.212571 
L 119.871082 217.212571 
z
" clip-path="url(#p15583291a5)" style="fill: #ff0000; opacity: 0.7"/>
   </g>
   <g id="patch_170">
    <path d="M 153.85141 217.803983 
L 159.288262 217.803983 
L 159.288262 214.255511 
L 153.85141 214.255511 
z
" clip-path="url(#p15583291a5)" style="fill: #ff0000; opacity: 0.7"/>
   </g>
   <g id="patch_171">
    <path d="M 187.831738 217.803983 
L 193.26859 217.803983 
L 193.26859 216.621159 
L 187.831738 216.621159 
z
" clip-path="url(#p15583291a5)" style="fill: #ff0000; opacity: 0.7"/>
   </g>
   <g id="patch_172">
    <path d="M 221.812066 217.803983 
L 227.248918 217.803983 
L 227.248918 208.341391 
L 221.812066 208.341391 
z
" clip-path="url(#p15583291a5)" style="fill: #ff0000; opacity: 0.7"/>
   </g>
   <g id="patch_173">
    <path d="M 255.792393 217.803983 
L 261.229246 217.803983 
L 261.229246 210.115627 
L 255.792393 210.115627 
z
" clip-path="url(#p15583291a5)" style="fill: #ff0000; opacity: 0.7"/>
   </g>
   <g id="patch_174">
    <path d="M 91.327607 217.803983 
L 96.764459 217.803983 
L 96.764459 217.803983 
L 91.327607 217.803983 
z
" clip-path="url(#p15583291a5)" style="fill: #ffa500; opacity: 0.7"/>
   </g>
   <g id="patch_175">
    <path d="M 125.307934 217.803983 
L 130.744787 217.803983 
L 130.744787 217.803983 
L 125.307934 217.803983 
z
" clip-path="url(#p15583291a5)" style="fill: #ffa500; opacity: 0.7"/>
   </g>
   <g id="patch_176">
    <path d="M 159.288262 217.803983 
L 164.725115 217.803983 
L 164.725115 216.621159 
L 159.288262 216.621159 
z
" clip-path="url(#p15583291a5)" style="fill: #ffa500; opacity: 0.7"/>
   </g>
   <g id="patch_177">
    <path d="M 193.26859 217.803983 
L 198.705443 217.803983 
L 198.705443 209.524215 
L 193.26859 209.524215 
z
" clip-path="url(#p15583291a5)" style="fill: #ffa500; opacity: 0.7"/>
   </g>
   <g id="patch_178">
    <path d="M 227.248918 217.803983 
L 232.68577 217.803983 
L 232.68577 210.707039 
L 227.248918 210.707039 
z
" clip-path="url(#p15583291a5)" style="fill: #ffa500; opacity: 0.7"/>
   </g>
   <g id="patch_179">
    <path d="M 261.229246 217.803983 
L 266.666098 217.803983 
L 266.666098 216.029747 
L 261.229246 216.029747 
z
" clip-path="url(#p15583291a5)" style="fill: #ffa500; opacity: 0.7"/>
   </g>
   <g id="patch_180">
    <path d="M 96.764459 217.803983 
L 102.201311 217.803983 
L 102.201311 209.524215 
L 96.764459 209.524215 
z
" clip-path="url(#p15583291a5)" style="fill: #808080; opacity: 0.7"/>
   </g>
   <g id="patch_181">
    <path d="M 130.744787 217.803983 
L 136.181639 217.803983 
L 136.181639 198.8788 
L 130.744787 198.8788 
z
" clip-path="url(#p15583291a5)" style="fill: #808080; opacity: 0.7"/>
   </g>
   <g id="patch_182">
    <path d="M 164.725115 217.803983 
L 170.161967 217.803983 
L 170.161967 216.621159 
L 164.725115 216.621159 
z
" clip-path="url(#p15583291a5)" style="fill: #808080; opacity: 0.7"/>
   </g>
   <g id="patch_183">
    <path d="M 198.705443 217.803983 
L 204.142295 217.803983 
L 204.142295 207.158567 
L 198.705443 207.158567 
z
" clip-path="url(#p15583291a5)" style="fill: #808080; opacity: 0.7"/>
   </g>
   <g id="patch_184">
    <path d="M 232.68577 217.803983 
L 238.122623 217.803983 
L 238.122623 217.803983 
L 232.68577 217.803983 
z
" clip-path="url(#p15583291a5)" style="fill: #808080; opacity: 0.7"/>
   </g>
   <g id="patch_185">
    <path d="M 266.666098 217.803983 
L 272.102951 217.803983 
L 272.102951 217.212571 
L 266.666098 217.212571 
z
" clip-path="url(#p15583291a5)" style="fill: #808080; opacity: 0.7"/>
   </g>
   <g id="matplotlib.axis_9">
    <g id="xtick_25"/>
    <g id="xtick_26"/>
    <g id="xtick_27"/>
    <g id="xtick_28"/>
    <g id="xtick_29"/>
    <g id="xtick_30"/>
   </g>
   <g id="matplotlib.axis_10">
    <g id="ytick_9">
     <g id="line2d_15">
      <g>
       <use xlink:href="#m5bf5047f36" x="69.92" y="217.803983" style="stroke: #000000; stroke-width: 0.8"/>
      </g>
     </g>
     <g id="text_19">
      <!-- 0 -->
      <g transform="translate(56.5575 221.603201)scale(0.1 -0.1)">
       <use xlink:href="#DejaVuSans-30"/>
      </g>
     </g>
    </g>
    <g id="ytick_10">
     <g id="line2d_16">
      <g>
       <use xlink:href="#m5bf5047f36" x="69.92" y="196.513152" style="stroke: #000000; stroke-width: 0.8"/>
      </g>
     </g>
     <g id="text_20">
      <!-- 1 -->
      <g transform="translate(56.5575 200.312371)scale(0.1 -0.1)">
       <use xlink:href="#DejaVuSans-31"/>
      </g>
     </g>
    </g>
    <g id="text_21">
     <g id="patch_186">
      <path d="M 53.192 216.494026 
L 53.192 195.694026 
L 37.4495 195.694026 
L 37.4495 216.494026 
z
" style="fill: #ff0000; stroke: #ff0000; stroke-linejoin: miter"/>
     </g>
     <!-- 4$\cdot$5 -->
     <g transform="translate(47.52825 212.494026)rotate(-90)scale(0.08 -0.08)">
      <use xlink:href="#DejaVuSans-34" transform="translate(0 0.09375)"/>
      <use xlink:href="#DejaVuSans-22c5" transform="translate(63.623047 0.09375)"/>
      <use xlink:href="#DejaVuSans-35" transform="translate(95.410156 0.09375)"/>
     </g>
    </g>
   </g>
   <g id="LineCollection_5">
    <path d="M 105.599344 217.803983 
L 105.599344 194.384069 
" clip-path="url(#p15583291a5)" style="fill: none; stroke-dasharray: 5.55,2.4; stroke-dashoffset: 0; stroke: #000000; stroke-width: 1.5"/>
    <path d="M 139.579672 217.803983 
L 139.579672 194.384069 
" clip-path="url(#p15583291a5)" style="fill: none; stroke-dasharray: 5.55,2.4; stroke-dashoffset: 0; stroke: #000000; stroke-width: 1.5"/>
    <path d="M 173.56 217.803983 
L 173.56 194.384069 
" clip-path="url(#p15583291a5)" style="fill: none; stroke-dasharray: 5.55,2.4; stroke-dashoffset: 0; stroke: #000000; stroke-width: 1.5"/>
    <path d="M 207.540328 217.803983 
L 207.540328 194.384069 
" clip-path="url(#p15583291a5)" style="fill: none; stroke-dasharray: 5.55,2.4; stroke-dashoffset: 0; stroke: #000000; stroke-width: 1.5"/>
    <path d="M 241.520656 217.803983 
L 241.520656 194.384069 
" clip-path="url(#p15583291a5)" style="fill: none; stroke-dasharray: 5.55,2.4; stroke-dashoffset: 0; stroke: #000000; stroke-width: 1.5"/>
   </g>
   <g id="patch_187">
    <path d="M 69.92 217.803983 
L 69.92 194.384069 
" style="fill: none; stroke: #000000; stroke-width: 0.8; stroke-linejoin: miter; stroke-linecap: square"/>
   </g>
   <g id="patch_188">
    <path d="M 277.2 217.803983 
L 277.2 194.384069 
" style="fill: none; stroke: #000000; stroke-width: 0.8; stroke-linejoin: miter; stroke-linecap: square"/>
   </g>
   <g id="patch_189">
    <path d="M 69.92 217.803983 
L 277.2 217.803983 
" style="fill: none; stroke: #000000; stroke-width: 0.8; stroke-linejoin: miter; stroke-linecap: square"/>
   </g>
   <g id="patch_190">
    <path d="M 69.92 194.384069 
L 277.2 194.384069 
" style="fill: none; stroke: #000000; stroke-width: 0.8; stroke-linejoin: miter; stroke-linecap: square"/>
   </g>
   <g id="patch_191">
    <path d="M 207.540328 217.803983 
L 241.520656 217.803983 
L 241.520656 195.661519 
L 207.540328 195.661519 
L 207.540328 217.803983 
z
" clip-path="url(#p15583291a5)" style="fill: none; stroke: #000000; stroke-width: 2; stroke-linejoin: miter"/>
   </g>
  </g>
  <g id="axes_6">
   <g id="patch_192">
    <path d="M 69.92 259.2 
L 277.2 259.2 
L 277.2 235.780087 
L 69.92 235.780087 
z
" style="fill: #ffffff"/>
   </g>
   <g id="patch_193">
    <path d="M 75.017049 259.2 
L 80.453902 259.2 
L 80.453902 255.060116 
L 75.017049 255.060116 
z
" clip-path="url(#p2667886590)" style="fill: #008000; opacity: 0.7"/>
   </g>
   <g id="patch_194">
    <path d="M 108.997377 259.2 
L 114.43423 259.2 
L 114.43423 258.608588 
L 108.997377 258.608588 
z
" clip-path="url(#p2667886590)" style="fill: #008000; opacity: 0.7"/>
   </g>
   <g id="patch_195">
    <path d="M 142.977705 259.2 
L 148.414557 259.2 
L 148.414557 258.017176 
L 142.977705 258.017176 
z
" clip-path="url(#p2667886590)" style="fill: #008000; opacity: 0.7"/>
   </g>
   <g id="patch_196">
    <path d="M 176.958033 259.2 
L 182.394885 259.2 
L 182.394885 259.2 
L 176.958033 259.2 
z
" clip-path="url(#p2667886590)" style="fill: #008000; opacity: 0.7"/>
   </g>
   <g id="patch_197">
    <path d="M 210.938361 259.2 
L 216.375213 259.2 
L 216.375213 255.651528 
L 210.938361 255.651528 
z
" clip-path="url(#p2667886590)" style="fill: #008000; opacity: 0.7"/>
   </g>
   <g id="patch_198">
    <path d="M 244.918689 259.2 
L 250.355541 259.2 
L 250.355541 254.468704 
L 244.918689 254.468704 
z
" clip-path="url(#p2667886590)" style="fill: #008000; opacity: 0.7"/>
   </g>
   <g id="patch_199">
    <path d="M 80.453902 259.2 
L 85.890754 259.2 
L 85.890754 245.597525 
L 80.453902 245.597525 
z
" clip-path="url(#p2667886590)" style="fill: #0000ff; opacity: 0.7"/>
   </g>
   <g id="patch_200">
    <path d="M 114.43423 259.2 
L 119.871082 259.2 
L 119.871082 258.017176 
L 114.43423 258.017176 
z
" clip-path="url(#p2667886590)" style="fill: #0000ff; opacity: 0.7"/>
   </g>
   <g id="patch_201">
    <path d="M 148.414557 259.2 
L 153.85141 259.2 
L 153.85141 245.006113 
L 148.414557 245.006113 
z
" clip-path="url(#p2667886590)" style="fill: #0000ff; opacity: 0.7"/>
   </g>
   <g id="patch_202">
    <path d="M 182.394885 259.2 
L 187.831738 259.2 
L 187.831738 256.834352 
L 182.394885 256.834352 
z
" clip-path="url(#p2667886590)" style="fill: #0000ff; opacity: 0.7"/>
   </g>
   <g id="patch_203">
    <path d="M 216.375213 259.2 
L 221.812066 259.2 
L 221.812066 251.511645 
L 216.375213 251.511645 
z
" clip-path="url(#p2667886590)" style="fill: #0000ff; opacity: 0.7"/>
   </g>
   <g id="patch_204">
    <path d="M 250.355541 259.2 
L 255.792393 259.2 
L 255.792393 256.834352 
L 250.355541 256.834352 
z
" clip-path="url(#p2667886590)" style="fill: #0000ff; opacity: 0.7"/>
   </g>
   <g id="patch_205">
    <path d="M 85.890754 259.2 
L 91.327607 259.2 
L 91.327607 259.2 
L 85.890754 259.2 
z
" clip-path="url(#p2667886590)" style="fill: #ff0000; opacity: 0.7"/>
   </g>
   <g id="patch_206">
    <path d="M 119.871082 259.2 
L 125.307934 259.2 
L 125.307934 257.425764 
L 119.871082 257.425764 
z
" clip-path="url(#p2667886590)" style="fill: #ff0000; opacity: 0.7"/>
   </g>
   <g id="patch_207">
    <path d="M 153.85141 259.2 
L 159.288262 259.2 
L 159.288262 255.651528 
L 153.85141 255.651528 
z
" clip-path="url(#p2667886590)" style="fill: #ff0000; opacity: 0.7"/>
   </g>
   <g id="patch_208">
    <path d="M 187.831738 259.2 
L 193.26859 259.2 
L 193.26859 256.834352 
L 187.831738 256.834352 
z
" clip-path="url(#p2667886590)" style="fill: #ff0000; opacity: 0.7"/>
   </g>
   <g id="patch_209">
    <path d="M 221.812066 259.2 
L 227.248918 259.2 
L 227.248918 251.511645 
L 221.812066 251.511645 
z
" clip-path="url(#p2667886590)" style="fill: #ff0000; opacity: 0.7"/>
   </g>
   <g id="patch_210">
    <path d="M 255.792393 259.2 
L 261.229246 259.2 
L 261.229246 256.834352 
L 255.792393 256.834352 
z
" clip-path="url(#p2667886590)" style="fill: #ff0000; opacity: 0.7"/>
   </g>
   <g id="patch_211">
    <path d="M 91.327607 259.2 
L 96.764459 259.2 
L 96.764459 259.2 
L 91.327607 259.2 
z
" clip-path="url(#p2667886590)" style="fill: #ffa500; opacity: 0.7"/>
   </g>
   <g id="patch_212">
    <path d="M 125.307934 259.2 
L 130.744787 259.2 
L 130.744787 255.651528 
L 125.307934 255.651528 
z
" clip-path="url(#p2667886590)" style="fill: #ffa500; opacity: 0.7"/>
   </g>
   <g id="patch_213">
    <path d="M 159.288262 259.2 
L 164.725115 259.2 
L 164.725115 258.017176 
L 159.288262 258.017176 
z
" clip-path="url(#p2667886590)" style="fill: #ffa500; opacity: 0.7"/>
   </g>
   <g id="patch_214">
    <path d="M 193.26859 259.2 
L 198.705443 259.2 
L 198.705443 252.694468 
L 193.26859 252.694468 
z
" clip-path="url(#p2667886590)" style="fill: #ffa500; opacity: 0.7"/>
   </g>
   <g id="patch_215">
    <path d="M 227.248918 259.2 
L 232.68577 259.2 
L 232.68577 257.425764 
L 227.248918 257.425764 
z
" clip-path="url(#p2667886590)" style="fill: #ffa500; opacity: 0.7"/>
   </g>
   <g id="patch_216">
    <path d="M 261.229246 259.2 
L 266.666098 259.2 
L 266.666098 247.371761 
L 261.229246 247.371761 
z
" clip-path="url(#p2667886590)" style="fill: #ffa500; opacity: 0.7"/>
   </g>
   <g id="patch_217">
    <path d="M 96.764459 259.2 
L 102.201311 259.2 
L 102.201311 255.651528 
L 96.764459 255.651528 
z
" clip-path="url(#p2667886590)" style="fill: #808080; opacity: 0.7"/>
   </g>
   <g id="patch_218">
    <path d="M 130.744787 259.2 
L 136.181639 259.2 
L 136.181639 245.006113 
L 130.744787 245.006113 
z
" clip-path="url(#p2667886590)" style="fill: #808080; opacity: 0.7"/>
   </g>
   <g id="patch_219">
    <path d="M 164.725115 259.2 
L 170.161967 259.2 
L 170.161967 258.017176 
L 164.725115 258.017176 
z
" clip-path="url(#p2667886590)" style="fill: #808080; opacity: 0.7"/>
   </g>
   <g id="patch_220">
    <path d="M 198.705443 259.2 
L 204.142295 259.2 
L 204.142295 249.145997 
L 198.705443 249.145997 
z
" clip-path="url(#p2667886590)" style="fill: #808080; opacity: 0.7"/>
   </g>
   <g id="patch_221">
    <path d="M 232.68577 259.2 
L 238.122623 259.2 
L 238.122623 258.608588 
L 232.68577 258.608588 
z
" clip-path="url(#p2667886590)" style="fill: #808080; opacity: 0.7"/>
   </g>
   <g id="patch_222">
    <path d="M 266.666098 259.2 
L 272.102951 259.2 
L 272.102951 259.2 
L 266.666098 259.2 
z
" clip-path="url(#p2667886590)" style="fill: #808080; opacity: 0.7"/>
   </g>
   <g id="matplotlib.axis_11">
    <g id="xtick_31">
     <g id="line2d_17">
      <defs>
       <path id="m5a6eaa38bf" d="M 0 0 
L 0 3.5 
" style="stroke: #000000; stroke-width: 0.8"/>
      </defs>
      <g>
       <use xlink:href="#m5a6eaa38bf" x="88.60918" y="259.2" style="stroke: #000000; stroke-width: 0.8"/>
      </g>
     </g>
     <g id="text_22">
      <g id="patch_223">
       <path d="M 75.68918 277.9425 
L 101.52918 277.9425 
L 101.52918 262.2 
L 75.68918 262.2 
z
" style="fill: #6495ed; stroke: #6495ed; stroke-linejoin: miter"/>
      </g>
      <!-- 11$\cdot$1 -->
      <g transform="translate(79.68918 272.27875)scale(0.08 -0.08)">
       <use xlink:href="#DejaVuSans-31" transform="translate(0 0.09375)"/>
       <use xlink:href="#DejaVuSans-31" transform="translate(63.623047 0.09375)"/>
       <use xlink:href="#DejaVuSans-22c5" transform="translate(127.246094 0.09375)"/>
       <use xlink:href="#DejaVuSans-31" transform="translate(159.033203 0.09375)"/>
      </g>
     </g>
    </g>
    <g id="xtick_32">
     <g id="line2d_18">
      <g>
       <use xlink:href="#m5a6eaa38bf" x="122.589508" y="259.2" style="stroke: #000000; stroke-width: 0.8"/>
      </g>
     </g>
     <g id="text_23">
      <g id="patch_224">
       <path d="M 109.669508 277.9425 
L 135.509508 277.9425 
L 135.509508 262.2 
L 109.669508 262.2 
z
" style="fill: #00ff00; stroke: #00ff00; stroke-linejoin: miter"/>
      </g>
      <!-- 10$\cdot$2 -->
      <g transform="translate(113.669508 272.27875)scale(0.08 -0.08)">
       <use xlink:href="#DejaVuSans-31" transform="translate(0 0.78125)"/>
       <use xlink:href="#DejaVuSans-30" transform="translate(63.623047 0.78125)"/>
       <use xlink:href="#DejaVuSans-22c5" transform="translate(127.246094 0.78125)"/>
       <use xlink:href="#DejaVuSans-32" transform="translate(159.033203 0.78125)"/>
      </g>
     </g>
    </g>
    <g id="xtick_33">
     <g id="line2d_19">
      <g>
       <use xlink:href="#m5a6eaa38bf" x="156.569836" y="259.2" style="stroke: #000000; stroke-width: 0.8"/>
      </g>
     </g>
     <g id="text_24">
      <g id="patch_225">
       <path d="M 150.024836 277.9425 
L 163.114836 277.9425 
L 163.114836 262.2 
L 150.024836 262.2 
z
" style="fill: #808080; stroke: #808080; stroke-linejoin: miter"/>
      </g>
      <!-- 9 -->
      <g transform="translate(154.024836 272.27875)scale(0.08 -0.08)">
       <use xlink:href="#DejaVuSans-39"/>
      </g>
     </g>
    </g>
    <g id="xtick_34">
     <g id="line2d_20">
      <g>
       <use xlink:href="#m5a6eaa38bf" x="190.550164" y="259.2" style="stroke: #000000; stroke-width: 0.8"/>
      </g>
     </g>
     <g id="text_25">
      <g id="patch_226">
       <path d="M 180.150164 277.9425 
L 200.950164 277.9425 
L 200.950164 262.2 
L 180.150164 262.2 
z
" style="fill: #ffa500; stroke: #ffa500; stroke-linejoin: miter"/>
      </g>
      <!-- 8$\cdot$3 -->
      <g transform="translate(184.150164 272.27875)scale(0.08 -0.08)">
       <use xlink:href="#DejaVuSans-38" transform="translate(0 0.78125)"/>
       <use xlink:href="#DejaVuSans-22c5" transform="translate(63.623047 0.78125)"/>
       <use xlink:href="#DejaVuSans-33" transform="translate(95.410156 0.78125)"/>
      </g>
     </g>
    </g>
    <g id="xtick_35">
     <g id="line2d_21">
      <g>
       <use xlink:href="#m5a6eaa38bf" x="224.530492" y="259.2" style="stroke: #000000; stroke-width: 0.8"/>
      </g>
     </g>
     <g id="text_26">
      <g id="patch_227">
       <path d="M 214.130492 277.9425 
L 234.930492 277.9425 
L 234.930492 262.2 
L 214.130492 262.2 
z
" style="fill: #ff0000; stroke: #ff0000; stroke-linejoin: miter"/>
      </g>
      <!-- 4$\cdot$5 -->
      <g transform="translate(218.130492 272.27875)scale(0.08 -0.08)">
       <use xlink:href="#DejaVuSans-34" transform="translate(0 0.09375)"/>
       <use xlink:href="#DejaVuSans-22c5" transform="translate(63.623047 0.09375)"/>
       <use xlink:href="#DejaVuSans-35" transform="translate(95.410156 0.09375)"/>
      </g>
     </g>
    </g>
    <g id="xtick_36">
     <g id="line2d_22">
      <g>
       <use xlink:href="#m5a6eaa38bf" x="258.51082" y="259.2" style="stroke: #000000; stroke-width: 0.8"/>
      </g>
     </g>
     <g id="text_27">
      <g id="patch_228">
       <path d="M 248.11082 277.9425 
L 268.91082 277.9425 
L 268.91082 262.2 
L 248.11082 262.2 
z
" style="fill: #da70d6; stroke: #da70d6; stroke-linejoin: miter"/>
      </g>
      <!-- 7$\cdot$6 -->
      <g transform="translate(252.11082 272.27875)scale(0.08 -0.08)">
       <use xlink:href="#DejaVuSans-37" transform="translate(0 0.78125)"/>
       <use xlink:href="#DejaVuSans-22c5" transform="translate(63.623047 0.78125)"/>
       <use xlink:href="#DejaVuSans-36" transform="translate(95.410156 0.78125)"/>
      </g>
     </g>
    </g>
   </g>
   <g id="matplotlib.axis_12">
    <g id="ytick_11">
     <g id="line2d_23">
      <g>
       <use xlink:href="#m5bf5047f36" x="69.92" y="259.2" style="stroke: #000000; stroke-width: 0.8"/>
      </g>
     </g>
     <g id="text_28">
      <!-- 0 -->
      <g transform="translate(56.5575 262.999219)scale(0.1 -0.1)">
       <use xlink:href="#DejaVuSans-30"/>
      </g>
     </g>
    </g>
    <g id="ytick_12">
     <g id="line2d_24">
      <g>
       <use xlink:href="#m5bf5047f36" x="69.92" y="237.90917" style="stroke: #000000; stroke-width: 0.8"/>
      </g>
     </g>
     <g id="text_29">
      <!-- 1 -->
      <g transform="translate(56.5575 241.708388)scale(0.1 -0.1)">
       <use xlink:href="#DejaVuSans-31"/>
      </g>
     </g>
    </g>
    <g id="text_30">
     <g id="patch_229">
      <path d="M 53.192 257.890043 
L 53.192 237.090043 
L 37.4495 237.090043 
L 37.4495 257.890043 
z
" style="fill: #da70d6; stroke: #da70d6; stroke-linejoin: miter"/>
     </g>
     <!-- 7$\cdot$6 -->
     <g transform="translate(47.52825 253.890043)rotate(-90)scale(0.08 -0.08)">
      <use xlink:href="#DejaVuSans-37" transform="translate(0 0.78125)"/>
      <use xlink:href="#DejaVuSans-22c5" transform="translate(63.623047 0.78125)"/>
      <use xlink:href="#DejaVuSans-36" transform="translate(95.410156 0.78125)"/>
     </g>
    </g>
   </g>
   <g id="LineCollection_6">
    <path d="M 105.599344 259.2 
L 105.599344 235.780087 
" clip-path="url(#p2667886590)" style="fill: none; stroke-dasharray: 5.55,2.4; stroke-dashoffset: 0; stroke: #000000; stroke-width: 1.5"/>
    <path d="M 139.579672 259.2 
L 139.579672 235.780087 
" clip-path="url(#p2667886590)" style="fill: none; stroke-dasharray: 5.55,2.4; stroke-dashoffset: 0; stroke: #000000; stroke-width: 1.5"/>
    <path d="M 173.56 259.2 
L 173.56 235.780087 
" clip-path="url(#p2667886590)" style="fill: none; stroke-dasharray: 5.55,2.4; stroke-dashoffset: 0; stroke: #000000; stroke-width: 1.5"/>
    <path d="M 207.540328 259.2 
L 207.540328 235.780087 
" clip-path="url(#p2667886590)" style="fill: none; stroke-dasharray: 5.55,2.4; stroke-dashoffset: 0; stroke: #000000; stroke-width: 1.5"/>
    <path d="M 241.520656 259.2 
L 241.520656 235.780087 
" clip-path="url(#p2667886590)" style="fill: none; stroke-dasharray: 5.55,2.4; stroke-dashoffset: 0; stroke: #000000; stroke-width: 1.5"/>
   </g>
   <g id="patch_230">
    <path d="M 69.92 259.2 
L 69.92 235.780087 
" style="fill: none; stroke: #000000; stroke-width: 0.8; stroke-linejoin: miter; stroke-linecap: square"/>
   </g>
   <g id="patch_231">
    <path d="M 277.2 259.2 
L 277.2 235.780087 
" style="fill: none; stroke: #000000; stroke-width: 0.8; stroke-linejoin: miter; stroke-linecap: square"/>
   </g>
   <g id="patch_232">
    <path d="M 69.92 259.2 
L 277.2 259.2 
" style="fill: none; stroke: #000000; stroke-width: 0.8; stroke-linejoin: miter; stroke-linecap: square"/>
   </g>
   <g id="patch_233">
    <path d="M 69.92 235.780087 
L 277.2 235.780087 
" style="fill: none; stroke: #000000; stroke-width: 0.8; stroke-linejoin: miter; stroke-linecap: square"/>
   </g>
   <g id="patch_234">
    <path d="M 241.520656 259.2 
L 275.500984 259.2 
L 275.500984 237.057536 
L 241.520656 237.057536 
L 241.520656 259.2 
z
" clip-path="url(#p2667886590)" style="fill: none; stroke: #000000; stroke-width: 2; stroke-linejoin: miter"/>
   </g>
  </g>
  <g id="text_31">
   <!-- Fraction of Double Mutants -->
   <g transform="translate(17.9175 252.0075)rotate(-90)scale(0.16 -0.16)">
    <defs>
     <path id="DejaVuSans-46" d="M 628 4666 
L 3309 4666 
L 3309 4134 
L 1259 4134 
L 1259 2759 
L 3109 2759 
L 3109 2228 
L 1259 2228 
L 1259 0 
L 628 0 
L 628 4666 
z
" transform="scale(0.015625)"/>
     <path id="DejaVuSans-72" d="M 2631 2963 
Q 2534 3019 2420 3045 
Q 2306 3072 2169 3072 
Q 1681 3072 1420 2755 
Q 1159 2438 1159 1844 
L 1159 0 
L 581 0 
L 581 3500 
L 1159 3500 
L 1159 2956 
Q 1341 3275 1631 3429 
Q 1922 3584 2338 3584 
Q 2397 3584 2469 3576 
Q 2541 3569 2628 3553 
L 2631 2963 
z
" transform="scale(0.015625)"/>
     <path id="DejaVuSans-61" d="M 2194 1759 
Q 1497 1759 1228 1600 
Q 959 1441 959 1056 
Q 959 750 1161 570 
Q 1363 391 1709 391 
Q 2188 391 2477 730 
Q 2766 1069 2766 1631 
L 2766 1759 
L 2194 1759 
z
M 3341 1997 
L 3341 0 
L 2766 0 
L 2766 531 
Q 2569 213 2275 61 
Q 1981 -91 1556 -91 
Q 1019 -91 701 211 
Q 384 513 384 1019 
Q 384 1609 779 1909 
Q 1175 2209 1959 2209 
L 2766 2209 
L 2766 2266 
Q 2766 2663 2505 2880 
Q 2244 3097 1772 3097 
Q 1472 3097 1187 3025 
Q 903 2953 641 2809 
L 641 3341 
Q 956 3463 1253 3523 
Q 1550 3584 1831 3584 
Q 2591 3584 2966 3190 
Q 3341 2797 3341 1997 
z
" transform="scale(0.015625)"/>
     <path id="DejaVuSans-63" d="M 3122 3366 
L 3122 2828 
Q 2878 2963 2633 3030 
Q 2388 3097 2138 3097 
Q 1578 3097 1268 2742 
Q 959 2388 959 1747 
Q 959 1106 1268 751 
Q 1578 397 2138 397 
Q 2388 397 2633 464 
Q 2878 531 3122 666 
L 3122 134 
Q 2881 22 2623 -34 
Q 2366 -91 2075 -91 
Q 1284 -91 818 406 
Q 353 903 353 1747 
Q 353 2603 823 3093 
Q 1294 3584 2113 3584 
Q 2378 3584 2631 3529 
Q 2884 3475 3122 3366 
z
" transform="scale(0.015625)"/>
     <path id="DejaVuSans-74" d="M 1172 4494 
L 1172 3500 
L 2356 3500 
L 2356 3053 
L 1172 3053 
L 1172 1153 
Q 1172 725 1289 603 
Q 1406 481 1766 481 
L 2356 481 
L 2356 0 
L 1766 0 
Q 1100 0 847 248 
Q 594 497 594 1153 
L 594 3053 
L 172 3053 
L 172 3500 
L 594 3500 
L 594 4494 
L 1172 4494 
z
" transform="scale(0.015625)"/>
     <path id="DejaVuSans-69" d="M 603 3500 
L 1178 3500 
L 1178 0 
L 603 0 
L 603 3500 
z
M 603 4863 
L 1178 4863 
L 1178 4134 
L 603 4134 
L 603 4863 
z
" transform="scale(0.015625)"/>
     <path id="DejaVuSans-6f" d="M 1959 3097 
Q 1497 3097 1228 2736 
Q 959 2375 959 1747 
Q 959 1119 1226 758 
Q 1494 397 1959 397 
Q 2419 397 2687 759 
Q 2956 1122 2956 1747 
Q 2956 2369 2687 2733 
Q 2419 3097 1959 3097 
z
M 1959 3584 
Q 2709 3584 3137 3096 
Q 3566 2609 3566 1747 
Q 3566 888 3137 398 
Q 2709 -91 1959 -91 
Q 1206 -91 779 398 
Q 353 888 353 1747 
Q 353 2609 779 3096 
Q 1206 3584 1959 3584 
z
" transform="scale(0.015625)"/>
     <path id="DejaVuSans-6e" d="M 3513 2113 
L 3513 0 
L 2938 0 
L 2938 2094 
Q 2938 2591 2744 2837 
Q 2550 3084 2163 3084 
Q 1697 3084 1428 2787 
Q 1159 2491 1159 1978 
L 1159 0 
L 581 0 
L 581 3500 
L 1159 3500 
L 1159 2956 
Q 1366 3272 1645 3428 
Q 1925 3584 2291 3584 
Q 2894 3584 3203 3211 
Q 3513 2838 3513 2113 
z
" transform="scale(0.015625)"/>
     <path id="DejaVuSans-20" transform="scale(0.015625)"/>
     <path id="DejaVuSans-66" d="M 2375 4863 
L 2375 4384 
L 1825 4384 
Q 1516 4384 1395 4259 
Q 1275 4134 1275 3809 
L 1275 3500 
L 2222 3500 
L 2222 3053 
L 1275 3053 
L 1275 0 
L 697 0 
L 697 3053 
L 147 3053 
L 147 3500 
L 697 3500 
L 697 3744 
Q 697 4328 969 4595 
Q 1241 4863 1831 4863 
L 2375 4863 
z
" transform="scale(0.015625)"/>
     <path id="DejaVuSans-44" d="M 1259 4147 
L 1259 519 
L 2022 519 
Q 2988 519 3436 956 
Q 3884 1394 3884 2338 
Q 3884 3275 3436 3711 
Q 2988 4147 2022 4147 
L 1259 4147 
z
M 628 4666 
L 1925 4666 
Q 3281 4666 3915 4102 
Q 4550 3538 4550 2338 
Q 4550 1131 3912 565 
Q 3275 0 1925 0 
L 628 0 
L 628 4666 
z
" transform="scale(0.015625)"/>
     <path id="DejaVuSans-75" d="M 544 1381 
L 544 3500 
L 1119 3500 
L 1119 1403 
Q 1119 906 1312 657 
Q 1506 409 1894 409 
Q 2359 409 2629 706 
Q 2900 1003 2900 1516 
L 2900 3500 
L 3475 3500 
L 3475 0 
L 2900 0 
L 2900 538 
Q 2691 219 2414 64 
Q 2138 -91 1772 -91 
Q 1169 -91 856 284 
Q 544 659 544 1381 
z
M 1991 3584 
L 1991 3584 
z
" transform="scale(0.015625)"/>
     <path id="DejaVuSans-62" d="M 3116 1747 
Q 3116 2381 2855 2742 
Q 2594 3103 2138 3103 
Q 1681 3103 1420 2742 
Q 1159 2381 1159 1747 
Q 1159 1113 1420 752 
Q 1681 391 2138 391 
Q 2594 391 2855 752 
Q 3116 1113 3116 1747 
z
M 1159 2969 
Q 1341 3281 1617 3432 
Q 1894 3584 2278 3584 
Q 2916 3584 3314 3078 
Q 3713 2572 3713 1747 
Q 3713 922 3314 415 
Q 2916 -91 2278 -91 
Q 1894 -91 1617 61 
Q 1341 213 1159 525 
L 1159 0 
L 581 0 
L 581 4863 
L 1159 4863 
L 1159 2969 
z
" transform="scale(0.015625)"/>
     <path id="DejaVuSans-6c" d="M 603 4863 
L 1178 4863 
L 1178 0 
L 603 0 
L 603 4863 
z
" transform="scale(0.015625)"/>
     <path id="DejaVuSans-65" d="M 3597 1894 
L 3597 1613 
L 953 1613 
Q 991 1019 1311 708 
Q 1631 397 2203 397 
Q 2534 397 2845 478 
Q 3156 559 3463 722 
L 3463 178 
Q 3153 47 2828 -22 
Q 2503 -91 2169 -91 
Q 1331 -91 842 396 
Q 353 884 353 1716 
Q 353 2575 817 3079 
Q 1281 3584 2069 3584 
Q 2775 3584 3186 3129 
Q 3597 2675 3597 1894 
z
M 3022 2063 
Q 3016 2534 2758 2815 
Q 2500 3097 2075 3097 
Q 1594 3097 1305 2825 
Q 1016 2553 972 2059 
L 3022 2063 
z
" transform="scale(0.015625)"/>
     <path id="DejaVuSans-4d" d="M 628 4666 
L 1569 4666 
L 2759 1491 
L 3956 4666 
L 4897 4666 
L 4897 0 
L 4281 0 
L 4281 4097 
L 3078 897 
L 2444 897 
L 1241 4097 
L 1241 0 
L 628 0 
L 628 4666 
z
" transform="scale(0.015625)"/>
     <path id="DejaVuSans-73" d="M 2834 3397 
L 2834 2853 
Q 2591 2978 2328 3040 
Q 2066 3103 1784 3103 
Q 1356 3103 1142 2972 
Q 928 2841 928 2578 
Q 928 2378 1081 2264 
Q 1234 2150 1697 2047 
L 1894 2003 
Q 2506 1872 2764 1633 
Q 3022 1394 3022 966 
Q 3022 478 2636 193 
Q 2250 -91 1575 -91 
Q 1294 -91 989 -36 
Q 684 19 347 128 
L 347 722 
Q 666 556 975 473 
Q 1284 391 1588 391 
Q 1994 391 2212 530 
Q 2431 669 2431 922 
Q 2431 1156 2273 1281 
Q 2116 1406 1581 1522 
L 1381 1569 
Q 847 1681 609 1914 
Q 372 2147 372 2553 
Q 372 3047 722 3315 
Q 1072 3584 1716 3584 
Q 2034 3584 2315 3537 
Q 2597 3491 2834 3397 
z
" transform="scale(0.015625)"/>
    </defs>
    <use xlink:href="#DejaVuSans-46"/>
    <use xlink:href="#DejaVuSans-72" x="50.269531"/>
    <use xlink:href="#DejaVuSans-61" x="91.382812"/>
    <use xlink:href="#DejaVuSans-63" x="152.662109"/>
    <use xlink:href="#DejaVuSans-74" x="207.642578"/>
    <use xlink:href="#DejaVuSans-69" x="246.851562"/>
    <use xlink:href="#DejaVuSans-6f" x="274.634766"/>
    <use xlink:href="#DejaVuSans-6e" x="335.816406"/>
    <use xlink:href="#DejaVuSans-20" x="399.195312"/>
    <use xlink:href="#DejaVuSans-6f" x="430.982422"/>
    <use xlink:href="#DejaVuSans-66" x="492.164062"/>
    <use xlink:href="#DejaVuSans-20" x="527.369141"/>
    <use xlink:href="#DejaVuSans-44" x="559.15625"/>
    <use xlink:href="#DejaVuSans-6f" x="636.158203"/>
    <use xlink:href="#DejaVuSans-75" x="697.339844"/>
    <use xlink:href="#DejaVuSans-62" x="760.71875"/>
    <use xlink:href="#DejaVuSans-6c" x="824.195312"/>
    <use xlink:href="#DejaVuSans-65" x="851.978516"/>
    <use xlink:href="#DejaVuSans-20" x="913.501953"/>
    <use xlink:href="#DejaVuSans-4d" x="945.289062"/>
    <use xlink:href="#DejaVuSans-75" x="1031.568359"/>
    <use xlink:href="#DejaVuSans-74" x="1094.947266"/>
    <use xlink:href="#DejaVuSans-61" x="1134.15625"/>
    <use xlink:href="#DejaVuSans-6e" x="1195.435547"/>
    <use xlink:href="#DejaVuSans-74" x="1258.814453"/>
    <use xlink:href="#DejaVuSans-73" x="1298.023438"/>
   </g>
  </g>
 </g>
 <defs>
  <clipPath id="pc03c9d7dbb">
   <rect x="69.92" y="28.8" width="207.28" height="23.419913"/>
  </clipPath>
  <clipPath id="pc37c40ba36">
   <rect x="69.92" y="70.196017" width="207.28" height="23.419913"/>
  </clipPath>
  <clipPath id="p2b82797f04">
   <rect x="69.92" y="111.592035" width="207.28" height="23.419913"/>
  </clipPath>
  <clipPath id="p9e45a58c60">
   <rect x="69.92" y="152.988052" width="207.28" height="23.419913"/>
  </clipPath>
  <clipPath id="p15583291a5">
   <rect x="69.92" y="194.384069" width="207.28" height="23.419913"/>
  </clipPath>
  <clipPath id="p2667886590">
   <rect x="69.92" y="235.780087" width="207.28" height="23.419913"/>
  </clipPath>
 </defs>
</svg>
