<?xml version="1.0" encoding="utf-8" standalone="no"?>
<!DOCTYPE svg PUBLIC "-//W3C//DTD SVG 1.1//EN"
  "http://www.w3.org/Graphics/SVG/1.1/DTD/svg11.dtd">
<svg xmlns:xlink="http://www.w3.org/1999/xlink" width="288pt" height="288pt" viewBox="0 0 288 288" xmlns="http://www.w3.org/2000/svg" version="1.1">
 <metadata>
  <rdf:RDF xmlns:dc="http://purl.org/dc/elements/1.1/" xmlns:cc="http://creativecommons.org/ns#" xmlns:rdf="http://www.w3.org/1999/02/22-rdf-syntax-ns#">
   <cc:Work>
    <dc:type rdf:resource="http://purl.org/dc/dcmitype/StillImage"/>
    <dc:date>2023-01-27T16:13:15.568325</dc:date>
    <dc:format>image/svg+xml</dc:format>
    <dc:creator>
     <cc:Agent>
      <dc:title>Matplotlib v3.5.0, https://matplotlib.org/</dc:title>
     </cc:Agent>
    </dc:creator>
   </cc:Work>
  </rdf:RDF>
 </metadata>
 <defs>
  <style type="text/css">*{stroke-linejoin: round; stroke-linecap: butt}</style>
 </defs>
 <g id="figure_1">
  <g id="patch_1">
   <path d="M 0 288 
L 288 288 
L 288 0 
L 0 0 
z
" style="fill: #ffffff"/>
  </g>
  <g id="axes_1">
   <g id="patch_2">
    <path d="M 67.2 50.239913 
L 277.2 50.239913 
L 277.2 25.48 
L 67.2 25.48 
z
" style="fill: #ffffff"/>
   </g>
   <g id="patch_3">
    <path d="M 74.085246 50.239913 
L 78.904918 50.239913 
L 78.904918 37.734907 
L 74.085246 37.734907 
z
" clip-path="url(#pb6e47e29da)" style="fill: #ffa500; opacity: 0.7"/>
   </g>
   <g id="patch_4">
    <path d="M 108.511475 50.239913 
L 113.331148 50.239913 
L 113.331148 44.61266 
L 108.511475 44.61266 
z
" clip-path="url(#pb6e47e29da)" style="fill: #ffa500; opacity: 0.7"/>
   </g>
   <g id="patch_5">
    <path d="M 142.937705 50.239913 
L 147.757377 50.239913 
L 147.757377 50.239913 
L 142.937705 50.239913 
z
" clip-path="url(#pb6e47e29da)" style="fill: #ffa500; opacity: 0.7"/>
   </g>
   <g id="patch_6">
    <path d="M 177.363934 50.239913 
L 182.183607 50.239913 
L 182.183607 49.614663 
L 177.363934 49.614663 
z
" clip-path="url(#pb6e47e29da)" style="fill: #ffa500; opacity: 0.7"/>
   </g>
   <g id="patch_7">
    <path d="M 211.790164 50.239913 
L 216.609836 50.239913 
L 216.609836 50.239913 
L 211.790164 50.239913 
z
" clip-path="url(#pb6e47e29da)" style="fill: #ffa500; opacity: 0.7"/>
   </g>
   <g id="patch_8">
    <path d="M 246.216393 50.239913 
L 251.036066 50.239913 
L 251.036066 50.239913 
L 246.216393 50.239913 
z
" clip-path="url(#pb6e47e29da)" style="fill: #ffa500; opacity: 0.7"/>
   </g>
   <g id="patch_9">
    <path d="M 78.904918 50.239913 
L 83.72459 50.239913 
L 83.72459 42.736909 
L 78.904918 42.736909 
z
" clip-path="url(#pb6e47e29da)" style="fill: #ff0000; opacity: 0.7"/>
   </g>
   <g id="patch_10">
    <path d="M 113.331148 50.239913 
L 118.15082 50.239913 
L 118.15082 43.98741 
L 113.331148 43.98741 
z
" clip-path="url(#pb6e47e29da)" style="fill: #ff0000; opacity: 0.7"/>
   </g>
   <g id="patch_11">
    <path d="M 147.757377 50.239913 
L 152.577049 50.239913 
L 152.577049 45.237911 
L 147.757377 45.237911 
z
" clip-path="url(#pb6e47e29da)" style="fill: #ff0000; opacity: 0.7"/>
   </g>
   <g id="patch_12">
    <path d="M 182.183607 50.239913 
L 187.003279 50.239913 
L 187.003279 50.239913 
L 182.183607 50.239913 
z
" clip-path="url(#pb6e47e29da)" style="fill: #ff0000; opacity: 0.7"/>
   </g>
   <g id="patch_13">
    <path d="M 216.609836 50.239913 
L 221.429508 50.239913 
L 221.429508 50.239913 
L 216.609836 50.239913 
z
" clip-path="url(#pb6e47e29da)" style="fill: #ff0000; opacity: 0.7"/>
   </g>
   <g id="patch_14">
    <path d="M 251.036066 50.239913 
L 255.855738 50.239913 
L 255.855738 50.239913 
L 251.036066 50.239913 
z
" clip-path="url(#pb6e47e29da)" style="fill: #ff0000; opacity: 0.7"/>
   </g>
   <g id="patch_15">
    <path d="M 83.72459 50.239913 
L 88.544262 50.239913 
L 88.544262 50.239913 
L 83.72459 50.239913 
z
" clip-path="url(#pb6e47e29da)" style="fill: #008000; opacity: 0.7"/>
   </g>
   <g id="patch_16">
    <path d="M 118.15082 50.239913 
L 122.970492 50.239913 
L 122.970492 50.239913 
L 118.15082 50.239913 
z
" clip-path="url(#pb6e47e29da)" style="fill: #008000; opacity: 0.7"/>
   </g>
   <g id="patch_17">
    <path d="M 152.577049 50.239913 
L 157.396721 50.239913 
L 157.396721 48.989413 
L 152.577049 48.989413 
z
" clip-path="url(#pb6e47e29da)" style="fill: #008000; opacity: 0.7"/>
   </g>
   <g id="patch_18">
    <path d="M 187.003279 50.239913 
L 191.822951 50.239913 
L 191.822951 50.239913 
L 187.003279 50.239913 
z
" clip-path="url(#pb6e47e29da)" style="fill: #008000; opacity: 0.7"/>
   </g>
   <g id="patch_19">
    <path d="M 221.429508 50.239913 
L 226.24918 50.239913 
L 226.24918 43.36216 
L 221.429508 43.36216 
z
" clip-path="url(#pb6e47e29da)" style="fill: #008000; opacity: 0.7"/>
   </g>
   <g id="patch_20">
    <path d="M 255.855738 50.239913 
L 260.67541 50.239913 
L 260.67541 45.863161 
L 255.855738 45.863161 
z
" clip-path="url(#pb6e47e29da)" style="fill: #008000; opacity: 0.7"/>
   </g>
   <g id="patch_21">
    <path d="M 88.544262 50.239913 
L 93.363934 50.239913 
L 93.363934 47.738912 
L 88.544262 47.738912 
z
" clip-path="url(#pb6e47e29da)" style="fill: #0000ff; opacity: 0.7"/>
   </g>
   <g id="patch_22">
    <path d="M 122.970492 50.239913 
L 127.790164 50.239913 
L 127.790164 49.614663 
L 122.970492 49.614663 
z
" clip-path="url(#pb6e47e29da)" style="fill: #0000ff; opacity: 0.7"/>
   </g>
   <g id="patch_23">
    <path d="M 157.396721 50.239913 
L 162.216393 50.239913 
L 162.216393 33.983405 
L 157.396721 33.983405 
z
" clip-path="url(#pb6e47e29da)" style="fill: #0000ff; opacity: 0.7"/>
   </g>
   <g id="patch_24">
    <path d="M 191.822951 50.239913 
L 196.642623 50.239913 
L 196.642623 49.614663 
L 191.822951 49.614663 
z
" clip-path="url(#pb6e47e29da)" style="fill: #0000ff; opacity: 0.7"/>
   </g>
   <g id="patch_25">
    <path d="M 226.24918 50.239913 
L 231.068852 50.239913 
L 231.068852 43.36216 
L 226.24918 43.36216 
z
" clip-path="url(#pb6e47e29da)" style="fill: #0000ff; opacity: 0.7"/>
   </g>
   <g id="patch_26">
    <path d="M 260.67541 50.239913 
L 265.495082 50.239913 
L 265.495082 35.859156 
L 260.67541 35.859156 
z
" clip-path="url(#pb6e47e29da)" style="fill: #0000ff; opacity: 0.7"/>
   </g>
   <g id="patch_27">
    <path d="M 96.806557 50.239913 
L 101.62623 50.239913 
L 101.62623 50.239913 
L 96.806557 50.239913 
z
" clip-path="url(#pb6e47e29da)" style="fill: #808080; opacity: 0.4"/>
   </g>
   <g id="patch_28">
    <path d="M 131.232787 50.239913 
L 136.052459 50.239913 
L 136.052459 40.235908 
L 131.232787 40.235908 
z
" clip-path="url(#pb6e47e29da)" style="fill: #808080; opacity: 0.4"/>
   </g>
   <g id="patch_29">
    <path d="M 165.659016 50.239913 
L 170.478689 50.239913 
L 170.478689 50.239913 
L 165.659016 50.239913 
z
" clip-path="url(#pb6e47e29da)" style="fill: #808080; opacity: 0.4"/>
   </g>
   <g id="patch_30">
    <path d="M 200.085246 50.239913 
L 204.904918 50.239913 
L 204.904918 28.981402 
L 200.085246 28.981402 
z
" clip-path="url(#pb6e47e29da)" style="fill: #808080; opacity: 0.4"/>
   </g>
   <g id="patch_31">
    <path d="M 234.511475 50.239913 
L 239.331148 50.239913 
L 239.331148 41.486409 
L 234.511475 41.486409 
z
" clip-path="url(#pb6e47e29da)" style="fill: #808080; opacity: 0.4"/>
   </g>
   <g id="patch_32">
    <path d="M 268.937705 50.239913 
L 273.757377 50.239913 
L 273.757377 46.488411 
L 268.937705 46.488411 
z
" clip-path="url(#pb6e47e29da)" style="fill: #808080; opacity: 0.4"/>
   </g>
   <g id="matplotlib.axis_1">
    <g id="xtick_1">
     <g id="line2d_1">
      <defs>
       <path id="mbcccea2607" d="M 0 0 
L 0 -3.5 
" style="stroke: #000000; stroke-width: 0.8"/>
      </defs>
      <g>
       <use xlink:href="#mbcccea2607" x="86.134426" y="25.48" style="stroke: #000000; stroke-width: 0.8"/>
      </g>
     </g>
     <g id="text_1">
      <g id="patch_33">
       <path d="M 73.214426 22.48 
L 99.054426 22.48 
L 99.054426 6.7375 
L 73.214426 6.7375 
z
" style="fill: #6495ed; stroke: #6495ed; stroke-linejoin: miter"/>
      </g>
      <!-- 11$\cdot$1 -->
      <g transform="translate(77.214426 16.81625)scale(0.08 -0.08)">
       <defs>
        <path id="DejaVuSans-31" d="M 794 531 
L 1825 531 
L 1825 4091 
L 703 3866 
L 703 4441 
L 1819 4666 
L 2450 4666 
L 2450 531 
L 3481 531 
L 3481 0 
L 794 0 
L 794 531 
z
" transform="scale(0.015625)"/>
        <path id="DejaVuSans-22c5" d="M 684 2619 
L 1344 2619 
L 1344 1825 
L 684 1825 
L 684 2619 
z
" transform="scale(0.015625)"/>
       </defs>
       <use xlink:href="#DejaVuSans-31" transform="translate(0 0.09375)"/>
       <use xlink:href="#DejaVuSans-31" transform="translate(63.623047 0.09375)"/>
       <use xlink:href="#DejaVuSans-22c5" transform="translate(127.246094 0.09375)"/>
       <use xlink:href="#DejaVuSans-31" transform="translate(159.033203 0.09375)"/>
      </g>
     </g>
    </g>
    <g id="xtick_2">
     <g id="line2d_2">
      <g>
       <use xlink:href="#mbcccea2607" x="120.560656" y="25.48" style="stroke: #000000; stroke-width: 0.8"/>
      </g>
     </g>
     <g id="text_2">
      <g id="patch_34">
       <path d="M 107.640656 22.48 
L 133.480656 22.48 
L 133.480656 6.7375 
L 107.640656 6.7375 
z
" style="fill: #00ff00; stroke: #00ff00; stroke-linejoin: miter"/>
      </g>
      <!-- 10$\cdot$2 -->
      <g transform="translate(111.640656 16.81625)scale(0.08 -0.08)">
       <defs>
        <path id="DejaVuSans-30" d="M 2034 4250 
Q 1547 4250 1301 3770 
Q 1056 3291 1056 2328 
Q 1056 1369 1301 889 
Q 1547 409 2034 409 
Q 2525 409 2770 889 
Q 3016 1369 3016 2328 
Q 3016 3291 2770 3770 
Q 2525 4250 2034 4250 
z
M 2034 4750 
Q 2819 4750 3233 4129 
Q 3647 3509 3647 2328 
Q 3647 1150 3233 529 
Q 2819 -91 2034 -91 
Q 1250 -91 836 529 
Q 422 1150 422 2328 
Q 422 3509 836 4129 
Q 1250 4750 2034 4750 
z
" transform="scale(0.015625)"/>
        <path id="DejaVuSans-32" d="M 1228 531 
L 3431 531 
L 3431 0 
L 469 0 
L 469 531 
Q 828 903 1448 1529 
Q 2069 2156 2228 2338 
Q 2531 2678 2651 2914 
Q 2772 3150 2772 3378 
Q 2772 3750 2511 3984 
Q 2250 4219 1831 4219 
Q 1534 4219 1204 4116 
Q 875 4013 500 3803 
L 500 4441 
Q 881 4594 1212 4672 
Q 1544 4750 1819 4750 
Q 2544 4750 2975 4387 
Q 3406 4025 3406 3419 
Q 3406 3131 3298 2873 
Q 3191 2616 2906 2266 
Q 2828 2175 2409 1742 
Q 1991 1309 1228 531 
z
" transform="scale(0.015625)"/>
       </defs>
       <use xlink:href="#DejaVuSans-31" transform="translate(0 0.78125)"/>
       <use xlink:href="#DejaVuSans-30" transform="translate(63.623047 0.78125)"/>
       <use xlink:href="#DejaVuSans-22c5" transform="translate(127.246094 0.78125)"/>
       <use xlink:href="#DejaVuSans-32" transform="translate(159.033203 0.78125)"/>
      </g>
     </g>
    </g>
    <g id="xtick_3">
     <g id="line2d_3">
      <g>
       <use xlink:href="#mbcccea2607" x="154.986885" y="25.48" style="stroke: #000000; stroke-width: 0.8"/>
      </g>
     </g>
     <g id="text_3">
      <g id="patch_35">
       <path d="M 148.441885 22.48 
L 161.531885 22.48 
L 161.531885 6.7375 
L 148.441885 6.7375 
z
" style="fill: #808080; stroke: #808080; stroke-linejoin: miter"/>
      </g>
      <!-- 9 -->
      <g transform="translate(152.441885 16.81625)scale(0.08 -0.08)">
       <defs>
        <path id="DejaVuSans-39" d="M 703 97 
L 703 672 
Q 941 559 1184 500 
Q 1428 441 1663 441 
Q 2288 441 2617 861 
Q 2947 1281 2994 2138 
Q 2813 1869 2534 1725 
Q 2256 1581 1919 1581 
Q 1219 1581 811 2004 
Q 403 2428 403 3163 
Q 403 3881 828 4315 
Q 1253 4750 1959 4750 
Q 2769 4750 3195 4129 
Q 3622 3509 3622 2328 
Q 3622 1225 3098 567 
Q 2575 -91 1691 -91 
Q 1453 -91 1209 -44 
Q 966 3 703 97 
z
M 1959 2075 
Q 2384 2075 2632 2365 
Q 2881 2656 2881 3163 
Q 2881 3666 2632 3958 
Q 2384 4250 1959 4250 
Q 1534 4250 1286 3958 
Q 1038 3666 1038 3163 
Q 1038 2656 1286 2365 
Q 1534 2075 1959 2075 
z
" transform="scale(0.015625)"/>
       </defs>
       <use xlink:href="#DejaVuSans-39"/>
      </g>
     </g>
    </g>
    <g id="xtick_4">
     <g id="line2d_4">
      <g>
       <use xlink:href="#mbcccea2607" x="189.413115" y="25.48" style="stroke: #000000; stroke-width: 0.8"/>
      </g>
     </g>
     <g id="text_4">
      <g id="patch_36">
       <path d="M 179.013115 22.48 
L 199.813115 22.48 
L 199.813115 6.7375 
L 179.013115 6.7375 
z
" style="fill: #ffa500; stroke: #ffa500; stroke-linejoin: miter"/>
      </g>
      <!-- 8$\cdot$3 -->
      <g transform="translate(183.013115 16.81625)scale(0.08 -0.08)">
       <defs>
        <path id="DejaVuSans-38" d="M 2034 2216 
Q 1584 2216 1326 1975 
Q 1069 1734 1069 1313 
Q 1069 891 1326 650 
Q 1584 409 2034 409 
Q 2484 409 2743 651 
Q 3003 894 3003 1313 
Q 3003 1734 2745 1975 
Q 2488 2216 2034 2216 
z
M 1403 2484 
Q 997 2584 770 2862 
Q 544 3141 544 3541 
Q 544 4100 942 4425 
Q 1341 4750 2034 4750 
Q 2731 4750 3128 4425 
Q 3525 4100 3525 3541 
Q 3525 3141 3298 2862 
Q 3072 2584 2669 2484 
Q 3125 2378 3379 2068 
Q 3634 1759 3634 1313 
Q 3634 634 3220 271 
Q 2806 -91 2034 -91 
Q 1263 -91 848 271 
Q 434 634 434 1313 
Q 434 1759 690 2068 
Q 947 2378 1403 2484 
z
M 1172 3481 
Q 1172 3119 1398 2916 
Q 1625 2713 2034 2713 
Q 2441 2713 2670 2916 
Q 2900 3119 2900 3481 
Q 2900 3844 2670 4047 
Q 2441 4250 2034 4250 
Q 1625 4250 1398 4047 
Q 1172 3844 1172 3481 
z
" transform="scale(0.015625)"/>
        <path id="DejaVuSans-33" d="M 2597 2516 
Q 3050 2419 3304 2112 
Q 3559 1806 3559 1356 
Q 3559 666 3084 287 
Q 2609 -91 1734 -91 
Q 1441 -91 1130 -33 
Q 819 25 488 141 
L 488 750 
Q 750 597 1062 519 
Q 1375 441 1716 441 
Q 2309 441 2620 675 
Q 2931 909 2931 1356 
Q 2931 1769 2642 2001 
Q 2353 2234 1838 2234 
L 1294 2234 
L 1294 2753 
L 1863 2753 
Q 2328 2753 2575 2939 
Q 2822 3125 2822 3475 
Q 2822 3834 2567 4026 
Q 2313 4219 1838 4219 
Q 1578 4219 1281 4162 
Q 984 4106 628 3988 
L 628 4550 
Q 988 4650 1302 4700 
Q 1616 4750 1894 4750 
Q 2613 4750 3031 4423 
Q 3450 4097 3450 3541 
Q 3450 3153 3228 2886 
Q 3006 2619 2597 2516 
z
" transform="scale(0.015625)"/>
       </defs>
       <use xlink:href="#DejaVuSans-38" transform="translate(0 0.78125)"/>
       <use xlink:href="#DejaVuSans-22c5" transform="translate(63.623047 0.78125)"/>
       <use xlink:href="#DejaVuSans-33" transform="translate(95.410156 0.78125)"/>
      </g>
     </g>
    </g>
    <g id="xtick_5">
     <g id="line2d_5">
      <g>
       <use xlink:href="#mbcccea2607" x="223.839344" y="25.48" style="stroke: #000000; stroke-width: 0.8"/>
      </g>
     </g>
     <g id="text_5">
      <g id="patch_37">
       <path d="M 213.439344 22.48 
L 234.239344 22.48 
L 234.239344 6.7375 
L 213.439344 6.7375 
z
" style="fill: #ff0000; stroke: #ff0000; stroke-linejoin: miter"/>
      </g>
      <!-- 4$\cdot$5 -->
      <g transform="translate(217.439344 16.81625)scale(0.08 -0.08)">
       <defs>
        <path id="DejaVuSans-34" d="M 2419 4116 
L 825 1625 
L 2419 1625 
L 2419 4116 
z
M 2253 4666 
L 3047 4666 
L 3047 1625 
L 3713 1625 
L 3713 1100 
L 3047 1100 
L 3047 0 
L 2419 0 
L 2419 1100 
L 313 1100 
L 313 1709 
L 2253 4666 
z
" transform="scale(0.015625)"/>
        <path id="DejaVuSans-35" d="M 691 4666 
L 3169 4666 
L 3169 4134 
L 1269 4134 
L 1269 2991 
Q 1406 3038 1543 3061 
Q 1681 3084 1819 3084 
Q 2600 3084 3056 2656 
Q 3513 2228 3513 1497 
Q 3513 744 3044 326 
Q 2575 -91 1722 -91 
Q 1428 -91 1123 -41 
Q 819 9 494 109 
L 494 744 
Q 775 591 1075 516 
Q 1375 441 1709 441 
Q 2250 441 2565 725 
Q 2881 1009 2881 1497 
Q 2881 1984 2565 2268 
Q 2250 2553 1709 2553 
Q 1456 2553 1204 2497 
Q 953 2441 691 2322 
L 691 4666 
z
" transform="scale(0.015625)"/>
       </defs>
       <use xlink:href="#DejaVuSans-34" transform="translate(0 0.09375)"/>
       <use xlink:href="#DejaVuSans-22c5" transform="translate(63.623047 0.09375)"/>
       <use xlink:href="#DejaVuSans-35" transform="translate(95.410156 0.09375)"/>
      </g>
     </g>
    </g>
    <g id="xtick_6">
     <g id="line2d_6">
      <g>
       <use xlink:href="#mbcccea2607" x="258.265574" y="25.48" style="stroke: #000000; stroke-width: 0.8"/>
      </g>
     </g>
     <g id="text_6">
      <g id="patch_38">
       <path d="M 247.865574 22.48 
L 268.665574 22.48 
L 268.665574 6.7375 
L 247.865574 6.7375 
z
" style="fill: #da70d6; stroke: #da70d6; stroke-linejoin: miter"/>
      </g>
      <!-- 7$\cdot$6 -->
      <g transform="translate(251.865574 16.81625)scale(0.08 -0.08)">
       <defs>
        <path id="DejaVuSans-37" d="M 525 4666 
L 3525 4666 
L 3525 4397 
L 1831 0 
L 1172 0 
L 2766 4134 
L 525 4134 
L 525 4666 
z
" transform="scale(0.015625)"/>
        <path id="DejaVuSans-36" d="M 2113 2584 
Q 1688 2584 1439 2293 
Q 1191 2003 1191 1497 
Q 1191 994 1439 701 
Q 1688 409 2113 409 
Q 2538 409 2786 701 
Q 3034 994 3034 1497 
Q 3034 2003 2786 2293 
Q 2538 2584 2113 2584 
z
M 3366 4563 
L 3366 3988 
Q 3128 4100 2886 4159 
Q 2644 4219 2406 4219 
Q 1781 4219 1451 3797 
Q 1122 3375 1075 2522 
Q 1259 2794 1537 2939 
Q 1816 3084 2150 3084 
Q 2853 3084 3261 2657 
Q 3669 2231 3669 1497 
Q 3669 778 3244 343 
Q 2819 -91 2113 -91 
Q 1303 -91 875 529 
Q 447 1150 447 2328 
Q 447 3434 972 4092 
Q 1497 4750 2381 4750 
Q 2619 4750 2861 4703 
Q 3103 4656 3366 4563 
z
" transform="scale(0.015625)"/>
       </defs>
       <use xlink:href="#DejaVuSans-37" transform="translate(0 0.78125)"/>
       <use xlink:href="#DejaVuSans-22c5" transform="translate(63.623047 0.78125)"/>
       <use xlink:href="#DejaVuSans-36" transform="translate(95.410156 0.78125)"/>
      </g>
     </g>
    </g>
   </g>
   <g id="matplotlib.axis_2">
    <g id="ytick_1">
     <g id="line2d_7">
      <defs>
       <path id="me92fc98892" d="M 0 0 
L -3.5 0 
" style="stroke: #000000; stroke-width: 0.8"/>
      </defs>
      <g>
       <use xlink:href="#me92fc98892" x="67.2" y="50.239913" style="stroke: #000000; stroke-width: 0.8"/>
      </g>
     </g>
     <g id="text_7">
      <!-- 0 -->
      <g transform="translate(53.8375 54.039132)scale(0.1 -0.1)">
       <use xlink:href="#DejaVuSans-30"/>
      </g>
     </g>
    </g>
    <g id="ytick_2">
     <g id="line2d_8">
      <g>
       <use xlink:href="#me92fc98892" x="67.2" y="27.730901" style="stroke: #000000; stroke-width: 0.8"/>
      </g>
     </g>
     <g id="text_8">
      <!-- 1 -->
      <g transform="translate(53.8375 31.53012)scale(0.1 -0.1)">
       <use xlink:href="#DejaVuSans-31"/>
      </g>
     </g>
    </g>
    <g id="text_9">
     <g id="patch_39">
      <path d="M 50.2 50.779957 
L 50.2 24.939957 
L 34.4575 24.939957 
L 34.4575 50.779957 
z
" style="fill: #6495ed; stroke: #6495ed; stroke-linejoin: miter"/>
     </g>
     <!-- 11$\cdot$1 -->
     <g transform="translate(44.53625 46.779957)rotate(-90)scale(0.08 -0.08)">
      <use xlink:href="#DejaVuSans-31" transform="translate(0 0.09375)"/>
      <use xlink:href="#DejaVuSans-31" transform="translate(63.623047 0.09375)"/>
      <use xlink:href="#DejaVuSans-22c5" transform="translate(127.246094 0.09375)"/>
      <use xlink:href="#DejaVuSans-31" transform="translate(159.033203 0.09375)"/>
     </g>
    </g>
   </g>
   <g id="LineCollection_1">
    <path d="M 103.347541 50.239913 
L 103.347541 25.48 
" clip-path="url(#pb6e47e29da)" style="fill: none; stroke-dasharray: 5.55,2.4; stroke-dashoffset: 0; stroke: #000000; stroke-width: 1.5"/>
    <path d="M 137.77377 50.239913 
L 137.77377 25.48 
" clip-path="url(#pb6e47e29da)" style="fill: none; stroke-dasharray: 5.55,2.4; stroke-dashoffset: 0; stroke: #000000; stroke-width: 1.5"/>
    <path d="M 172.2 50.239913 
L 172.2 25.48 
" clip-path="url(#pb6e47e29da)" style="fill: none; stroke-dasharray: 5.55,2.4; stroke-dashoffset: 0; stroke: #000000; stroke-width: 1.5"/>
    <path d="M 206.62623 50.239913 
L 206.62623 25.48 
" clip-path="url(#pb6e47e29da)" style="fill: none; stroke-dasharray: 5.55,2.4; stroke-dashoffset: 0; stroke: #000000; stroke-width: 1.5"/>
    <path d="M 241.052459 50.239913 
L 241.052459 25.48 
" clip-path="url(#pb6e47e29da)" style="fill: none; stroke-dasharray: 5.55,2.4; stroke-dashoffset: 0; stroke: #000000; stroke-width: 1.5"/>
   </g>
   <g id="patch_40">
    <path d="M 67.2 50.239913 
L 67.2 25.48 
" style="fill: none; stroke: #000000; stroke-width: 0.8; stroke-linejoin: miter; stroke-linecap: square"/>
   </g>
   <g id="patch_41">
    <path d="M 277.2 50.239913 
L 277.2 25.48 
" style="fill: none; stroke: #000000; stroke-width: 0.8; stroke-linejoin: miter; stroke-linecap: square"/>
   </g>
   <g id="patch_42">
    <path d="M 67.2 50.239913 
L 277.2 50.239913 
" style="fill: none; stroke: #000000; stroke-width: 0.8; stroke-linejoin: miter; stroke-linecap: square"/>
   </g>
   <g id="patch_43">
    <path d="M 67.2 25.48 
L 277.2 25.48 
" style="fill: none; stroke: #000000; stroke-width: 0.8; stroke-linejoin: miter; stroke-linecap: square"/>
   </g>
   <g id="patch_44">
    <path d="M 68.921311 50.239913 
L 103.347541 50.239913 
L 103.347541 26.830541 
L 68.921311 26.830541 
L 68.921311 50.239913 
z
" clip-path="url(#pb6e47e29da)" style="fill: none; stroke: #000000; stroke-width: 2; stroke-linejoin: miter"/>
   </g>
  </g>
  <g id="axes_2">
   <g id="patch_45">
    <path d="M 67.2 92.695931 
L 277.2 92.695931 
L 277.2 67.936017 
L 67.2 67.936017 
z
" style="fill: #ffffff"/>
   </g>
   <g id="patch_46">
    <path d="M 74.085246 92.695931 
L 78.904918 92.695931 
L 78.904918 87.068678 
L 74.085246 87.068678 
z
" clip-path="url(#pfc2b40feea)" style="fill: #ffa500; opacity: 0.7"/>
   </g>
   <g id="patch_47">
    <path d="M 108.511475 92.695931 
L 113.331148 92.695931 
L 113.331148 80.190924 
L 108.511475 80.190924 
z
" clip-path="url(#pfc2b40feea)" style="fill: #ffa500; opacity: 0.7"/>
   </g>
   <g id="patch_48">
    <path d="M 142.937705 92.695931 
L 147.757377 92.695931 
L 147.757377 90.194929 
L 142.937705 90.194929 
z
" clip-path="url(#pfc2b40feea)" style="fill: #ffa500; opacity: 0.7"/>
   </g>
   <g id="patch_49">
    <path d="M 177.363934 92.695931 
L 182.183607 92.695931 
L 182.183607 92.695931 
L 177.363934 92.695931 
z
" clip-path="url(#pfc2b40feea)" style="fill: #ffa500; opacity: 0.7"/>
   </g>
   <g id="patch_50">
    <path d="M 211.790164 92.695931 
L 216.609836 92.695931 
L 216.609836 92.695931 
L 211.790164 92.695931 
z
" clip-path="url(#pfc2b40feea)" style="fill: #ffa500; opacity: 0.7"/>
   </g>
   <g id="patch_51">
    <path d="M 246.216393 92.695931 
L 251.036066 92.695931 
L 251.036066 88.944429 
L 246.216393 88.944429 
z
" clip-path="url(#pfc2b40feea)" style="fill: #ffa500; opacity: 0.7"/>
   </g>
   <g id="patch_52">
    <path d="M 78.904918 92.695931 
L 83.72459 92.695931 
L 83.72459 86.443427 
L 78.904918 86.443427 
z
" clip-path="url(#pfc2b40feea)" style="fill: #ff0000; opacity: 0.7"/>
   </g>
   <g id="patch_53">
    <path d="M 113.331148 92.695931 
L 118.15082 92.695931 
L 118.15082 92.695931 
L 113.331148 92.695931 
z
" clip-path="url(#pfc2b40feea)" style="fill: #ff0000; opacity: 0.7"/>
   </g>
   <g id="patch_54">
    <path d="M 147.757377 92.695931 
L 152.577049 92.695931 
L 152.577049 87.693928 
L 147.757377 87.693928 
z
" clip-path="url(#pfc2b40feea)" style="fill: #ff0000; opacity: 0.7"/>
   </g>
   <g id="patch_55">
    <path d="M 182.183607 92.695931 
L 187.003279 92.695931 
L 187.003279 92.695931 
L 182.183607 92.695931 
z
" clip-path="url(#pfc2b40feea)" style="fill: #ff0000; opacity: 0.7"/>
   </g>
   <g id="patch_56">
    <path d="M 216.609836 92.695931 
L 221.429508 92.695931 
L 221.429508 92.07068 
L 216.609836 92.07068 
z
" clip-path="url(#pfc2b40feea)" style="fill: #ff0000; opacity: 0.7"/>
   </g>
   <g id="patch_57">
    <path d="M 251.036066 92.695931 
L 255.855738 92.695931 
L 255.855738 90.82018 
L 251.036066 90.82018 
z
" clip-path="url(#pfc2b40feea)" style="fill: #ff0000; opacity: 0.7"/>
   </g>
   <g id="patch_58">
    <path d="M 83.72459 92.695931 
L 88.544262 92.695931 
L 88.544262 92.695931 
L 83.72459 92.695931 
z
" clip-path="url(#pfc2b40feea)" style="fill: #008000; opacity: 0.7"/>
   </g>
   <g id="patch_59">
    <path d="M 118.15082 92.695931 
L 122.970492 92.695931 
L 122.970492 92.695931 
L 118.15082 92.695931 
z
" clip-path="url(#pfc2b40feea)" style="fill: #008000; opacity: 0.7"/>
   </g>
   <g id="patch_60">
    <path d="M 152.577049 92.695931 
L 157.396721 92.695931 
L 157.396721 92.695931 
L 152.577049 92.695931 
z
" clip-path="url(#pfc2b40feea)" style="fill: #008000; opacity: 0.7"/>
   </g>
   <g id="patch_61">
    <path d="M 187.003279 92.695931 
L 191.822951 92.695931 
L 191.822951 92.695931 
L 187.003279 92.695931 
z
" clip-path="url(#pfc2b40feea)" style="fill: #008000; opacity: 0.7"/>
   </g>
   <g id="patch_62">
    <path d="M 221.429508 92.695931 
L 226.24918 92.695931 
L 226.24918 92.695931 
L 221.429508 92.695931 
z
" clip-path="url(#pfc2b40feea)" style="fill: #008000; opacity: 0.7"/>
   </g>
   <g id="patch_63">
    <path d="M 255.855738 92.695931 
L 260.67541 92.695931 
L 260.67541 92.07068 
L 255.855738 92.07068 
z
" clip-path="url(#pfc2b40feea)" style="fill: #008000; opacity: 0.7"/>
   </g>
   <g id="patch_64">
    <path d="M 88.544262 92.695931 
L 93.363934 92.695931 
L 93.363934 92.07068 
L 88.544262 92.07068 
z
" clip-path="url(#pfc2b40feea)" style="fill: #0000ff; opacity: 0.7"/>
   </g>
   <g id="patch_65">
    <path d="M 122.970492 92.695931 
L 127.790164 92.695931 
L 127.790164 92.695931 
L 122.970492 92.695931 
z
" clip-path="url(#pfc2b40feea)" style="fill: #0000ff; opacity: 0.7"/>
   </g>
   <g id="patch_66">
    <path d="M 157.396721 92.695931 
L 162.216393 92.695931 
L 162.216393 90.194929 
L 157.396721 90.194929 
z
" clip-path="url(#pfc2b40feea)" style="fill: #0000ff; opacity: 0.7"/>
   </g>
   <g id="patch_67">
    <path d="M 191.822951 92.695931 
L 196.642623 92.695931 
L 196.642623 92.695931 
L 191.822951 92.695931 
z
" clip-path="url(#pfc2b40feea)" style="fill: #0000ff; opacity: 0.7"/>
   </g>
   <g id="patch_68">
    <path d="M 226.24918 92.695931 
L 231.068852 92.695931 
L 231.068852 90.82018 
L 226.24918 90.82018 
z
" clip-path="url(#pfc2b40feea)" style="fill: #0000ff; opacity: 0.7"/>
   </g>
   <g id="patch_69">
    <path d="M 260.67541 92.695931 
L 265.495082 92.695931 
L 265.495082 91.44543 
L 260.67541 91.44543 
z
" clip-path="url(#pfc2b40feea)" style="fill: #0000ff; opacity: 0.7"/>
   </g>
   <g id="patch_70">
    <path d="M 96.806557 92.695931 
L 101.62623 92.695931 
L 101.62623 82.691925 
L 96.806557 82.691925 
z
" clip-path="url(#pfc2b40feea)" style="fill: #808080; opacity: 0.4"/>
   </g>
   <g id="patch_71">
    <path d="M 131.232787 92.695931 
L 136.052459 92.695931 
L 136.052459 82.691925 
L 131.232787 82.691925 
z
" clip-path="url(#pfc2b40feea)" style="fill: #808080; opacity: 0.4"/>
   </g>
   <g id="patch_72">
    <path d="M 165.659016 92.695931 
L 170.478689 92.695931 
L 170.478689 80.190924 
L 165.659016 80.190924 
z
" clip-path="url(#pfc2b40feea)" style="fill: #808080; opacity: 0.4"/>
   </g>
   <g id="patch_73">
    <path d="M 200.085246 92.695931 
L 204.904918 92.695931 
L 204.904918 70.186919 
L 200.085246 70.186919 
z
" clip-path="url(#pfc2b40feea)" style="fill: #808080; opacity: 0.4"/>
   </g>
   <g id="patch_74">
    <path d="M 234.511475 92.695931 
L 239.331148 92.695931 
L 239.331148 72.68792 
L 234.511475 72.68792 
z
" clip-path="url(#pfc2b40feea)" style="fill: #808080; opacity: 0.4"/>
   </g>
   <g id="patch_75">
    <path d="M 268.937705 92.695931 
L 273.757377 92.695931 
L 273.757377 77.689923 
L 268.937705 77.689923 
z
" clip-path="url(#pfc2b40feea)" style="fill: #808080; opacity: 0.4"/>
   </g>
   <g id="matplotlib.axis_3">
    <g id="xtick_7"/>
    <g id="xtick_8"/>
    <g id="xtick_9"/>
    <g id="xtick_10"/>
    <g id="xtick_11"/>
    <g id="xtick_12"/>
   </g>
   <g id="matplotlib.axis_4">
    <g id="ytick_3">
     <g id="line2d_9">
      <g>
       <use xlink:href="#me92fc98892" x="67.2" y="92.695931" style="stroke: #000000; stroke-width: 0.8"/>
      </g>
     </g>
     <g id="text_10">
      <!-- 0 -->
      <g transform="translate(53.8375 96.495149)scale(0.1 -0.1)">
       <use xlink:href="#DejaVuSans-30"/>
      </g>
     </g>
    </g>
    <g id="ytick_4">
     <g id="line2d_10">
      <g>
       <use xlink:href="#me92fc98892" x="67.2" y="70.186919" style="stroke: #000000; stroke-width: 0.8"/>
      </g>
     </g>
     <g id="text_11">
      <!-- 1 -->
      <g transform="translate(53.8375 73.986137)scale(0.1 -0.1)">
       <use xlink:href="#DejaVuSans-31"/>
      </g>
     </g>
    </g>
    <g id="text_12">
     <g id="patch_76">
      <path d="M 50.2 93.235974 
L 50.2 67.395974 
L 34.4575 67.395974 
L 34.4575 93.235974 
z
" style="fill: #00ff00; stroke: #00ff00; stroke-linejoin: miter"/>
     </g>
     <!-- 10$\cdot$2 -->
     <g transform="translate(44.53625 89.235974)rotate(-90)scale(0.08 -0.08)">
      <use xlink:href="#DejaVuSans-31" transform="translate(0 0.78125)"/>
      <use xlink:href="#DejaVuSans-30" transform="translate(63.623047 0.78125)"/>
      <use xlink:href="#DejaVuSans-22c5" transform="translate(127.246094 0.78125)"/>
      <use xlink:href="#DejaVuSans-32" transform="translate(159.033203 0.78125)"/>
     </g>
    </g>
   </g>
   <g id="LineCollection_2">
    <path d="M 103.347541 92.695931 
L 103.347541 67.936017 
" clip-path="url(#pfc2b40feea)" style="fill: none; stroke-dasharray: 5.55,2.4; stroke-dashoffset: 0; stroke: #000000; stroke-width: 1.5"/>
    <path d="M 137.77377 92.695931 
L 137.77377 67.936017 
" clip-path="url(#pfc2b40feea)" style="fill: none; stroke-dasharray: 5.55,2.4; stroke-dashoffset: 0; stroke: #000000; stroke-width: 1.5"/>
    <path d="M 172.2 92.695931 
L 172.2 67.936017 
" clip-path="url(#pfc2b40feea)" style="fill: none; stroke-dasharray: 5.55,2.4; stroke-dashoffset: 0; stroke: #000000; stroke-width: 1.5"/>
    <path d="M 206.62623 92.695931 
L 206.62623 67.936017 
" clip-path="url(#pfc2b40feea)" style="fill: none; stroke-dasharray: 5.55,2.4; stroke-dashoffset: 0; stroke: #000000; stroke-width: 1.5"/>
    <path d="M 241.052459 92.695931 
L 241.052459 67.936017 
" clip-path="url(#pfc2b40feea)" style="fill: none; stroke-dasharray: 5.55,2.4; stroke-dashoffset: 0; stroke: #000000; stroke-width: 1.5"/>
   </g>
   <g id="patch_77">
    <path d="M 67.2 92.695931 
L 67.2 67.936017 
" style="fill: none; stroke: #000000; stroke-width: 0.8; stroke-linejoin: miter; stroke-linecap: square"/>
   </g>
   <g id="patch_78">
    <path d="M 277.2 92.695931 
L 277.2 67.936017 
" style="fill: none; stroke: #000000; stroke-width: 0.8; stroke-linejoin: miter; stroke-linecap: square"/>
   </g>
   <g id="patch_79">
    <path d="M 67.2 92.695931 
L 277.2 92.695931 
" style="fill: none; stroke: #000000; stroke-width: 0.8; stroke-linejoin: miter; stroke-linecap: square"/>
   </g>
   <g id="patch_80">
    <path d="M 67.2 67.936017 
L 277.2 67.936017 
" style="fill: none; stroke: #000000; stroke-width: 0.8; stroke-linejoin: miter; stroke-linecap: square"/>
   </g>
   <g id="patch_81">
    <path d="M 103.347541 92.695931 
L 137.77377 92.695931 
L 137.77377 69.286558 
L 103.347541 69.286558 
L 103.347541 92.695931 
z
" clip-path="url(#pfc2b40feea)" style="fill: none; stroke: #000000; stroke-width: 2; stroke-linejoin: miter"/>
   </g>
  </g>
  <g id="axes_3">
   <g id="patch_82">
    <path d="M 67.2 135.151948 
L 277.2 135.151948 
L 277.2 110.392035 
L 67.2 110.392035 
z
" style="fill: #ffffff"/>
   </g>
   <g id="patch_83">
    <path d="M 74.085246 135.151948 
L 78.904918 135.151948 
L 78.904918 135.151948 
L 74.085246 135.151948 
z
" clip-path="url(#p5829f14d28)" style="fill: #ffa500; opacity: 0.7"/>
   </g>
   <g id="patch_84">
    <path d="M 108.511475 135.151948 
L 113.331148 135.151948 
L 113.331148 132.650947 
L 108.511475 132.650947 
z
" clip-path="url(#p5829f14d28)" style="fill: #ffa500; opacity: 0.7"/>
   </g>
   <g id="patch_85">
    <path d="M 142.937705 135.151948 
L 147.757377 135.151948 
L 147.757377 135.151948 
L 142.937705 135.151948 
z
" clip-path="url(#p5829f14d28)" style="fill: #ffa500; opacity: 0.7"/>
   </g>
   <g id="patch_86">
    <path d="M 177.363934 135.151948 
L 182.183607 135.151948 
L 182.183607 132.650947 
L 177.363934 132.650947 
z
" clip-path="url(#p5829f14d28)" style="fill: #ffa500; opacity: 0.7"/>
   </g>
   <g id="patch_87">
    <path d="M 211.790164 135.151948 
L 216.609836 135.151948 
L 216.609836 133.901447 
L 211.790164 133.901447 
z
" clip-path="url(#p5829f14d28)" style="fill: #ffa500; opacity: 0.7"/>
   </g>
   <g id="patch_88">
    <path d="M 246.216393 135.151948 
L 251.036066 135.151948 
L 251.036066 133.901447 
L 246.216393 133.901447 
z
" clip-path="url(#p5829f14d28)" style="fill: #ffa500; opacity: 0.7"/>
   </g>
   <g id="patch_89">
    <path d="M 78.904918 135.151948 
L 83.72459 135.151948 
L 83.72459 130.149945 
L 78.904918 130.149945 
z
" clip-path="url(#p5829f14d28)" style="fill: #ff0000; opacity: 0.7"/>
   </g>
   <g id="patch_90">
    <path d="M 113.331148 135.151948 
L 118.15082 135.151948 
L 118.15082 130.149945 
L 113.331148 130.149945 
z
" clip-path="url(#p5829f14d28)" style="fill: #ff0000; opacity: 0.7"/>
   </g>
   <g id="patch_91">
    <path d="M 147.757377 135.151948 
L 152.577049 135.151948 
L 152.577049 135.151948 
L 147.757377 135.151948 
z
" clip-path="url(#p5829f14d28)" style="fill: #ff0000; opacity: 0.7"/>
   </g>
   <g id="patch_92">
    <path d="M 182.183607 135.151948 
L 187.003279 135.151948 
L 187.003279 128.899445 
L 182.183607 128.899445 
z
" clip-path="url(#p5829f14d28)" style="fill: #ff0000; opacity: 0.7"/>
   </g>
   <g id="patch_93">
    <path d="M 216.609836 135.151948 
L 221.429508 135.151948 
L 221.429508 131.400446 
L 216.609836 131.400446 
z
" clip-path="url(#p5829f14d28)" style="fill: #ff0000; opacity: 0.7"/>
   </g>
   <g id="patch_94">
    <path d="M 251.036066 135.151948 
L 255.855738 135.151948 
L 255.855738 131.400446 
L 251.036066 131.400446 
z
" clip-path="url(#p5829f14d28)" style="fill: #ff0000; opacity: 0.7"/>
   </g>
   <g id="patch_95">
    <path d="M 83.72459 135.151948 
L 88.544262 135.151948 
L 88.544262 133.901447 
L 83.72459 133.901447 
z
" clip-path="url(#p5829f14d28)" style="fill: #008000; opacity: 0.7"/>
   </g>
   <g id="patch_96">
    <path d="M 118.15082 135.151948 
L 122.970492 135.151948 
L 122.970492 135.151948 
L 118.15082 135.151948 
z
" clip-path="url(#p5829f14d28)" style="fill: #008000; opacity: 0.7"/>
   </g>
   <g id="patch_97">
    <path d="M 152.577049 135.151948 
L 157.396721 135.151948 
L 157.396721 135.151948 
L 152.577049 135.151948 
z
" clip-path="url(#p5829f14d28)" style="fill: #008000; opacity: 0.7"/>
   </g>
   <g id="patch_98">
    <path d="M 187.003279 135.151948 
L 191.822951 135.151948 
L 191.822951 135.151948 
L 187.003279 135.151948 
z
" clip-path="url(#p5829f14d28)" style="fill: #008000; opacity: 0.7"/>
   </g>
   <g id="patch_99">
    <path d="M 221.429508 135.151948 
L 226.24918 135.151948 
L 226.24918 128.899445 
L 221.429508 128.899445 
z
" clip-path="url(#p5829f14d28)" style="fill: #008000; opacity: 0.7"/>
   </g>
   <g id="patch_100">
    <path d="M 255.855738 135.151948 
L 260.67541 135.151948 
L 260.67541 133.901447 
L 255.855738 133.901447 
z
" clip-path="url(#p5829f14d28)" style="fill: #008000; opacity: 0.7"/>
   </g>
   <g id="patch_101">
    <path d="M 88.544262 135.151948 
L 93.363934 135.151948 
L 93.363934 118.895439 
L 88.544262 118.895439 
z
" clip-path="url(#p5829f14d28)" style="fill: #0000ff; opacity: 0.7"/>
   </g>
   <g id="patch_102">
    <path d="M 122.970492 135.151948 
L 127.790164 135.151948 
L 127.790164 132.650947 
L 122.970492 132.650947 
z
" clip-path="url(#p5829f14d28)" style="fill: #0000ff; opacity: 0.7"/>
   </g>
   <g id="patch_103">
    <path d="M 157.396721 135.151948 
L 162.216393 135.151948 
L 162.216393 135.151948 
L 157.396721 135.151948 
z
" clip-path="url(#p5829f14d28)" style="fill: #0000ff; opacity: 0.7"/>
   </g>
   <g id="patch_104">
    <path d="M 191.822951 135.151948 
L 196.642623 135.151948 
L 196.642623 135.151948 
L 191.822951 135.151948 
z
" clip-path="url(#p5829f14d28)" style="fill: #0000ff; opacity: 0.7"/>
   </g>
   <g id="patch_105">
    <path d="M 226.24918 135.151948 
L 231.068852 135.151948 
L 231.068852 125.147943 
L 226.24918 125.147943 
z
" clip-path="url(#p5829f14d28)" style="fill: #0000ff; opacity: 0.7"/>
   </g>
   <g id="patch_106">
    <path d="M 260.67541 135.151948 
L 265.495082 135.151948 
L 265.495082 120.14594 
L 260.67541 120.14594 
z
" clip-path="url(#p5829f14d28)" style="fill: #0000ff; opacity: 0.7"/>
   </g>
   <g id="patch_107">
    <path d="M 96.806557 135.151948 
L 101.62623 135.151948 
L 101.62623 135.151948 
L 96.806557 135.151948 
z
" clip-path="url(#p5829f14d28)" style="fill: #808080; opacity: 0.4"/>
   </g>
   <g id="patch_108">
    <path d="M 131.232787 135.151948 
L 136.052459 135.151948 
L 136.052459 122.646941 
L 131.232787 122.646941 
z
" clip-path="url(#p5829f14d28)" style="fill: #808080; opacity: 0.4"/>
   </g>
   <g id="patch_109">
    <path d="M 165.659016 135.151948 
L 170.478689 135.151948 
L 170.478689 135.151948 
L 165.659016 135.151948 
z
" clip-path="url(#p5829f14d28)" style="fill: #808080; opacity: 0.4"/>
   </g>
   <g id="patch_110">
    <path d="M 200.085246 135.151948 
L 204.904918 135.151948 
L 204.904918 121.396441 
L 200.085246 121.396441 
z
" clip-path="url(#p5829f14d28)" style="fill: #808080; opacity: 0.4"/>
   </g>
   <g id="patch_111">
    <path d="M 234.511475 135.151948 
L 239.331148 135.151948 
L 239.331148 133.901447 
L 234.511475 133.901447 
z
" clip-path="url(#p5829f14d28)" style="fill: #808080; opacity: 0.4"/>
   </g>
   <g id="patch_112">
    <path d="M 268.937705 135.151948 
L 273.757377 135.151948 
L 273.757377 133.901447 
L 268.937705 133.901447 
z
" clip-path="url(#p5829f14d28)" style="fill: #808080; opacity: 0.4"/>
   </g>
   <g id="matplotlib.axis_5">
    <g id="xtick_13"/>
    <g id="xtick_14"/>
    <g id="xtick_15"/>
    <g id="xtick_16"/>
    <g id="xtick_17"/>
    <g id="xtick_18"/>
   </g>
   <g id="matplotlib.axis_6">
    <g id="ytick_5">
     <g id="line2d_11">
      <g>
       <use xlink:href="#me92fc98892" x="67.2" y="135.151948" style="stroke: #000000; stroke-width: 0.8"/>
      </g>
     </g>
     <g id="text_13">
      <!-- 0 -->
      <g transform="translate(53.8375 138.951167)scale(0.1 -0.1)">
       <use xlink:href="#DejaVuSans-30"/>
      </g>
     </g>
    </g>
    <g id="ytick_6">
     <g id="line2d_12">
      <g>
       <use xlink:href="#me92fc98892" x="67.2" y="112.642936" style="stroke: #000000; stroke-width: 0.8"/>
      </g>
     </g>
     <g id="text_14">
      <!-- 1 -->
      <g transform="translate(53.8375 116.442155)scale(0.1 -0.1)">
       <use xlink:href="#DejaVuSans-31"/>
      </g>
     </g>
    </g>
    <g id="text_15">
     <g id="patch_113">
      <path d="M 50.2 129.316991 
L 50.2 116.226991 
L 34.4575 116.226991 
L 34.4575 129.316991 
z
" style="fill: #808080; stroke: #808080; stroke-linejoin: miter"/>
     </g>
     <!-- 9 -->
     <g transform="translate(44.53625 125.316991)rotate(-90)scale(0.08 -0.08)">
      <use xlink:href="#DejaVuSans-39"/>
     </g>
    </g>
   </g>
   <g id="LineCollection_3">
    <path d="M 103.347541 135.151948 
L 103.347541 110.392035 
" clip-path="url(#p5829f14d28)" style="fill: none; stroke-dasharray: 5.55,2.4; stroke-dashoffset: 0; stroke: #000000; stroke-width: 1.5"/>
    <path d="M 137.77377 135.151948 
L 137.77377 110.392035 
" clip-path="url(#p5829f14d28)" style="fill: none; stroke-dasharray: 5.55,2.4; stroke-dashoffset: 0; stroke: #000000; stroke-width: 1.5"/>
    <path d="M 172.2 135.151948 
L 172.2 110.392035 
" clip-path="url(#p5829f14d28)" style="fill: none; stroke-dasharray: 5.55,2.4; stroke-dashoffset: 0; stroke: #000000; stroke-width: 1.5"/>
    <path d="M 206.62623 135.151948 
L 206.62623 110.392035 
" clip-path="url(#p5829f14d28)" style="fill: none; stroke-dasharray: 5.55,2.4; stroke-dashoffset: 0; stroke: #000000; stroke-width: 1.5"/>
    <path d="M 241.052459 135.151948 
L 241.052459 110.392035 
" clip-path="url(#p5829f14d28)" style="fill: none; stroke-dasharray: 5.55,2.4; stroke-dashoffset: 0; stroke: #000000; stroke-width: 1.5"/>
   </g>
   <g id="patch_114">
    <path d="M 67.2 135.151948 
L 67.2 110.392035 
" style="fill: none; stroke: #000000; stroke-width: 0.8; stroke-linejoin: miter; stroke-linecap: square"/>
   </g>
   <g id="patch_115">
    <path d="M 277.2 135.151948 
L 277.2 110.392035 
" style="fill: none; stroke: #000000; stroke-width: 0.8; stroke-linejoin: miter; stroke-linecap: square"/>
   </g>
   <g id="patch_116">
    <path d="M 67.2 135.151948 
L 277.2 135.151948 
" style="fill: none; stroke: #000000; stroke-width: 0.8; stroke-linejoin: miter; stroke-linecap: square"/>
   </g>
   <g id="patch_117">
    <path d="M 67.2 110.392035 
L 277.2 110.392035 
" style="fill: none; stroke: #000000; stroke-width: 0.8; stroke-linejoin: miter; stroke-linecap: square"/>
   </g>
  </g>
  <g id="axes_4">
   <g id="patch_118">
    <path d="M 67.2 177.607965 
L 277.2 177.607965 
L 277.2 152.848052 
L 67.2 152.848052 
z
" style="fill: #ffffff"/>
   </g>
   <g id="patch_119">
    <path d="M 74.085246 177.607965 
L 78.904918 177.607965 
L 78.904918 176.982715 
L 74.085246 176.982715 
z
" clip-path="url(#p42ccb48a7f)" style="fill: #ffa500; opacity: 0.7"/>
   </g>
   <g id="patch_120">
    <path d="M 108.511475 177.607965 
L 113.331148 177.607965 
L 113.331148 177.607965 
L 108.511475 177.607965 
z
" clip-path="url(#p42ccb48a7f)" style="fill: #ffa500; opacity: 0.7"/>
   </g>
   <g id="patch_121">
    <path d="M 142.937705 177.607965 
L 147.757377 177.607965 
L 147.757377 175.106964 
L 142.937705 175.106964 
z
" clip-path="url(#p42ccb48a7f)" style="fill: #ffa500; opacity: 0.7"/>
   </g>
   <g id="patch_122">
    <path d="M 177.363934 177.607965 
L 182.183607 177.607965 
L 182.183607 177.607965 
L 177.363934 177.607965 
z
" clip-path="url(#p42ccb48a7f)" style="fill: #ffa500; opacity: 0.7"/>
   </g>
   <g id="patch_123">
    <path d="M 211.790164 177.607965 
L 216.609836 177.607965 
L 216.609836 168.854461 
L 211.790164 168.854461 
z
" clip-path="url(#p42ccb48a7f)" style="fill: #ffa500; opacity: 0.7"/>
   </g>
   <g id="patch_124">
    <path d="M 246.216393 177.607965 
L 251.036066 177.607965 
L 251.036066 170.730212 
L 246.216393 170.730212 
z
" clip-path="url(#p42ccb48a7f)" style="fill: #ffa500; opacity: 0.7"/>
   </g>
   <g id="patch_125">
    <path d="M 78.904918 177.607965 
L 83.72459 177.607965 
L 83.72459 177.607965 
L 78.904918 177.607965 
z
" clip-path="url(#p42ccb48a7f)" style="fill: #ff0000; opacity: 0.7"/>
   </g>
   <g id="patch_126">
    <path d="M 113.331148 177.607965 
L 118.15082 177.607965 
L 118.15082 177.607965 
L 113.331148 177.607965 
z
" clip-path="url(#p42ccb48a7f)" style="fill: #ff0000; opacity: 0.7"/>
   </g>
   <g id="patch_127">
    <path d="M 147.757377 177.607965 
L 152.577049 177.607965 
L 152.577049 171.355462 
L 147.757377 171.355462 
z
" clip-path="url(#p42ccb48a7f)" style="fill: #ff0000; opacity: 0.7"/>
   </g>
   <g id="patch_128">
    <path d="M 182.183607 177.607965 
L 187.003279 177.607965 
L 187.003279 170.104961 
L 182.183607 170.104961 
z
" clip-path="url(#p42ccb48a7f)" style="fill: #ff0000; opacity: 0.7"/>
   </g>
   <g id="patch_129">
    <path d="M 216.609836 177.607965 
L 221.429508 177.607965 
L 221.429508 176.357465 
L 216.609836 176.357465 
z
" clip-path="url(#p42ccb48a7f)" style="fill: #ff0000; opacity: 0.7"/>
   </g>
   <g id="patch_130">
    <path d="M 251.036066 177.607965 
L 255.855738 177.607965 
L 255.855738 175.106964 
L 251.036066 175.106964 
z
" clip-path="url(#p42ccb48a7f)" style="fill: #ff0000; opacity: 0.7"/>
   </g>
   <g id="patch_131">
    <path d="M 83.72459 177.607965 
L 88.544262 177.607965 
L 88.544262 177.607965 
L 83.72459 177.607965 
z
" clip-path="url(#p42ccb48a7f)" style="fill: #008000; opacity: 0.7"/>
   </g>
   <g id="patch_132">
    <path d="M 118.15082 177.607965 
L 122.970492 177.607965 
L 122.970492 177.607965 
L 118.15082 177.607965 
z
" clip-path="url(#p42ccb48a7f)" style="fill: #008000; opacity: 0.7"/>
   </g>
   <g id="patch_133">
    <path d="M 152.577049 177.607965 
L 157.396721 177.607965 
L 157.396721 177.607965 
L 152.577049 177.607965 
z
" clip-path="url(#p42ccb48a7f)" style="fill: #008000; opacity: 0.7"/>
   </g>
   <g id="patch_134">
    <path d="M 187.003279 177.607965 
L 191.822951 177.607965 
L 191.822951 177.607965 
L 187.003279 177.607965 
z
" clip-path="url(#p42ccb48a7f)" style="fill: #008000; opacity: 0.7"/>
   </g>
   <g id="patch_135">
    <path d="M 221.429508 177.607965 
L 226.24918 177.607965 
L 226.24918 177.607965 
L 221.429508 177.607965 
z
" clip-path="url(#p42ccb48a7f)" style="fill: #008000; opacity: 0.7"/>
   </g>
   <g id="patch_136">
    <path d="M 255.855738 177.607965 
L 260.67541 177.607965 
L 260.67541 177.607965 
L 255.855738 177.607965 
z
" clip-path="url(#p42ccb48a7f)" style="fill: #008000; opacity: 0.7"/>
   </g>
   <g id="patch_137">
    <path d="M 88.544262 177.607965 
L 93.363934 177.607965 
L 93.363934 176.982715 
L 88.544262 176.982715 
z
" clip-path="url(#p42ccb48a7f)" style="fill: #0000ff; opacity: 0.7"/>
   </g>
   <g id="patch_138">
    <path d="M 122.970492 177.607965 
L 127.790164 177.607965 
L 127.790164 177.607965 
L 122.970492 177.607965 
z
" clip-path="url(#p42ccb48a7f)" style="fill: #0000ff; opacity: 0.7"/>
   </g>
   <g id="patch_139">
    <path d="M 157.396721 177.607965 
L 162.216393 177.607965 
L 162.216393 177.607965 
L 157.396721 177.607965 
z
" clip-path="url(#p42ccb48a7f)" style="fill: #0000ff; opacity: 0.7"/>
   </g>
   <g id="patch_140">
    <path d="M 191.822951 177.607965 
L 196.642623 177.607965 
L 196.642623 177.607965 
L 191.822951 177.607965 
z
" clip-path="url(#p42ccb48a7f)" style="fill: #0000ff; opacity: 0.7"/>
   </g>
   <g id="patch_141">
    <path d="M 226.24918 177.607965 
L 231.068852 177.607965 
L 231.068852 176.357465 
L 226.24918 176.357465 
z
" clip-path="url(#p42ccb48a7f)" style="fill: #0000ff; opacity: 0.7"/>
   </g>
   <g id="patch_142">
    <path d="M 260.67541 177.607965 
L 265.495082 177.607965 
L 265.495082 175.106964 
L 260.67541 175.106964 
z
" clip-path="url(#p42ccb48a7f)" style="fill: #0000ff; opacity: 0.7"/>
   </g>
   <g id="patch_143">
    <path d="M 96.806557 177.607965 
L 101.62623 177.607965 
L 101.62623 156.349454 
L 96.806557 156.349454 
z
" clip-path="url(#p42ccb48a7f)" style="fill: #808080; opacity: 0.4"/>
   </g>
   <g id="patch_144">
    <path d="M 131.232787 177.607965 
L 136.052459 177.607965 
L 136.052459 155.098953 
L 131.232787 155.098953 
z
" clip-path="url(#p42ccb48a7f)" style="fill: #808080; opacity: 0.4"/>
   </g>
   <g id="patch_145">
    <path d="M 165.659016 177.607965 
L 170.478689 177.607965 
L 170.478689 163.852458 
L 165.659016 163.852458 
z
" clip-path="url(#p42ccb48a7f)" style="fill: #808080; opacity: 0.4"/>
   </g>
   <g id="patch_146">
    <path d="M 200.085246 177.607965 
L 204.904918 177.607965 
L 204.904918 162.601957 
L 200.085246 162.601957 
z
" clip-path="url(#p42ccb48a7f)" style="fill: #808080; opacity: 0.4"/>
   </g>
   <g id="patch_147">
    <path d="M 234.511475 177.607965 
L 239.331148 177.607965 
L 239.331148 166.353459 
L 234.511475 166.353459 
z
" clip-path="url(#p42ccb48a7f)" style="fill: #808080; opacity: 0.4"/>
   </g>
   <g id="patch_148">
    <path d="M 268.937705 177.607965 
L 273.757377 177.607965 
L 273.757377 166.97871 
L 268.937705 166.97871 
z
" clip-path="url(#p42ccb48a7f)" style="fill: #808080; opacity: 0.4"/>
   </g>
   <g id="matplotlib.axis_7">
    <g id="xtick_19"/>
    <g id="xtick_20"/>
    <g id="xtick_21"/>
    <g id="xtick_22"/>
    <g id="xtick_23"/>
    <g id="xtick_24"/>
   </g>
   <g id="matplotlib.axis_8">
    <g id="ytick_7">
     <g id="line2d_13">
      <g>
       <use xlink:href="#me92fc98892" x="67.2" y="177.607965" style="stroke: #000000; stroke-width: 0.8"/>
      </g>
     </g>
     <g id="text_16">
      <!-- 0 -->
      <g transform="translate(53.8375 181.407184)scale(0.1 -0.1)">
       <use xlink:href="#DejaVuSans-30"/>
      </g>
     </g>
    </g>
    <g id="ytick_8">
     <g id="line2d_14">
      <g>
       <use xlink:href="#me92fc98892" x="67.2" y="155.098953" style="stroke: #000000; stroke-width: 0.8"/>
      </g>
     </g>
     <g id="text_17">
      <!-- 1 -->
      <g transform="translate(53.8375 158.898172)scale(0.1 -0.1)">
       <use xlink:href="#DejaVuSans-31"/>
      </g>
     </g>
    </g>
    <g id="text_18">
     <g id="patch_149">
      <path d="M 50.2 175.628009 
L 50.2 154.828009 
L 34.4575 154.828009 
L 34.4575 175.628009 
z
" style="fill: #ffa500; stroke: #ffa500; stroke-linejoin: miter"/>
     </g>
     <!-- 8$\cdot$3 -->
     <g transform="translate(44.53625 171.628009)rotate(-90)scale(0.08 -0.08)">
      <use xlink:href="#DejaVuSans-38" transform="translate(0 0.78125)"/>
      <use xlink:href="#DejaVuSans-22c5" transform="translate(63.623047 0.78125)"/>
      <use xlink:href="#DejaVuSans-33" transform="translate(95.410156 0.78125)"/>
     </g>
    </g>
   </g>
   <g id="LineCollection_4">
    <path d="M 103.347541 177.607965 
L 103.347541 152.848052 
" clip-path="url(#p42ccb48a7f)" style="fill: none; stroke-dasharray: 5.55,2.4; stroke-dashoffset: 0; stroke: #000000; stroke-width: 1.5"/>
    <path d="M 137.77377 177.607965 
L 137.77377 152.848052 
" clip-path="url(#p42ccb48a7f)" style="fill: none; stroke-dasharray: 5.55,2.4; stroke-dashoffset: 0; stroke: #000000; stroke-width: 1.5"/>
    <path d="M 172.2 177.607965 
L 172.2 152.848052 
" clip-path="url(#p42ccb48a7f)" style="fill: none; stroke-dasharray: 5.55,2.4; stroke-dashoffset: 0; stroke: #000000; stroke-width: 1.5"/>
    <path d="M 206.62623 177.607965 
L 206.62623 152.848052 
" clip-path="url(#p42ccb48a7f)" style="fill: none; stroke-dasharray: 5.55,2.4; stroke-dashoffset: 0; stroke: #000000; stroke-width: 1.5"/>
    <path d="M 241.052459 177.607965 
L 241.052459 152.848052 
" clip-path="url(#p42ccb48a7f)" style="fill: none; stroke-dasharray: 5.55,2.4; stroke-dashoffset: 0; stroke: #000000; stroke-width: 1.5"/>
   </g>
   <g id="patch_150">
    <path d="M 67.2 177.607965 
L 67.2 152.848052 
" style="fill: none; stroke: #000000; stroke-width: 0.8; stroke-linejoin: miter; stroke-linecap: square"/>
   </g>
   <g id="patch_151">
    <path d="M 277.2 177.607965 
L 277.2 152.848052 
" style="fill: none; stroke: #000000; stroke-width: 0.8; stroke-linejoin: miter; stroke-linecap: square"/>
   </g>
   <g id="patch_152">
    <path d="M 67.2 177.607965 
L 277.2 177.607965 
" style="fill: none; stroke: #000000; stroke-width: 0.8; stroke-linejoin: miter; stroke-linecap: square"/>
   </g>
   <g id="patch_153">
    <path d="M 67.2 152.848052 
L 277.2 152.848052 
" style="fill: none; stroke: #000000; stroke-width: 0.8; stroke-linejoin: miter; stroke-linecap: square"/>
   </g>
   <g id="patch_154">
    <path d="M 172.2 177.607965 
L 206.62623 177.607965 
L 206.62623 154.198593 
L 172.2 154.198593 
L 172.2 177.607965 
z
" clip-path="url(#p42ccb48a7f)" style="fill: none; stroke: #000000; stroke-width: 2; stroke-linejoin: miter"/>
   </g>
  </g>
  <g id="axes_5">
   <g id="patch_155">
    <path d="M 67.2 220.063983 
L 277.2 220.063983 
L 277.2 195.304069 
L 67.2 195.304069 
z
" style="fill: #ffffff"/>
   </g>
   <g id="patch_156">
    <path d="M 74.085246 220.063983 
L 78.904918 220.063983 
L 78.904918 220.063983 
L 74.085246 220.063983 
z
" clip-path="url(#p992dd6601d)" style="fill: #ffa500; opacity: 0.7"/>
   </g>
   <g id="patch_157">
    <path d="M 108.511475 220.063983 
L 113.331148 220.063983 
L 113.331148 220.063983 
L 108.511475 220.063983 
z
" clip-path="url(#p992dd6601d)" style="fill: #ffa500; opacity: 0.7"/>
   </g>
   <g id="patch_158">
    <path d="M 142.937705 220.063983 
L 147.757377 220.063983 
L 147.757377 218.813482 
L 142.937705 218.813482 
z
" clip-path="url(#p992dd6601d)" style="fill: #ffa500; opacity: 0.7"/>
   </g>
   <g id="patch_159">
    <path d="M 177.363934 220.063983 
L 182.183607 220.063983 
L 182.183607 211.310478 
L 177.363934 211.310478 
z
" clip-path="url(#p992dd6601d)" style="fill: #ffa500; opacity: 0.7"/>
   </g>
   <g id="patch_160">
    <path d="M 211.790164 220.063983 
L 216.609836 220.063983 
L 216.609836 212.560979 
L 211.790164 212.560979 
z
" clip-path="url(#p992dd6601d)" style="fill: #ffa500; opacity: 0.7"/>
   </g>
   <g id="patch_161">
    <path d="M 246.216393 220.063983 
L 251.036066 220.063983 
L 251.036066 218.188232 
L 246.216393 218.188232 
z
" clip-path="url(#p992dd6601d)" style="fill: #ffa500; opacity: 0.7"/>
   </g>
   <g id="patch_162">
    <path d="M 78.904918 220.063983 
L 83.72459 220.063983 
L 83.72459 220.063983 
L 78.904918 220.063983 
z
" clip-path="url(#p992dd6601d)" style="fill: #ff0000; opacity: 0.7"/>
   </g>
   <g id="patch_163">
    <path d="M 113.331148 220.063983 
L 118.15082 220.063983 
L 118.15082 219.438732 
L 113.331148 219.438732 
z
" clip-path="url(#p992dd6601d)" style="fill: #ff0000; opacity: 0.7"/>
   </g>
   <g id="patch_164">
    <path d="M 147.757377 220.063983 
L 152.577049 220.063983 
L 152.577049 216.312481 
L 147.757377 216.312481 
z
" clip-path="url(#p992dd6601d)" style="fill: #ff0000; opacity: 0.7"/>
   </g>
   <g id="patch_165">
    <path d="M 182.183607 220.063983 
L 187.003279 220.063983 
L 187.003279 218.813482 
L 182.183607 218.813482 
z
" clip-path="url(#p992dd6601d)" style="fill: #ff0000; opacity: 0.7"/>
   </g>
   <g id="patch_166">
    <path d="M 216.609836 220.063983 
L 221.429508 220.063983 
L 221.429508 210.059977 
L 216.609836 210.059977 
z
" clip-path="url(#p992dd6601d)" style="fill: #ff0000; opacity: 0.7"/>
   </g>
   <g id="patch_167">
    <path d="M 251.036066 220.063983 
L 255.855738 220.063983 
L 255.855738 211.935728 
L 251.036066 211.935728 
z
" clip-path="url(#p992dd6601d)" style="fill: #ff0000; opacity: 0.7"/>
   </g>
   <g id="patch_168">
    <path d="M 83.72459 220.063983 
L 88.544262 220.063983 
L 88.544262 213.186229 
L 83.72459 213.186229 
z
" clip-path="url(#p992dd6601d)" style="fill: #008000; opacity: 0.7"/>
   </g>
   <g id="patch_169">
    <path d="M 118.15082 220.063983 
L 122.970492 220.063983 
L 122.970492 220.063983 
L 118.15082 220.063983 
z
" clip-path="url(#p992dd6601d)" style="fill: #008000; opacity: 0.7"/>
   </g>
   <g id="patch_170">
    <path d="M 152.577049 220.063983 
L 157.396721 220.063983 
L 157.396721 213.811479 
L 152.577049 213.811479 
z
" clip-path="url(#p992dd6601d)" style="fill: #008000; opacity: 0.7"/>
   </g>
   <g id="patch_171">
    <path d="M 187.003279 220.063983 
L 191.822951 220.063983 
L 191.822951 220.063983 
L 187.003279 220.063983 
z
" clip-path="url(#p992dd6601d)" style="fill: #008000; opacity: 0.7"/>
   </g>
   <g id="patch_172">
    <path d="M 221.429508 220.063983 
L 226.24918 220.063983 
L 226.24918 220.063983 
L 221.429508 220.063983 
z
" clip-path="url(#p992dd6601d)" style="fill: #008000; opacity: 0.7"/>
   </g>
   <g id="patch_173">
    <path d="M 255.855738 220.063983 
L 260.67541 220.063983 
L 260.67541 216.312481 
L 255.855738 216.312481 
z
" clip-path="url(#p992dd6601d)" style="fill: #008000; opacity: 0.7"/>
   </g>
   <g id="patch_174">
    <path d="M 88.544262 220.063983 
L 93.363934 220.063983 
L 93.363934 213.186229 
L 88.544262 213.186229 
z
" clip-path="url(#p992dd6601d)" style="fill: #0000ff; opacity: 0.7"/>
   </g>
   <g id="patch_175">
    <path d="M 122.970492 220.063983 
L 127.790164 220.063983 
L 127.790164 218.188232 
L 122.970492 218.188232 
z
" clip-path="url(#p992dd6601d)" style="fill: #0000ff; opacity: 0.7"/>
   </g>
   <g id="patch_176">
    <path d="M 157.396721 220.063983 
L 162.216393 220.063983 
L 162.216393 210.059977 
L 157.396721 210.059977 
z
" clip-path="url(#p992dd6601d)" style="fill: #0000ff; opacity: 0.7"/>
   </g>
   <g id="patch_177">
    <path d="M 191.822951 220.063983 
L 196.642623 220.063983 
L 196.642623 218.813482 
L 191.822951 218.813482 
z
" clip-path="url(#p992dd6601d)" style="fill: #0000ff; opacity: 0.7"/>
   </g>
   <g id="patch_178">
    <path d="M 226.24918 220.063983 
L 231.068852 220.063983 
L 231.068852 215.06198 
L 226.24918 215.06198 
z
" clip-path="url(#p992dd6601d)" style="fill: #0000ff; opacity: 0.7"/>
   </g>
   <g id="patch_179">
    <path d="M 260.67541 220.063983 
L 265.495082 220.063983 
L 265.495082 211.935728 
L 260.67541 211.935728 
z
" clip-path="url(#p992dd6601d)" style="fill: #0000ff; opacity: 0.7"/>
   </g>
   <g id="patch_180">
    <path d="M 96.806557 220.063983 
L 101.62623 220.063983 
L 101.62623 211.310478 
L 96.806557 211.310478 
z
" clip-path="url(#p992dd6601d)" style="fill: #808080; opacity: 0.4"/>
   </g>
   <g id="patch_181">
    <path d="M 131.232787 220.063983 
L 136.052459 220.063983 
L 136.052459 200.055972 
L 131.232787 200.055972 
z
" clip-path="url(#p992dd6601d)" style="fill: #808080; opacity: 0.4"/>
   </g>
   <g id="patch_182">
    <path d="M 165.659016 220.063983 
L 170.478689 220.063983 
L 170.478689 218.813482 
L 165.659016 218.813482 
z
" clip-path="url(#p992dd6601d)" style="fill: #808080; opacity: 0.4"/>
   </g>
   <g id="patch_183">
    <path d="M 200.085246 220.063983 
L 204.904918 220.063983 
L 204.904918 208.809477 
L 200.085246 208.809477 
z
" clip-path="url(#p992dd6601d)" style="fill: #808080; opacity: 0.4"/>
   </g>
   <g id="patch_184">
    <path d="M 234.511475 220.063983 
L 239.331148 220.063983 
L 239.331148 220.063983 
L 234.511475 220.063983 
z
" clip-path="url(#p992dd6601d)" style="fill: #808080; opacity: 0.4"/>
   </g>
   <g id="patch_185">
    <path d="M 268.937705 220.063983 
L 273.757377 220.063983 
L 273.757377 219.438732 
L 268.937705 219.438732 
z
" clip-path="url(#p992dd6601d)" style="fill: #808080; opacity: 0.4"/>
   </g>
   <g id="matplotlib.axis_9">
    <g id="xtick_25"/>
    <g id="xtick_26"/>
    <g id="xtick_27"/>
    <g id="xtick_28"/>
    <g id="xtick_29"/>
    <g id="xtick_30"/>
   </g>
   <g id="matplotlib.axis_10">
    <g id="ytick_9">
     <g id="line2d_15">
      <g>
       <use xlink:href="#me92fc98892" x="67.2" y="220.063983" style="stroke: #000000; stroke-width: 0.8"/>
      </g>
     </g>
     <g id="text_19">
      <!-- 0 -->
      <g transform="translate(53.8375 223.863201)scale(0.1 -0.1)">
       <use xlink:href="#DejaVuSans-30"/>
      </g>
     </g>
    </g>
    <g id="ytick_10">
     <g id="line2d_16">
      <g>
       <use xlink:href="#me92fc98892" x="67.2" y="197.55497" style="stroke: #000000; stroke-width: 0.8"/>
      </g>
     </g>
     <g id="text_20">
      <!-- 1 -->
      <g transform="translate(53.8375 201.354189)scale(0.1 -0.1)">
       <use xlink:href="#DejaVuSans-31"/>
      </g>
     </g>
    </g>
    <g id="text_21">
     <g id="patch_186">
      <path d="M 50.2 218.084026 
L 50.2 197.284026 
L 34.4575 197.284026 
L 34.4575 218.084026 
z
" style="fill: #ff0000; stroke: #ff0000; stroke-linejoin: miter"/>
     </g>
     <!-- 4$\cdot$5 -->
     <g transform="translate(44.53625 214.084026)rotate(-90)scale(0.08 -0.08)">
      <use xlink:href="#DejaVuSans-34" transform="translate(0 0.09375)"/>
      <use xlink:href="#DejaVuSans-22c5" transform="translate(63.623047 0.09375)"/>
      <use xlink:href="#DejaVuSans-35" transform="translate(95.410156 0.09375)"/>
     </g>
    </g>
   </g>
   <g id="LineCollection_5">
    <path d="M 103.347541 220.063983 
L 103.347541 195.304069 
" clip-path="url(#p992dd6601d)" style="fill: none; stroke-dasharray: 5.55,2.4; stroke-dashoffset: 0; stroke: #000000; stroke-width: 1.5"/>
    <path d="M 137.77377 220.063983 
L 137.77377 195.304069 
" clip-path="url(#p992dd6601d)" style="fill: none; stroke-dasharray: 5.55,2.4; stroke-dashoffset: 0; stroke: #000000; stroke-width: 1.5"/>
    <path d="M 172.2 220.063983 
L 172.2 195.304069 
" clip-path="url(#p992dd6601d)" style="fill: none; stroke-dasharray: 5.55,2.4; stroke-dashoffset: 0; stroke: #000000; stroke-width: 1.5"/>
    <path d="M 206.62623 220.063983 
L 206.62623 195.304069 
" clip-path="url(#p992dd6601d)" style="fill: none; stroke-dasharray: 5.55,2.4; stroke-dashoffset: 0; stroke: #000000; stroke-width: 1.5"/>
    <path d="M 241.052459 220.063983 
L 241.052459 195.304069 
" clip-path="url(#p992dd6601d)" style="fill: none; stroke-dasharray: 5.55,2.4; stroke-dashoffset: 0; stroke: #000000; stroke-width: 1.5"/>
   </g>
   <g id="patch_187">
    <path d="M 67.2 220.063983 
L 67.2 195.304069 
" style="fill: none; stroke: #000000; stroke-width: 0.8; stroke-linejoin: miter; stroke-linecap: square"/>
   </g>
   <g id="patch_188">
    <path d="M 277.2 220.063983 
L 277.2 195.304069 
" style="fill: none; stroke: #000000; stroke-width: 0.8; stroke-linejoin: miter; stroke-linecap: square"/>
   </g>
   <g id="patch_189">
    <path d="M 67.2 220.063983 
L 277.2 220.063983 
" style="fill: none; stroke: #000000; stroke-width: 0.8; stroke-linejoin: miter; stroke-linecap: square"/>
   </g>
   <g id="patch_190">
    <path d="M 67.2 195.304069 
L 277.2 195.304069 
" style="fill: none; stroke: #000000; stroke-width: 0.8; stroke-linejoin: miter; stroke-linecap: square"/>
   </g>
   <g id="patch_191">
    <path d="M 206.62623 220.063983 
L 241.052459 220.063983 
L 241.052459 196.65461 
L 206.62623 196.65461 
L 206.62623 220.063983 
z
" clip-path="url(#p992dd6601d)" style="fill: none; stroke: #000000; stroke-width: 2; stroke-linejoin: miter"/>
   </g>
  </g>
  <g id="axes_6">
   <g id="patch_192">
    <path d="M 67.2 262.52 
L 277.2 262.52 
L 277.2 237.760087 
L 67.2 237.760087 
z
" style="fill: #ffffff"/>
   </g>
   <g id="patch_193">
    <path d="M 74.085246 262.52 
L 78.904918 262.52 
L 78.904918 262.52 
L 74.085246 262.52 
z
" clip-path="url(#pa06d9f21fb)" style="fill: #ffa500; opacity: 0.7"/>
   </g>
   <g id="patch_194">
    <path d="M 108.511475 262.52 
L 113.331148 262.52 
L 113.331148 258.768498 
L 108.511475 258.768498 
z
" clip-path="url(#pa06d9f21fb)" style="fill: #ffa500; opacity: 0.7"/>
   </g>
   <g id="patch_195">
    <path d="M 142.937705 262.52 
L 147.757377 262.52 
L 147.757377 261.269499 
L 142.937705 261.269499 
z
" clip-path="url(#pa06d9f21fb)" style="fill: #ffa500; opacity: 0.7"/>
   </g>
   <g id="patch_196">
    <path d="M 177.363934 262.52 
L 182.183607 262.52 
L 182.183607 255.642246 
L 177.363934 255.642246 
z
" clip-path="url(#pa06d9f21fb)" style="fill: #ffa500; opacity: 0.7"/>
   </g>
   <g id="patch_197">
    <path d="M 211.790164 262.52 
L 216.609836 262.52 
L 216.609836 260.644249 
L 211.790164 260.644249 
z
" clip-path="url(#pa06d9f21fb)" style="fill: #ffa500; opacity: 0.7"/>
   </g>
   <g id="patch_198">
    <path d="M 246.216393 262.52 
L 251.036066 262.52 
L 251.036066 250.014993 
L 246.216393 250.014993 
z
" clip-path="url(#pa06d9f21fb)" style="fill: #ffa500; opacity: 0.7"/>
   </g>
   <g id="patch_199">
    <path d="M 78.904918 262.52 
L 83.72459 262.52 
L 83.72459 262.52 
L 78.904918 262.52 
z
" clip-path="url(#pa06d9f21fb)" style="fill: #ff0000; opacity: 0.7"/>
   </g>
   <g id="patch_200">
    <path d="M 113.331148 262.52 
L 118.15082 262.52 
L 118.15082 260.644249 
L 113.331148 260.644249 
z
" clip-path="url(#pa06d9f21fb)" style="fill: #ff0000; opacity: 0.7"/>
   </g>
   <g id="patch_201">
    <path d="M 147.757377 262.52 
L 152.577049 262.52 
L 152.577049 258.768498 
L 147.757377 258.768498 
z
" clip-path="url(#pa06d9f21fb)" style="fill: #ff0000; opacity: 0.7"/>
   </g>
   <g id="patch_202">
    <path d="M 182.183607 262.52 
L 187.003279 262.52 
L 187.003279 260.018999 
L 182.183607 260.018999 
z
" clip-path="url(#pa06d9f21fb)" style="fill: #ff0000; opacity: 0.7"/>
   </g>
   <g id="patch_203">
    <path d="M 216.609836 262.52 
L 221.429508 262.52 
L 221.429508 254.391746 
L 216.609836 254.391746 
z
" clip-path="url(#pa06d9f21fb)" style="fill: #ff0000; opacity: 0.7"/>
   </g>
   <g id="patch_204">
    <path d="M 251.036066 262.52 
L 255.855738 262.52 
L 255.855738 260.018999 
L 251.036066 260.018999 
z
" clip-path="url(#pa06d9f21fb)" style="fill: #ff0000; opacity: 0.7"/>
   </g>
   <g id="patch_205">
    <path d="M 83.72459 262.52 
L 88.544262 262.52 
L 88.544262 258.143248 
L 83.72459 258.143248 
z
" clip-path="url(#pa06d9f21fb)" style="fill: #008000; opacity: 0.7"/>
   </g>
   <g id="patch_206">
    <path d="M 118.15082 262.52 
L 122.970492 262.52 
L 122.970492 261.89475 
L 118.15082 261.89475 
z
" clip-path="url(#pa06d9f21fb)" style="fill: #008000; opacity: 0.7"/>
   </g>
   <g id="patch_207">
    <path d="M 152.577049 262.52 
L 157.396721 262.52 
L 157.396721 261.269499 
L 152.577049 261.269499 
z
" clip-path="url(#pa06d9f21fb)" style="fill: #008000; opacity: 0.7"/>
   </g>
   <g id="patch_208">
    <path d="M 187.003279 262.52 
L 191.822951 262.52 
L 191.822951 262.52 
L 187.003279 262.52 
z
" clip-path="url(#pa06d9f21fb)" style="fill: #008000; opacity: 0.7"/>
   </g>
   <g id="patch_209">
    <path d="M 221.429508 262.52 
L 226.24918 262.52 
L 226.24918 258.768498 
L 221.429508 258.768498 
z
" clip-path="url(#pa06d9f21fb)" style="fill: #008000; opacity: 0.7"/>
   </g>
   <g id="patch_210">
    <path d="M 255.855738 262.52 
L 260.67541 262.52 
L 260.67541 257.517997 
L 255.855738 257.517997 
z
" clip-path="url(#pa06d9f21fb)" style="fill: #008000; opacity: 0.7"/>
   </g>
   <g id="patch_211">
    <path d="M 88.544262 262.52 
L 93.363934 262.52 
L 93.363934 248.139242 
L 88.544262 248.139242 
z
" clip-path="url(#pa06d9f21fb)" style="fill: #0000ff; opacity: 0.7"/>
   </g>
   <g id="patch_212">
    <path d="M 122.970492 262.52 
L 127.790164 262.52 
L 127.790164 261.269499 
L 122.970492 261.269499 
z
" clip-path="url(#pa06d9f21fb)" style="fill: #0000ff; opacity: 0.7"/>
   </g>
   <g id="patch_213">
    <path d="M 157.396721 262.52 
L 162.216393 262.52 
L 162.216393 247.513992 
L 157.396721 247.513992 
z
" clip-path="url(#pa06d9f21fb)" style="fill: #0000ff; opacity: 0.7"/>
   </g>
   <g id="patch_214">
    <path d="M 191.822951 262.52 
L 196.642623 262.52 
L 196.642623 260.018999 
L 191.822951 260.018999 
z
" clip-path="url(#pa06d9f21fb)" style="fill: #0000ff; opacity: 0.7"/>
   </g>
   <g id="patch_215">
    <path d="M 226.24918 262.52 
L 231.068852 262.52 
L 231.068852 254.391746 
L 226.24918 254.391746 
z
" clip-path="url(#pa06d9f21fb)" style="fill: #0000ff; opacity: 0.7"/>
   </g>
   <g id="patch_216">
    <path d="M 260.67541 262.52 
L 265.495082 262.52 
L 265.495082 260.018999 
L 260.67541 260.018999 
z
" clip-path="url(#pa06d9f21fb)" style="fill: #0000ff; opacity: 0.7"/>
   </g>
   <g id="patch_217">
    <path d="M 96.806557 262.52 
L 101.62623 262.52 
L 101.62623 258.768498 
L 96.806557 258.768498 
z
" clip-path="url(#pa06d9f21fb)" style="fill: #808080; opacity: 0.4"/>
   </g>
   <g id="patch_218">
    <path d="M 131.232787 262.52 
L 136.052459 262.52 
L 136.052459 247.513992 
L 131.232787 247.513992 
z
" clip-path="url(#pa06d9f21fb)" style="fill: #808080; opacity: 0.4"/>
   </g>
   <g id="patch_219">
    <path d="M 165.659016 262.52 
L 170.478689 262.52 
L 170.478689 261.269499 
L 165.659016 261.269499 
z
" clip-path="url(#pa06d9f21fb)" style="fill: #808080; opacity: 0.4"/>
   </g>
   <g id="patch_220">
    <path d="M 200.085246 262.52 
L 204.904918 262.52 
L 204.904918 251.890744 
L 200.085246 251.890744 
z
" clip-path="url(#pa06d9f21fb)" style="fill: #808080; opacity: 0.4"/>
   </g>
   <g id="patch_221">
    <path d="M 234.511475 262.52 
L 239.331148 262.52 
L 239.331148 261.89475 
L 234.511475 261.89475 
z
" clip-path="url(#pa06d9f21fb)" style="fill: #808080; opacity: 0.4"/>
   </g>
   <g id="patch_222">
    <path d="M 268.937705 262.52 
L 273.757377 262.52 
L 273.757377 262.52 
L 268.937705 262.52 
z
" clip-path="url(#pa06d9f21fb)" style="fill: #808080; opacity: 0.4"/>
   </g>
   <g id="matplotlib.axis_11">
    <g id="xtick_31">
     <g id="line2d_17">
      <defs>
       <path id="mb0ac1c1d42" d="M 0 0 
L 0 3.5 
" style="stroke: #000000; stroke-width: 0.8"/>
      </defs>
      <g>
       <use xlink:href="#mb0ac1c1d42" x="86.134426" y="262.52" style="stroke: #000000; stroke-width: 0.8"/>
      </g>
     </g>
     <g id="text_22">
      <g id="patch_223">
       <path d="M 73.214426 281.2625 
L 99.054426 281.2625 
L 99.054426 265.52 
L 73.214426 265.52 
z
" style="fill: #6495ed; stroke: #6495ed; stroke-linejoin: miter"/>
      </g>
      <!-- 11$\cdot$1 -->
      <g transform="translate(77.214426 275.59875)scale(0.08 -0.08)">
       <use xlink:href="#DejaVuSans-31" transform="translate(0 0.09375)"/>
       <use xlink:href="#DejaVuSans-31" transform="translate(63.623047 0.09375)"/>
       <use xlink:href="#DejaVuSans-22c5" transform="translate(127.246094 0.09375)"/>
       <use xlink:href="#DejaVuSans-31" transform="translate(159.033203 0.09375)"/>
      </g>
     </g>
    </g>
    <g id="xtick_32">
     <g id="line2d_18">
      <g>
       <use xlink:href="#mb0ac1c1d42" x="120.560656" y="262.52" style="stroke: #000000; stroke-width: 0.8"/>
      </g>
     </g>
     <g id="text_23">
      <g id="patch_224">
       <path d="M 107.640656 281.2625 
L 133.480656 281.2625 
L 133.480656 265.52 
L 107.640656 265.52 
z
" style="fill: #00ff00; stroke: #00ff00; stroke-linejoin: miter"/>
      </g>
      <!-- 10$\cdot$2 -->
      <g transform="translate(111.640656 275.59875)scale(0.08 -0.08)">
       <use xlink:href="#DejaVuSans-31" transform="translate(0 0.78125)"/>
       <use xlink:href="#DejaVuSans-30" transform="translate(63.623047 0.78125)"/>
       <use xlink:href="#DejaVuSans-22c5" transform="translate(127.246094 0.78125)"/>
       <use xlink:href="#DejaVuSans-32" transform="translate(159.033203 0.78125)"/>
      </g>
     </g>
    </g>
    <g id="xtick_33">
     <g id="line2d_19">
      <g>
       <use xlink:href="#mb0ac1c1d42" x="154.986885" y="262.52" style="stroke: #000000; stroke-width: 0.8"/>
      </g>
     </g>
     <g id="text_24">
      <g id="patch_225">
       <path d="M 148.441885 281.2625 
L 161.531885 281.2625 
L 161.531885 265.52 
L 148.441885 265.52 
z
" style="fill: #808080; stroke: #808080; stroke-linejoin: miter"/>
      </g>
      <!-- 9 -->
      <g transform="translate(152.441885 275.59875)scale(0.08 -0.08)">
       <use xlink:href="#DejaVuSans-39"/>
      </g>
     </g>
    </g>
    <g id="xtick_34">
     <g id="line2d_20">
      <g>
       <use xlink:href="#mb0ac1c1d42" x="189.413115" y="262.52" style="stroke: #000000; stroke-width: 0.8"/>
      </g>
     </g>
     <g id="text_25">
      <g id="patch_226">
       <path d="M 179.013115 281.2625 
L 199.813115 281.2625 
L 199.813115 265.52 
L 179.013115 265.52 
z
" style="fill: #ffa500; stroke: #ffa500; stroke-linejoin: miter"/>
      </g>
      <!-- 8$\cdot$3 -->
      <g transform="translate(183.013115 275.59875)scale(0.08 -0.08)">
       <use xlink:href="#DejaVuSans-38" transform="translate(0 0.78125)"/>
       <use xlink:href="#DejaVuSans-22c5" transform="translate(63.623047 0.78125)"/>
       <use xlink:href="#DejaVuSans-33" transform="translate(95.410156 0.78125)"/>
      </g>
     </g>
    </g>
    <g id="xtick_35">
     <g id="line2d_21">
      <g>
       <use xlink:href="#mb0ac1c1d42" x="223.839344" y="262.52" style="stroke: #000000; stroke-width: 0.8"/>
      </g>
     </g>
     <g id="text_26">
      <g id="patch_227">
       <path d="M 213.439344 281.2625 
L 234.239344 281.2625 
L 234.239344 265.52 
L 213.439344 265.52 
z
" style="fill: #ff0000; stroke: #ff0000; stroke-linejoin: miter"/>
      </g>
      <!-- 4$\cdot$5 -->
      <g transform="translate(217.439344 275.59875)scale(0.08 -0.08)">
       <use xlink:href="#DejaVuSans-34" transform="translate(0 0.09375)"/>
       <use xlink:href="#DejaVuSans-22c5" transform="translate(63.623047 0.09375)"/>
       <use xlink:href="#DejaVuSans-35" transform="translate(95.410156 0.09375)"/>
      </g>
     </g>
    </g>
    <g id="xtick_36">
     <g id="line2d_22">
      <g>
       <use xlink:href="#mb0ac1c1d42" x="258.265574" y="262.52" style="stroke: #000000; stroke-width: 0.8"/>
      </g>
     </g>
     <g id="text_27">
      <g id="patch_228">
       <path d="M 247.865574 281.2625 
L 268.665574 281.2625 
L 268.665574 265.52 
L 247.865574 265.52 
z
" style="fill: #da70d6; stroke: #da70d6; stroke-linejoin: miter"/>
      </g>
      <!-- 7$\cdot$6 -->
      <g transform="translate(251.865574 275.59875)scale(0.08 -0.08)">
       <use xlink:href="#DejaVuSans-37" transform="translate(0 0.78125)"/>
       <use xlink:href="#DejaVuSans-22c5" transform="translate(63.623047 0.78125)"/>
       <use xlink:href="#DejaVuSans-36" transform="translate(95.410156 0.78125)"/>
      </g>
     </g>
    </g>
   </g>
   <g id="matplotlib.axis_12">
    <g id="ytick_11">
     <g id="line2d_23">
      <g>
       <use xlink:href="#me92fc98892" x="67.2" y="262.52" style="stroke: #000000; stroke-width: 0.8"/>
      </g>
     </g>
     <g id="text_28">
      <!-- 0 -->
      <g transform="translate(53.8375 266.319219)scale(0.1 -0.1)">
       <use xlink:href="#DejaVuSans-30"/>
      </g>
     </g>
    </g>
    <g id="ytick_12">
     <g id="line2d_24">
      <g>
       <use xlink:href="#me92fc98892" x="67.2" y="240.010988" style="stroke: #000000; stroke-width: 0.8"/>
      </g>
     </g>
     <g id="text_29">
      <!-- 1 -->
      <g transform="translate(53.8375 243.810207)scale(0.1 -0.1)">
       <use xlink:href="#DejaVuSans-31"/>
      </g>
     </g>
    </g>
    <g id="text_30">
     <g id="patch_229">
      <path d="M 50.2 260.540043 
L 50.2 239.740043 
L 34.4575 239.740043 
L 34.4575 260.540043 
z
" style="fill: #da70d6; stroke: #da70d6; stroke-linejoin: miter"/>
     </g>
     <!-- 7$\cdot$6 -->
     <g transform="translate(44.53625 256.540043)rotate(-90)scale(0.08 -0.08)">
      <use xlink:href="#DejaVuSans-37" transform="translate(0 0.78125)"/>
      <use xlink:href="#DejaVuSans-22c5" transform="translate(63.623047 0.78125)"/>
      <use xlink:href="#DejaVuSans-36" transform="translate(95.410156 0.78125)"/>
     </g>
    </g>
   </g>
   <g id="LineCollection_6">
    <path d="M 103.347541 262.52 
L 103.347541 237.760087 
" clip-path="url(#pa06d9f21fb)" style="fill: none; stroke-dasharray: 5.55,2.4; stroke-dashoffset: 0; stroke: #000000; stroke-width: 1.5"/>
    <path d="M 137.77377 262.52 
L 137.77377 237.760087 
" clip-path="url(#pa06d9f21fb)" style="fill: none; stroke-dasharray: 5.55,2.4; stroke-dashoffset: 0; stroke: #000000; stroke-width: 1.5"/>
    <path d="M 172.2 262.52 
L 172.2 237.760087 
" clip-path="url(#pa06d9f21fb)" style="fill: none; stroke-dasharray: 5.55,2.4; stroke-dashoffset: 0; stroke: #000000; stroke-width: 1.5"/>
    <path d="M 206.62623 262.52 
L 206.62623 237.760087 
" clip-path="url(#pa06d9f21fb)" style="fill: none; stroke-dasharray: 5.55,2.4; stroke-dashoffset: 0; stroke: #000000; stroke-width: 1.5"/>
    <path d="M 241.052459 262.52 
L 241.052459 237.760087 
" clip-path="url(#pa06d9f21fb)" style="fill: none; stroke-dasharray: 5.55,2.4; stroke-dashoffset: 0; stroke: #000000; stroke-width: 1.5"/>
   </g>
   <g id="patch_230">
    <path d="M 67.2 262.52 
L 67.2 237.760087 
" style="fill: none; stroke: #000000; stroke-width: 0.8; stroke-linejoin: miter; stroke-linecap: square"/>
   </g>
   <g id="patch_231">
    <path d="M 277.2 262.52 
L 277.2 237.760087 
" style="fill: none; stroke: #000000; stroke-width: 0.8; stroke-linejoin: miter; stroke-linecap: square"/>
   </g>
   <g id="patch_232">
    <path d="M 67.2 262.52 
L 277.2 262.52 
" style="fill: none; stroke: #000000; stroke-width: 0.8; stroke-linejoin: miter; stroke-linecap: square"/>
   </g>
   <g id="patch_233">
    <path d="M 67.2 237.760087 
L 277.2 237.760087 
" style="fill: none; stroke: #000000; stroke-width: 0.8; stroke-linejoin: miter; stroke-linecap: square"/>
   </g>
   <g id="patch_234">
    <path d="M 241.052459 262.52 
L 275.478689 262.52 
L 275.478689 239.110627 
L 241.052459 239.110627 
L 241.052459 262.52 
z
" clip-path="url(#pa06d9f21fb)" style="fill: none; stroke: #000000; stroke-width: 2; stroke-linejoin: miter"/>
   </g>
  </g>
  <g id="text_31">
   <!-- Fraction of Double Mutants -->
   <g transform="translate(17.9175 252.0075)rotate(-90)scale(0.16 -0.16)">
    <defs>
     <path id="DejaVuSans-46" d="M 628 4666 
L 3309 4666 
L 3309 4134 
L 1259 4134 
L 1259 2759 
L 3109 2759 
L 3109 2228 
L 1259 2228 
L 1259 0 
L 628 0 
L 628 4666 
z
" transform="scale(0.015625)"/>
     <path id="DejaVuSans-72" d="M 2631 2963 
Q 2534 3019 2420 3045 
Q 2306 3072 2169 3072 
Q 1681 3072 1420 2755 
Q 1159 2438 1159 1844 
L 1159 0 
L 581 0 
L 581 3500 
L 1159 3500 
L 1159 2956 
Q 1341 3275 1631 3429 
Q 1922 3584 2338 3584 
Q 2397 3584 2469 3576 
Q 2541 3569 2628 3553 
L 2631 2963 
z
" transform="scale(0.015625)"/>
     <path id="DejaVuSans-61" d="M 2194 1759 
Q 1497 1759 1228 1600 
Q 959 1441 959 1056 
Q 959 750 1161 570 
Q 1363 391 1709 391 
Q 2188 391 2477 730 
Q 2766 1069 2766 1631 
L 2766 1759 
L 2194 1759 
z
M 3341 1997 
L 3341 0 
L 2766 0 
L 2766 531 
Q 2569 213 2275 61 
Q 1981 -91 1556 -91 
Q 1019 -91 701 211 
Q 384 513 384 1019 
Q 384 1609 779 1909 
Q 1175 2209 1959 2209 
L 2766 2209 
L 2766 2266 
Q 2766 2663 2505 2880 
Q 2244 3097 1772 3097 
Q 1472 3097 1187 3025 
Q 903 2953 641 2809 
L 641 3341 
Q 956 3463 1253 3523 
Q 1550 3584 1831 3584 
Q 2591 3584 2966 3190 
Q 3341 2797 3341 1997 
z
" transform="scale(0.015625)"/>
     <path id="DejaVuSans-63" d="M 3122 3366 
L 3122 2828 
Q 2878 2963 2633 3030 
Q 2388 3097 2138 3097 
Q 1578 3097 1268 2742 
Q 959 2388 959 1747 
Q 959 1106 1268 751 
Q 1578 397 2138 397 
Q 2388 397 2633 464 
Q 2878 531 3122 666 
L 3122 134 
Q 2881 22 2623 -34 
Q 2366 -91 2075 -91 
Q 1284 -91 818 406 
Q 353 903 353 1747 
Q 353 2603 823 3093 
Q 1294 3584 2113 3584 
Q 2378 3584 2631 3529 
Q 2884 3475 3122 3366 
z
" transform="scale(0.015625)"/>
     <path id="DejaVuSans-74" d="M 1172 4494 
L 1172 3500 
L 2356 3500 
L 2356 3053 
L 1172 3053 
L 1172 1153 
Q 1172 725 1289 603 
Q 1406 481 1766 481 
L 2356 481 
L 2356 0 
L 1766 0 
Q 1100 0 847 248 
Q 594 497 594 1153 
L 594 3053 
L 172 3053 
L 172 3500 
L 594 3500 
L 594 4494 
L 1172 4494 
z
" transform="scale(0.015625)"/>
     <path id="DejaVuSans-69" d="M 603 3500 
L 1178 3500 
L 1178 0 
L 603 0 
L 603 3500 
z
M 603 4863 
L 1178 4863 
L 1178 4134 
L 603 4134 
L 603 4863 
z
" transform="scale(0.015625)"/>
     <path id="DejaVuSans-6f" d="M 1959 3097 
Q 1497 3097 1228 2736 
Q 959 2375 959 1747 
Q 959 1119 1226 758 
Q 1494 397 1959 397 
Q 2419 397 2687 759 
Q 2956 1122 2956 1747 
Q 2956 2369 2687 2733 
Q 2419 3097 1959 3097 
z
M 1959 3584 
Q 2709 3584 3137 3096 
Q 3566 2609 3566 1747 
Q 3566 888 3137 398 
Q 2709 -91 1959 -91 
Q 1206 -91 779 398 
Q 353 888 353 1747 
Q 353 2609 779 3096 
Q 1206 3584 1959 3584 
z
" transform="scale(0.015625)"/>
     <path id="DejaVuSans-6e" d="M 3513 2113 
L 3513 0 
L 2938 0 
L 2938 2094 
Q 2938 2591 2744 2837 
Q 2550 3084 2163 3084 
Q 1697 3084 1428 2787 
Q 1159 2491 1159 1978 
L 1159 0 
L 581 0 
L 581 3500 
L 1159 3500 
L 1159 2956 
Q 1366 3272 1645 3428 
Q 1925 3584 2291 3584 
Q 2894 3584 3203 3211 
Q 3513 2838 3513 2113 
z
" transform="scale(0.015625)"/>
     <path id="DejaVuSans-20" transform="scale(0.015625)"/>
     <path id="DejaVuSans-66" d="M 2375 4863 
L 2375 4384 
L 1825 4384 
Q 1516 4384 1395 4259 
Q 1275 4134 1275 3809 
L 1275 3500 
L 2222 3500 
L 2222 3053 
L 1275 3053 
L 1275 0 
L 697 0 
L 697 3053 
L 147 3053 
L 147 3500 
L 697 3500 
L 697 3744 
Q 697 4328 969 4595 
Q 1241 4863 1831 4863 
L 2375 4863 
z
" transform="scale(0.015625)"/>
     <path id="DejaVuSans-44" d="M 1259 4147 
L 1259 519 
L 2022 519 
Q 2988 519 3436 956 
Q 3884 1394 3884 2338 
Q 3884 3275 3436 3711 
Q 2988 4147 2022 4147 
L 1259 4147 
z
M 628 4666 
L 1925 4666 
Q 3281 4666 3915 4102 
Q 4550 3538 4550 2338 
Q 4550 1131 3912 565 
Q 3275 0 1925 0 
L 628 0 
L 628 4666 
z
" transform="scale(0.015625)"/>
     <path id="DejaVuSans-75" d="M 544 1381 
L 544 3500 
L 1119 3500 
L 1119 1403 
Q 1119 906 1312 657 
Q 1506 409 1894 409 
Q 2359 409 2629 706 
Q 2900 1003 2900 1516 
L 2900 3500 
L 3475 3500 
L 3475 0 
L 2900 0 
L 2900 538 
Q 2691 219 2414 64 
Q 2138 -91 1772 -91 
Q 1169 -91 856 284 
Q 544 659 544 1381 
z
M 1991 3584 
L 1991 3584 
z
" transform="scale(0.015625)"/>
     <path id="DejaVuSans-62" d="M 3116 1747 
Q 3116 2381 2855 2742 
Q 2594 3103 2138 3103 
Q 1681 3103 1420 2742 
Q 1159 2381 1159 1747 
Q 1159 1113 1420 752 
Q 1681 391 2138 391 
Q 2594 391 2855 752 
Q 3116 1113 3116 1747 
z
M 1159 2969 
Q 1341 3281 1617 3432 
Q 1894 3584 2278 3584 
Q 2916 3584 3314 3078 
Q 3713 2572 3713 1747 
Q 3713 922 3314 415 
Q 2916 -91 2278 -91 
Q 1894 -91 1617 61 
Q 1341 213 1159 525 
L 1159 0 
L 581 0 
L 581 4863 
L 1159 4863 
L 1159 2969 
z
" transform="scale(0.015625)"/>
     <path id="DejaVuSans-6c" d="M 603 4863 
L 1178 4863 
L 1178 0 
L 603 0 
L 603 4863 
z
" transform="scale(0.015625)"/>
     <path id="DejaVuSans-65" d="M 3597 1894 
L 3597 1613 
L 953 1613 
Q 991 1019 1311 708 
Q 1631 397 2203 397 
Q 2534 397 2845 478 
Q 3156 559 3463 722 
L 3463 178 
Q 3153 47 2828 -22 
Q 2503 -91 2169 -91 
Q 1331 -91 842 396 
Q 353 884 353 1716 
Q 353 2575 817 3079 
Q 1281 3584 2069 3584 
Q 2775 3584 3186 3129 
Q 3597 2675 3597 1894 
z
M 3022 2063 
Q 3016 2534 2758 2815 
Q 2500 3097 2075 3097 
Q 1594 3097 1305 2825 
Q 1016 2553 972 2059 
L 3022 2063 
z
" transform="scale(0.015625)"/>
     <path id="DejaVuSans-4d" d="M 628 4666 
L 1569 4666 
L 2759 1491 
L 3956 4666 
L 4897 4666 
L 4897 0 
L 4281 0 
L 4281 4097 
L 3078 897 
L 2444 897 
L 1241 4097 
L 1241 0 
L 628 0 
L 628 4666 
z
" transform="scale(0.015625)"/>
     <path id="DejaVuSans-73" d="M 2834 3397 
L 2834 2853 
Q 2591 2978 2328 3040 
Q 2066 3103 1784 3103 
Q 1356 3103 1142 2972 
Q 928 2841 928 2578 
Q 928 2378 1081 2264 
Q 1234 2150 1697 2047 
L 1894 2003 
Q 2506 1872 2764 1633 
Q 3022 1394 3022 966 
Q 3022 478 2636 193 
Q 2250 -91 1575 -91 
Q 1294 -91 989 -36 
Q 684 19 347 128 
L 347 722 
Q 666 556 975 473 
Q 1284 391 1588 391 
Q 1994 391 2212 530 
Q 2431 669 2431 922 
Q 2431 1156 2273 1281 
Q 2116 1406 1581 1522 
L 1381 1569 
Q 847 1681 609 1914 
Q 372 2147 372 2553 
Q 372 3047 722 3315 
Q 1072 3584 1716 3584 
Q 2034 3584 2315 3537 
Q 2597 3491 2834 3397 
z
" transform="scale(0.015625)"/>
    </defs>
    <use xlink:href="#DejaVuSans-46"/>
    <use xlink:href="#DejaVuSans-72" x="50.269531"/>
    <use xlink:href="#DejaVuSans-61" x="91.382812"/>
    <use xlink:href="#DejaVuSans-63" x="152.662109"/>
    <use xlink:href="#DejaVuSans-74" x="207.642578"/>
    <use xlink:href="#DejaVuSans-69" x="246.851562"/>
    <use xlink:href="#DejaVuSans-6f" x="274.634766"/>
    <use xlink:href="#DejaVuSans-6e" x="335.816406"/>
    <use xlink:href="#DejaVuSans-20" x="399.195312"/>
    <use xlink:href="#DejaVuSans-6f" x="430.982422"/>
    <use xlink:href="#DejaVuSans-66" x="492.164062"/>
    <use xlink:href="#DejaVuSans-20" x="527.369141"/>
    <use xlink:href="#DejaVuSans-44" x="559.15625"/>
    <use xlink:href="#DejaVuSans-6f" x="636.158203"/>
    <use xlink:href="#DejaVuSans-75" x="697.339844"/>
    <use xlink:href="#DejaVuSans-62" x="760.71875"/>
    <use xlink:href="#DejaVuSans-6c" x="824.195312"/>
    <use xlink:href="#DejaVuSans-65" x="851.978516"/>
    <use xlink:href="#DejaVuSans-20" x="913.501953"/>
    <use xlink:href="#DejaVuSans-4d" x="945.289062"/>
    <use xlink:href="#DejaVuSans-75" x="1031.568359"/>
    <use xlink:href="#DejaVuSans-74" x="1094.947266"/>
    <use xlink:href="#DejaVuSans-61" x="1134.15625"/>
    <use xlink:href="#DejaVuSans-6e" x="1195.435547"/>
    <use xlink:href="#DejaVuSans-74" x="1258.814453"/>
    <use xlink:href="#DejaVuSans-73" x="1298.023438"/>
   </g>
  </g>
 </g>
 <defs>
  <clipPath id="pb6e47e29da">
   <rect x="67.2" y="25.48" width="210" height="24.759913"/>
  </clipPath>
  <clipPath id="pfc2b40feea">
   <rect x="67.2" y="67.936017" width="210" height="24.759913"/>
  </clipPath>
  <clipPath id="p5829f14d28">
   <rect x="67.2" y="110.392035" width="210" height="24.759913"/>
  </clipPath>
  <clipPath id="p42ccb48a7f">
   <rect x="67.2" y="152.848052" width="210" height="24.759913"/>
  </clipPath>
  <clipPath id="p992dd6601d">
   <rect x="67.2" y="195.304069" width="210" height="24.759913"/>
  </clipPath>
  <clipPath id="pa06d9f21fb">
   <rect x="67.2" y="237.760087" width="210" height="24.759913"/>
  </clipPath>
 </defs>
</svg>
