<?xml version="1.0" encoding="utf-8" standalone="no"?>
<!DOCTYPE svg PUBLIC "-//W3C//DTD SVG 1.1//EN"
  "http://www.w3.org/Graphics/SVG/1.1/DTD/svg11.dtd">
<svg xmlns:xlink="http://www.w3.org/1999/xlink" width="288pt" height="288pt" viewBox="0 0 288 288" xmlns="http://www.w3.org/2000/svg" version="1.1">
 <metadata>
  <rdf:RDF xmlns:dc="http://purl.org/dc/elements/1.1/" xmlns:cc="http://creativecommons.org/ns#" xmlns:rdf="http://www.w3.org/1999/02/22-rdf-syntax-ns#">
   <cc:Work>
    <dc:type rdf:resource="http://purl.org/dc/dcmitype/StillImage"/>
    <dc:date>2023-01-24T12:40:52.431078</dc:date>
    <dc:format>image/svg+xml</dc:format>
    <dc:creator>
     <cc:Agent>
      <dc:title>Matplotlib v3.5.0, https://matplotlib.org/</dc:title>
     </cc:Agent>
    </dc:creator>
   </cc:Work>
  </rdf:RDF>
 </metadata>
 <defs>
  <style type="text/css">*{stroke-linejoin: round; stroke-linecap: butt}</style>
 </defs>
 <g id="figure_1">
  <g id="patch_1">
   <path d="M 0 288 
L 288 288 
L 288 0 
L 0 0 
z
" style="fill: #ffffff"/>
  </g>
  <g id="axes_1">
   <g id="patch_2">
    <path d="M 51.8 240.2 
L 277.2 240.2 
L 277.2 14.8 
L 51.8 14.8 
z
" style="fill: #ffffff"/>
   </g>
   <g id="matplotlib.axis_1">
    <g id="xtick_1">
     <g id="line2d_1">
      <defs>
       <path id="mab71e7869f" d="M 0 0 
L 0 3.5 
" style="stroke: #000000; stroke-width: 0.8"/>
      </defs>
      <g>
       <use xlink:href="#mab71e7869f" x="72.703955" y="240.2" style="stroke: #000000; stroke-width: 0.8"/>
      </g>
     </g>
     <g id="text_1">
      <!-- 0 -->
      <g transform="translate(69.522705 254.798438)scale(0.1 -0.1)">
       <defs>
        <path id="DejaVuSans-30" d="M 2034 4250 
Q 1547 4250 1301 3770 
Q 1056 3291 1056 2328 
Q 1056 1369 1301 889 
Q 1547 409 2034 409 
Q 2525 409 2770 889 
Q 3016 1369 3016 2328 
Q 3016 3291 2770 3770 
Q 2525 4250 2034 4250 
z
M 2034 4750 
Q 2819 4750 3233 4129 
Q 3647 3509 3647 2328 
Q 3647 1150 3233 529 
Q 2819 -91 2034 -91 
Q 1250 -91 836 529 
Q 422 1150 422 2328 
Q 422 3509 836 4129 
Q 1250 4750 2034 4750 
z
" transform="scale(0.015625)"/>
       </defs>
       <use xlink:href="#DejaVuSans-30"/>
      </g>
     </g>
    </g>
    <g id="xtick_2">
     <g id="line2d_2">
      <g>
       <use xlink:href="#mab71e7869f" x="113.858329" y="240.2" style="stroke: #000000; stroke-width: 0.8"/>
      </g>
     </g>
     <g id="text_2">
      <!-- 1 -->
      <g transform="translate(110.677079 254.798438)scale(0.1 -0.1)">
       <defs>
        <path id="DejaVuSans-31" d="M 794 531 
L 1825 531 
L 1825 4091 
L 703 3866 
L 703 4441 
L 1819 4666 
L 2450 4666 
L 2450 531 
L 3481 531 
L 3481 0 
L 794 0 
L 794 531 
z
" transform="scale(0.015625)"/>
       </defs>
       <use xlink:href="#DejaVuSans-31"/>
      </g>
     </g>
    </g>
    <g id="xtick_3">
     <g id="line2d_3">
      <g>
       <use xlink:href="#mab71e7869f" x="155.012703" y="240.2" style="stroke: #000000; stroke-width: 0.8"/>
      </g>
     </g>
     <g id="text_3">
      <!-- 2 -->
      <g transform="translate(151.831453 254.798438)scale(0.1 -0.1)">
       <defs>
        <path id="DejaVuSans-32" d="M 1228 531 
L 3431 531 
L 3431 0 
L 469 0 
L 469 531 
Q 828 903 1448 1529 
Q 2069 2156 2228 2338 
Q 2531 2678 2651 2914 
Q 2772 3150 2772 3378 
Q 2772 3750 2511 3984 
Q 2250 4219 1831 4219 
Q 1534 4219 1204 4116 
Q 875 4013 500 3803 
L 500 4441 
Q 881 4594 1212 4672 
Q 1544 4750 1819 4750 
Q 2544 4750 2975 4387 
Q 3406 4025 3406 3419 
Q 3406 3131 3298 2873 
Q 3191 2616 2906 2266 
Q 2828 2175 2409 1742 
Q 1991 1309 1228 531 
z
" transform="scale(0.015625)"/>
       </defs>
       <use xlink:href="#DejaVuSans-32"/>
      </g>
     </g>
    </g>
    <g id="xtick_4">
     <g id="line2d_4">
      <g>
       <use xlink:href="#mab71e7869f" x="196.167078" y="240.2" style="stroke: #000000; stroke-width: 0.8"/>
      </g>
     </g>
     <g id="text_4">
      <!-- 3 -->
      <g transform="translate(192.985828 254.798438)scale(0.1 -0.1)">
       <defs>
        <path id="DejaVuSans-33" d="M 2597 2516 
Q 3050 2419 3304 2112 
Q 3559 1806 3559 1356 
Q 3559 666 3084 287 
Q 2609 -91 1734 -91 
Q 1441 -91 1130 -33 
Q 819 25 488 141 
L 488 750 
Q 750 597 1062 519 
Q 1375 441 1716 441 
Q 2309 441 2620 675 
Q 2931 909 2931 1356 
Q 2931 1769 2642 2001 
Q 2353 2234 1838 2234 
L 1294 2234 
L 1294 2753 
L 1863 2753 
Q 2328 2753 2575 2939 
Q 2822 3125 2822 3475 
Q 2822 3834 2567 4026 
Q 2313 4219 1838 4219 
Q 1578 4219 1281 4162 
Q 984 4106 628 3988 
L 628 4550 
Q 988 4650 1302 4700 
Q 1616 4750 1894 4750 
Q 2613 4750 3031 4423 
Q 3450 4097 3450 3541 
Q 3450 3153 3228 2886 
Q 3006 2619 2597 2516 
z
" transform="scale(0.015625)"/>
       </defs>
       <use xlink:href="#DejaVuSans-33"/>
      </g>
     </g>
    </g>
    <g id="xtick_5">
     <g id="line2d_5">
      <g>
       <use xlink:href="#mab71e7869f" x="237.321452" y="240.2" style="stroke: #000000; stroke-width: 0.8"/>
      </g>
     </g>
     <g id="text_5">
      <!-- 4 -->
      <g transform="translate(234.140202 254.798438)scale(0.1 -0.1)">
       <defs>
        <path id="DejaVuSans-34" d="M 2419 4116 
L 825 1625 
L 2419 1625 
L 2419 4116 
z
M 2253 4666 
L 3047 4666 
L 3047 1625 
L 3713 1625 
L 3713 1100 
L 3047 1100 
L 3047 0 
L 2419 0 
L 2419 1100 
L 313 1100 
L 313 1709 
L 2253 4666 
z
" transform="scale(0.015625)"/>
       </defs>
       <use xlink:href="#DejaVuSans-34"/>
      </g>
     </g>
    </g>
    <g id="text_6">
     <!-- $\Delta\Delta G$ (kcal/mol) -->
     <g transform="translate(112.21 271.515938)scale(0.14 -0.14)">
      <defs>
       <path id="DejaVuSans-394" d="M 2188 4044 
L 906 525 
L 3472 525 
L 2188 4044 
z
M 50 0 
L 1831 4666 
L 2547 4666 
L 4325 0 
L 50 0 
z
" transform="scale(0.015625)"/>
       <path id="DejaVuSans-Oblique-47" d="M 3494 697 
L 3738 1919 
L 2700 1919 
L 2797 2438 
L 4453 2438 
L 4050 384 
Q 3634 156 3143 32 
Q 2653 -91 2156 -91 
Q 1278 -91 783 396 
Q 288 884 288 1753 
Q 288 2475 589 3126 
Q 891 3778 1422 4213 
Q 1756 4484 2153 4617 
Q 2550 4750 3034 4750 
Q 3472 4750 3873 4639 
Q 4275 4528 4641 4306 
L 4513 3634 
Q 4231 3928 3853 4083 
Q 3475 4238 3047 4238 
Q 2550 4238 2172 4048 
Q 1794 3859 1497 3463 
Q 1244 3125 1098 2667 
Q 953 2209 953 1734 
Q 953 1081 1287 751 
Q 1622 422 2284 422 
Q 2616 422 2925 492 
Q 3234 563 3494 697 
z
" transform="scale(0.015625)"/>
       <path id="DejaVuSans-20" transform="scale(0.015625)"/>
       <path id="DejaVuSans-28" d="M 1984 4856 
Q 1566 4138 1362 3434 
Q 1159 2731 1159 2009 
Q 1159 1288 1364 580 
Q 1569 -128 1984 -844 
L 1484 -844 
Q 1016 -109 783 600 
Q 550 1309 550 2009 
Q 550 2706 781 3412 
Q 1013 4119 1484 4856 
L 1984 4856 
z
" transform="scale(0.015625)"/>
       <path id="DejaVuSans-6b" d="M 581 4863 
L 1159 4863 
L 1159 1991 
L 2875 3500 
L 3609 3500 
L 1753 1863 
L 3688 0 
L 2938 0 
L 1159 1709 
L 1159 0 
L 581 0 
L 581 4863 
z
" transform="scale(0.015625)"/>
       <path id="DejaVuSans-63" d="M 3122 3366 
L 3122 2828 
Q 2878 2963 2633 3030 
Q 2388 3097 2138 3097 
Q 1578 3097 1268 2742 
Q 959 2388 959 1747 
Q 959 1106 1268 751 
Q 1578 397 2138 397 
Q 2388 397 2633 464 
Q 2878 531 3122 666 
L 3122 134 
Q 2881 22 2623 -34 
Q 2366 -91 2075 -91 
Q 1284 -91 818 406 
Q 353 903 353 1747 
Q 353 2603 823 3093 
Q 1294 3584 2113 3584 
Q 2378 3584 2631 3529 
Q 2884 3475 3122 3366 
z
" transform="scale(0.015625)"/>
       <path id="DejaVuSans-61" d="M 2194 1759 
Q 1497 1759 1228 1600 
Q 959 1441 959 1056 
Q 959 750 1161 570 
Q 1363 391 1709 391 
Q 2188 391 2477 730 
Q 2766 1069 2766 1631 
L 2766 1759 
L 2194 1759 
z
M 3341 1997 
L 3341 0 
L 2766 0 
L 2766 531 
Q 2569 213 2275 61 
Q 1981 -91 1556 -91 
Q 1019 -91 701 211 
Q 384 513 384 1019 
Q 384 1609 779 1909 
Q 1175 2209 1959 2209 
L 2766 2209 
L 2766 2266 
Q 2766 2663 2505 2880 
Q 2244 3097 1772 3097 
Q 1472 3097 1187 3025 
Q 903 2953 641 2809 
L 641 3341 
Q 956 3463 1253 3523 
Q 1550 3584 1831 3584 
Q 2591 3584 2966 3190 
Q 3341 2797 3341 1997 
z
" transform="scale(0.015625)"/>
       <path id="DejaVuSans-6c" d="M 603 4863 
L 1178 4863 
L 1178 0 
L 603 0 
L 603 4863 
z
" transform="scale(0.015625)"/>
       <path id="DejaVuSans-2f" d="M 1625 4666 
L 2156 4666 
L 531 -594 
L 0 -594 
L 1625 4666 
z
" transform="scale(0.015625)"/>
       <path id="DejaVuSans-6d" d="M 3328 2828 
Q 3544 3216 3844 3400 
Q 4144 3584 4550 3584 
Q 5097 3584 5394 3201 
Q 5691 2819 5691 2113 
L 5691 0 
L 5113 0 
L 5113 2094 
Q 5113 2597 4934 2840 
Q 4756 3084 4391 3084 
Q 3944 3084 3684 2787 
Q 3425 2491 3425 1978 
L 3425 0 
L 2847 0 
L 2847 2094 
Q 2847 2600 2669 2842 
Q 2491 3084 2119 3084 
Q 1678 3084 1418 2786 
Q 1159 2488 1159 1978 
L 1159 0 
L 581 0 
L 581 3500 
L 1159 3500 
L 1159 2956 
Q 1356 3278 1631 3431 
Q 1906 3584 2284 3584 
Q 2666 3584 2933 3390 
Q 3200 3197 3328 2828 
z
" transform="scale(0.015625)"/>
       <path id="DejaVuSans-6f" d="M 1959 3097 
Q 1497 3097 1228 2736 
Q 959 2375 959 1747 
Q 959 1119 1226 758 
Q 1494 397 1959 397 
Q 2419 397 2687 759 
Q 2956 1122 2956 1747 
Q 2956 2369 2687 2733 
Q 2419 3097 1959 3097 
z
M 1959 3584 
Q 2709 3584 3137 3096 
Q 3566 2609 3566 1747 
Q 3566 888 3137 398 
Q 2709 -91 1959 -91 
Q 1206 -91 779 398 
Q 353 888 353 1747 
Q 353 2609 779 3096 
Q 1206 3584 1959 3584 
z
" transform="scale(0.015625)"/>
       <path id="DejaVuSans-29" d="M 513 4856 
L 1013 4856 
Q 1481 4119 1714 3412 
Q 1947 2706 1947 2009 
Q 1947 1309 1714 600 
Q 1481 -109 1013 -844 
L 513 -844 
Q 928 -128 1133 580 
Q 1338 1288 1338 2009 
Q 1338 2731 1133 3434 
Q 928 4138 513 4856 
z
" transform="scale(0.015625)"/>
      </defs>
      <use xlink:href="#DejaVuSans-394" transform="translate(0 0.015625)"/>
      <use xlink:href="#DejaVuSans-394" transform="translate(68.408203 0.015625)"/>
      <use xlink:href="#DejaVuSans-Oblique-47" transform="translate(136.816406 0.015625)"/>
      <use xlink:href="#DejaVuSans-20" transform="translate(214.306641 0.015625)"/>
      <use xlink:href="#DejaVuSans-28" transform="translate(246.09375 0.015625)"/>
      <use xlink:href="#DejaVuSans-6b" transform="translate(285.107422 0.015625)"/>
      <use xlink:href="#DejaVuSans-63" transform="translate(343.017578 0.015625)"/>
      <use xlink:href="#DejaVuSans-61" transform="translate(397.998047 0.015625)"/>
      <use xlink:href="#DejaVuSans-6c" transform="translate(459.277344 0.015625)"/>
      <use xlink:href="#DejaVuSans-2f" transform="translate(487.060547 0.015625)"/>
      <use xlink:href="#DejaVuSans-6d" transform="translate(520.751953 0.015625)"/>
      <use xlink:href="#DejaVuSans-6f" transform="translate(618.164062 0.015625)"/>
      <use xlink:href="#DejaVuSans-6c" transform="translate(679.345703 0.015625)"/>
      <use xlink:href="#DejaVuSans-29" transform="translate(707.128906 0.015625)"/>
     </g>
    </g>
   </g>
   <g id="matplotlib.axis_2">
    <g id="ytick_1">
     <g id="line2d_6">
      <defs>
       <path id="m57574fbd6c" d="M 0 0 
L -3.5 0 
" style="stroke: #000000; stroke-width: 0.8"/>
      </defs>
      <g>
       <use xlink:href="#m57574fbd6c" x="51.8" y="240.2" style="stroke: #000000; stroke-width: 0.8"/>
      </g>
     </g>
     <g id="text_7">
      <!-- 0.0 -->
      <g transform="translate(28.896875 243.999219)scale(0.1 -0.1)">
       <defs>
        <path id="DejaVuSans-2e" d="M 684 794 
L 1344 794 
L 1344 0 
L 684 0 
L 684 794 
z
" transform="scale(0.015625)"/>
       </defs>
       <use xlink:href="#DejaVuSans-30"/>
       <use xlink:href="#DejaVuSans-2e" x="63.623047"/>
       <use xlink:href="#DejaVuSans-30" x="95.410156"/>
      </g>
     </g>
    </g>
    <g id="ytick_2">
     <g id="line2d_7">
      <g>
       <use xlink:href="#m57574fbd6c" x="51.8" y="195.12" style="stroke: #000000; stroke-width: 0.8"/>
      </g>
     </g>
     <g id="text_8">
      <!-- 0.2 -->
      <g transform="translate(28.896875 198.919219)scale(0.1 -0.1)">
       <use xlink:href="#DejaVuSans-30"/>
       <use xlink:href="#DejaVuSans-2e" x="63.623047"/>
       <use xlink:href="#DejaVuSans-32" x="95.410156"/>
      </g>
     </g>
    </g>
    <g id="ytick_3">
     <g id="line2d_8">
      <g>
       <use xlink:href="#m57574fbd6c" x="51.8" y="150.04" style="stroke: #000000; stroke-width: 0.8"/>
      </g>
     </g>
     <g id="text_9">
      <!-- 0.4 -->
      <g transform="translate(28.896875 153.839219)scale(0.1 -0.1)">
       <use xlink:href="#DejaVuSans-30"/>
       <use xlink:href="#DejaVuSans-2e" x="63.623047"/>
       <use xlink:href="#DejaVuSans-34" x="95.410156"/>
      </g>
     </g>
    </g>
    <g id="ytick_4">
     <g id="line2d_9">
      <g>
       <use xlink:href="#m57574fbd6c" x="51.8" y="104.96" style="stroke: #000000; stroke-width: 0.8"/>
      </g>
     </g>
     <g id="text_10">
      <!-- 0.6 -->
      <g transform="translate(28.896875 108.759219)scale(0.1 -0.1)">
       <defs>
        <path id="DejaVuSans-36" d="M 2113 2584 
Q 1688 2584 1439 2293 
Q 1191 2003 1191 1497 
Q 1191 994 1439 701 
Q 1688 409 2113 409 
Q 2538 409 2786 701 
Q 3034 994 3034 1497 
Q 3034 2003 2786 2293 
Q 2538 2584 2113 2584 
z
M 3366 4563 
L 3366 3988 
Q 3128 4100 2886 4159 
Q 2644 4219 2406 4219 
Q 1781 4219 1451 3797 
Q 1122 3375 1075 2522 
Q 1259 2794 1537 2939 
Q 1816 3084 2150 3084 
Q 2853 3084 3261 2657 
Q 3669 2231 3669 1497 
Q 3669 778 3244 343 
Q 2819 -91 2113 -91 
Q 1303 -91 875 529 
Q 447 1150 447 2328 
Q 447 3434 972 4092 
Q 1497 4750 2381 4750 
Q 2619 4750 2861 4703 
Q 3103 4656 3366 4563 
z
" transform="scale(0.015625)"/>
       </defs>
       <use xlink:href="#DejaVuSans-30"/>
       <use xlink:href="#DejaVuSans-2e" x="63.623047"/>
       <use xlink:href="#DejaVuSans-36" x="95.410156"/>
      </g>
     </g>
    </g>
    <g id="ytick_5">
     <g id="line2d_10">
      <g>
       <use xlink:href="#m57574fbd6c" x="51.8" y="59.88" style="stroke: #000000; stroke-width: 0.8"/>
      </g>
     </g>
     <g id="text_11">
      <!-- 0.8 -->
      <g transform="translate(28.896875 63.679219)scale(0.1 -0.1)">
       <defs>
        <path id="DejaVuSans-38" d="M 2034 2216 
Q 1584 2216 1326 1975 
Q 1069 1734 1069 1313 
Q 1069 891 1326 650 
Q 1584 409 2034 409 
Q 2484 409 2743 651 
Q 3003 894 3003 1313 
Q 3003 1734 2745 1975 
Q 2488 2216 2034 2216 
z
M 1403 2484 
Q 997 2584 770 2862 
Q 544 3141 544 3541 
Q 544 4100 942 4425 
Q 1341 4750 2034 4750 
Q 2731 4750 3128 4425 
Q 3525 4100 3525 3541 
Q 3525 3141 3298 2862 
Q 3072 2584 2669 2484 
Q 3125 2378 3379 2068 
Q 3634 1759 3634 1313 
Q 3634 634 3220 271 
Q 2806 -91 2034 -91 
Q 1263 -91 848 271 
Q 434 634 434 1313 
Q 434 1759 690 2068 
Q 947 2378 1403 2484 
z
M 1172 3481 
Q 1172 3119 1398 2916 
Q 1625 2713 2034 2713 
Q 2441 2713 2670 2916 
Q 2900 3119 2900 3481 
Q 2900 3844 2670 4047 
Q 2441 4250 2034 4250 
Q 1625 4250 1398 4047 
Q 1172 3844 1172 3481 
z
" transform="scale(0.015625)"/>
       </defs>
       <use xlink:href="#DejaVuSans-30"/>
       <use xlink:href="#DejaVuSans-2e" x="63.623047"/>
       <use xlink:href="#DejaVuSans-38" x="95.410156"/>
      </g>
     </g>
    </g>
    <g id="ytick_6">
     <g id="line2d_11">
      <g>
       <use xlink:href="#m57574fbd6c" x="51.8" y="14.8" style="stroke: #000000; stroke-width: 0.8"/>
      </g>
     </g>
     <g id="text_12">
      <!-- 1.0 -->
      <g transform="translate(28.896875 18.599219)scale(0.1 -0.1)">
       <use xlink:href="#DejaVuSans-31"/>
       <use xlink:href="#DejaVuSans-2e" x="63.623047"/>
       <use xlink:href="#DejaVuSans-30" x="95.410156"/>
      </g>
     </g>
    </g>
    <g id="text_13">
     <!-- Cumulative Fraction of Mutants -->
     <g transform="translate(21.985312 237.153906)rotate(-90)scale(0.14 -0.14)">
      <defs>
       <path id="DejaVuSans-43" d="M 4122 4306 
L 4122 3641 
Q 3803 3938 3442 4084 
Q 3081 4231 2675 4231 
Q 1875 4231 1450 3742 
Q 1025 3253 1025 2328 
Q 1025 1406 1450 917 
Q 1875 428 2675 428 
Q 3081 428 3442 575 
Q 3803 722 4122 1019 
L 4122 359 
Q 3791 134 3420 21 
Q 3050 -91 2638 -91 
Q 1578 -91 968 557 
Q 359 1206 359 2328 
Q 359 3453 968 4101 
Q 1578 4750 2638 4750 
Q 3056 4750 3426 4639 
Q 3797 4528 4122 4306 
z
" transform="scale(0.015625)"/>
       <path id="DejaVuSans-75" d="M 544 1381 
L 544 3500 
L 1119 3500 
L 1119 1403 
Q 1119 906 1312 657 
Q 1506 409 1894 409 
Q 2359 409 2629 706 
Q 2900 1003 2900 1516 
L 2900 3500 
L 3475 3500 
L 3475 0 
L 2900 0 
L 2900 538 
Q 2691 219 2414 64 
Q 2138 -91 1772 -91 
Q 1169 -91 856 284 
Q 544 659 544 1381 
z
M 1991 3584 
L 1991 3584 
z
" transform="scale(0.015625)"/>
       <path id="DejaVuSans-74" d="M 1172 4494 
L 1172 3500 
L 2356 3500 
L 2356 3053 
L 1172 3053 
L 1172 1153 
Q 1172 725 1289 603 
Q 1406 481 1766 481 
L 2356 481 
L 2356 0 
L 1766 0 
Q 1100 0 847 248 
Q 594 497 594 1153 
L 594 3053 
L 172 3053 
L 172 3500 
L 594 3500 
L 594 4494 
L 1172 4494 
z
" transform="scale(0.015625)"/>
       <path id="DejaVuSans-69" d="M 603 3500 
L 1178 3500 
L 1178 0 
L 603 0 
L 603 3500 
z
M 603 4863 
L 1178 4863 
L 1178 4134 
L 603 4134 
L 603 4863 
z
" transform="scale(0.015625)"/>
       <path id="DejaVuSans-76" d="M 191 3500 
L 800 3500 
L 1894 563 
L 2988 3500 
L 3597 3500 
L 2284 0 
L 1503 0 
L 191 3500 
z
" transform="scale(0.015625)"/>
       <path id="DejaVuSans-65" d="M 3597 1894 
L 3597 1613 
L 953 1613 
Q 991 1019 1311 708 
Q 1631 397 2203 397 
Q 2534 397 2845 478 
Q 3156 559 3463 722 
L 3463 178 
Q 3153 47 2828 -22 
Q 2503 -91 2169 -91 
Q 1331 -91 842 396 
Q 353 884 353 1716 
Q 353 2575 817 3079 
Q 1281 3584 2069 3584 
Q 2775 3584 3186 3129 
Q 3597 2675 3597 1894 
z
M 3022 2063 
Q 3016 2534 2758 2815 
Q 2500 3097 2075 3097 
Q 1594 3097 1305 2825 
Q 1016 2553 972 2059 
L 3022 2063 
z
" transform="scale(0.015625)"/>
       <path id="DejaVuSans-46" d="M 628 4666 
L 3309 4666 
L 3309 4134 
L 1259 4134 
L 1259 2759 
L 3109 2759 
L 3109 2228 
L 1259 2228 
L 1259 0 
L 628 0 
L 628 4666 
z
" transform="scale(0.015625)"/>
       <path id="DejaVuSans-72" d="M 2631 2963 
Q 2534 3019 2420 3045 
Q 2306 3072 2169 3072 
Q 1681 3072 1420 2755 
Q 1159 2438 1159 1844 
L 1159 0 
L 581 0 
L 581 3500 
L 1159 3500 
L 1159 2956 
Q 1341 3275 1631 3429 
Q 1922 3584 2338 3584 
Q 2397 3584 2469 3576 
Q 2541 3569 2628 3553 
L 2631 2963 
z
" transform="scale(0.015625)"/>
       <path id="DejaVuSans-6e" d="M 3513 2113 
L 3513 0 
L 2938 0 
L 2938 2094 
Q 2938 2591 2744 2837 
Q 2550 3084 2163 3084 
Q 1697 3084 1428 2787 
Q 1159 2491 1159 1978 
L 1159 0 
L 581 0 
L 581 3500 
L 1159 3500 
L 1159 2956 
Q 1366 3272 1645 3428 
Q 1925 3584 2291 3584 
Q 2894 3584 3203 3211 
Q 3513 2838 3513 2113 
z
" transform="scale(0.015625)"/>
       <path id="DejaVuSans-66" d="M 2375 4863 
L 2375 4384 
L 1825 4384 
Q 1516 4384 1395 4259 
Q 1275 4134 1275 3809 
L 1275 3500 
L 2222 3500 
L 2222 3053 
L 1275 3053 
L 1275 0 
L 697 0 
L 697 3053 
L 147 3053 
L 147 3500 
L 697 3500 
L 697 3744 
Q 697 4328 969 4595 
Q 1241 4863 1831 4863 
L 2375 4863 
z
" transform="scale(0.015625)"/>
       <path id="DejaVuSans-4d" d="M 628 4666 
L 1569 4666 
L 2759 1491 
L 3956 4666 
L 4897 4666 
L 4897 0 
L 4281 0 
L 4281 4097 
L 3078 897 
L 2444 897 
L 1241 4097 
L 1241 0 
L 628 0 
L 628 4666 
z
" transform="scale(0.015625)"/>
       <path id="DejaVuSans-73" d="M 2834 3397 
L 2834 2853 
Q 2591 2978 2328 3040 
Q 2066 3103 1784 3103 
Q 1356 3103 1142 2972 
Q 928 2841 928 2578 
Q 928 2378 1081 2264 
Q 1234 2150 1697 2047 
L 1894 2003 
Q 2506 1872 2764 1633 
Q 3022 1394 3022 966 
Q 3022 478 2636 193 
Q 2250 -91 1575 -91 
Q 1294 -91 989 -36 
Q 684 19 347 128 
L 347 722 
Q 666 556 975 473 
Q 1284 391 1588 391 
Q 1994 391 2212 530 
Q 2431 669 2431 922 
Q 2431 1156 2273 1281 
Q 2116 1406 1581 1522 
L 1381 1569 
Q 847 1681 609 1914 
Q 372 2147 372 2553 
Q 372 3047 722 3315 
Q 1072 3584 1716 3584 
Q 2034 3584 2315 3537 
Q 2597 3491 2834 3397 
z
" transform="scale(0.015625)"/>
      </defs>
      <use xlink:href="#DejaVuSans-43"/>
      <use xlink:href="#DejaVuSans-75" x="69.824219"/>
      <use xlink:href="#DejaVuSans-6d" x="133.203125"/>
      <use xlink:href="#DejaVuSans-75" x="230.615234"/>
      <use xlink:href="#DejaVuSans-6c" x="293.994141"/>
      <use xlink:href="#DejaVuSans-61" x="321.777344"/>
      <use xlink:href="#DejaVuSans-74" x="383.056641"/>
      <use xlink:href="#DejaVuSans-69" x="422.265625"/>
      <use xlink:href="#DejaVuSans-76" x="450.048828"/>
      <use xlink:href="#DejaVuSans-65" x="509.228516"/>
      <use xlink:href="#DejaVuSans-20" x="570.751953"/>
      <use xlink:href="#DejaVuSans-46" x="602.539062"/>
      <use xlink:href="#DejaVuSans-72" x="652.808594"/>
      <use xlink:href="#DejaVuSans-61" x="693.921875"/>
      <use xlink:href="#DejaVuSans-63" x="755.201172"/>
      <use xlink:href="#DejaVuSans-74" x="810.181641"/>
      <use xlink:href="#DejaVuSans-69" x="849.390625"/>
      <use xlink:href="#DejaVuSans-6f" x="877.173828"/>
      <use xlink:href="#DejaVuSans-6e" x="938.355469"/>
      <use xlink:href="#DejaVuSans-20" x="1001.734375"/>
      <use xlink:href="#DejaVuSans-6f" x="1033.521484"/>
      <use xlink:href="#DejaVuSans-66" x="1094.703125"/>
      <use xlink:href="#DejaVuSans-20" x="1129.908203"/>
      <use xlink:href="#DejaVuSans-4d" x="1161.695312"/>
      <use xlink:href="#DejaVuSans-75" x="1247.974609"/>
      <use xlink:href="#DejaVuSans-74" x="1311.353516"/>
      <use xlink:href="#DejaVuSans-61" x="1350.5625"/>
      <use xlink:href="#DejaVuSans-6e" x="1411.841797"/>
      <use xlink:href="#DejaVuSans-74" x="1475.220703"/>
      <use xlink:href="#DejaVuSans-73" x="1514.429688"/>
     </g>
    </g>
   </g>
   <g id="line2d_12">
    <path d="M 84.915034 239.745565 
L 86.064296 239.291129 
L 106.570768 238.836694 
L 110.810307 238.382258 
L 117.91009 237.927823 
L 118.015436 237.473387 
L 119.492493 237.018952 
L 123.472496 236.564516 
L 124.43525 236.110081 
L 124.870289 235.655645 
L 126.208688 234.746774 
L 131.895691 233.837903 
L 132.213068 232.929032 
L 132.652293 232.474597 
L 132.738871 232.020161 
L 136.104896 231.565726 
L 138.416308 231.11129 
L 138.570861 230.656855 
L 141.652425 230.202419 
L 141.795991 229.747984 
L 145.218342 228.839113 
L 146.466876 228.384677 
L 149.596448 227.930242 
L 149.985433 227.475806 
L 151.485115 227.021371 
L 152.116172 226.566935 
L 154.678385 226.1125 
L 154.783684 225.658065 
L 156.363881 225.203629 
L 157.283593 224.749194 
L 157.616349 224.294758 
L 159.384351 223.840323 
L 159.821393 222.931452 
L 160.969538 222.022581 
L 161.327256 221.568145 
L 161.423504 221.11371 
L 161.720678 220.659274 
L 162.195432 220.204839 
L 162.487131 219.295968 
L 163.597429 218.841532 
L 163.782233 218.387097 
L 164.540694 217.932661 
L 164.949891 217.478226 
L 166.093623 217.02379 
L 166.237884 216.569355 
L 168.099499 216.114919 
L 168.127363 215.660484 
L 168.600463 215.206048 
L 169.457954 214.751613 
L 169.45909 214.297177 
L 170.201836 213.842742 
L 170.446634 213.388306 
L 170.923688 212.933871 
L 172.706857 212.479435 
L 173.647054 212.025 
L 176.200362 211.570565 
L 176.465275 211.116129 
L 176.593583 210.661694 
L 177.333208 210.207258 
L 177.690244 209.752823 
L 177.757416 209.298387 
L 179.18329 208.843952 
L 179.299824 208.389516 
L 179.608201 207.935081 
L 180.729094 207.480645 
L 180.844035 206.571774 
L 181.825928 205.662903 
L 181.929507 205.208468 
L 183.761131 204.754032 
L 183.806581 204.299597 
L 184.572825 203.845161 
L 184.72895 202.93629 
L 185.154246 202.481855 
L 185.830809 202.027419 
L 185.995617 200.664113 
L 187.201005 200.209677 
L 187.320907 199.755242 
L 188.507157 199.300806 
L 189.016443 198.846371 
L 191.503182 197.9375 
L 191.868888 197.483065 
L 191.881873 197.028629 
L 192.207897 196.574194 
L 193.018481 196.119758 
L 195.499882 195.665323 
L 196.299996 195.210887 
L 196.315819 194.756452 
L 196.706353 194.302016 
L 196.77857 193.847581 
L 197.310556 192.93871 
L 198.028778 192.484274 
L 198.34037 192.029839 
L 198.639992 191.120968 
L 199.52158 190.666532 
L 199.56845 189.757661 
L 200.340214 189.303226 
L 200.454031 188.394355 
L 201.430155 187.939919 
L 202.034823 187.485484 
L 202.235574 187.031048 
L 203.787227 185.213306 
L 204.371983 184.758871 
L 205.949217 184.304435 
L 206.914016 182.941129 
L 207.359161 180.668952 
L 207.387225 180.214516 
L 208.878257 179.760081 
L 209.1701 179.305645 
L 210.06295 178.85121 
L 210.116692 178.396774 
L 210.30412 177.942339 
L 210.845501 177.487903 
L 211.368448 176.579032 
L 211.546337 176.124597 
L 211.963238 175.670161 
L 214.062454 174.306855 
L 214.282487 173.852419 
L 215.082316 172.943548 
L 215.083853 172.489113 
L 216.020128 172.034677 
L 216.032795 171.580242 
L 216.80458 171.125806 
L 217.147986 170.671371 
L 217.28658 170.216935 
L 217.302696 169.7625 
L 217.684039 168.853629 
L 217.98789 167.490323 
L 218.02179 167.035887 
L 218.901856 166.581452 
L 219.02407 165.672581 
L 219.06095 165.218145 
L 219.684026 164.76371 
L 219.709791 164.309274 
L 220.038633 163.854839 
L 220.096335 163.400403 
L 220.766606 162.491532 
L 221.033815 162.037097 
L 222.085949 161.128226 
L 222.387295 160.67379 
L 222.942998 160.219355 
L 224.243429 159.764919 
L 224.389383 158.401613 
L 225.105317 157.492742 
L 225.895618 157.038306 
L 226.17351 156.583871 
L 227.251924 156.129435 
L 227.412958 155.675 
L 227.734503 155.220565 
L 227.806586 154.766129 
L 228.138517 154.311694 
L 229.257446 153.402823 
L 229.326526 152.948387 
L 229.570404 152.493952 
L 230.289471 152.039516 
L 230.629326 151.585081 
L 231.592742 151.130645 
L 231.9485 150.67621 
L 231.992023 150.221774 
L 233.398235 148.858468 
L 233.783032 147.949597 
L 233.865362 147.495161 
L 234.258724 147.040726 
L 234.877475 146.58629 
L 235.055928 145.677419 
L 235.866992 145.222984 
L 235.934771 144.768548 
L 236.859784 143.859677 
L 237.178546 143.405242 
L 237.977041 142.950806 
L 238.299113 142.496371 
L 238.568569 141.5875 
L 239.060748 141.133065 
L 240.161479 138.860887 
L 240.973079 138.406452 
L 241.168961 137.952016 
L 242.037794 137.497581 
L 242.790138 135.679839 
L 242.79469 135.225403 
L 243.276532 133.862097 
L 243.59858 132.953226 
L 243.765806 132.044355 
L 244.657785 131.135484 
L 244.827566 130.681048 
L 244.848935 130.226613 
L 245.400156 128.863306 
L 245.439791 127.954435 
L 245.663144 127.045565 
L 245.752362 126.136694 
L 246.230724 125.682258 
L 246.397208 124.318952 
L 246.788548 123.410081 
L 246.838471 122.955645 
L 247.00075 122.50121 
L 247.105172 121.592339 
L 248.441416 120.229032 
L 248.516762 119.774597 
L 248.898968 119.320161 
L 249.235382 118.41129 
L 249.257476 117.956855 
L 249.859443 116.593548 
L 249.897994 116.139113 
L 250.176763 115.684677 
L 250.389791 114.321371 
L 250.582557 113.866935 
L 250.613225 113.4125 
L 250.835091 112.958065 
L 251.201368 111.140323 
L 251.440284 110.685887 
L 251.690749 108.868145 
L 251.721521 107.959274 
L 251.932762 107.504839 
L 252.066331 106.141532 
L 252.591427 104.778226 
L 252.689807 103.414919 
L 252.901915 102.960484 
L 254.495939 92.054032 
L 254.64365 89.781855 
L 254.757308 88.418548 
L 255.143616 87.055242 
L 255.243082 86.146371 
L 255.283651 85.2375 
L 255.449714 84.783065 
L 255.488944 83.874194 
L 255.645983 83.419758 
L 255.772224 81.147581 
L 255.917015 79.784274 
L 256.058401 78.420968 
L 256.146462 77.057661 
L 256.263684 75.694355 
L 256.459319 74.785484 
L 256.637039 71.604435 
L 256.893023 69.786694 
L 257.14216 69.332258 
L 257.14216 20.253226 
L 257.736671 19.79879 
L 261.098285 18.435484 
L 261.356425 17.981048 
L 262.083541 17.526613 
L 263.081851 17.072177 
L 264.708497 16.617742 
L 264.708497 15.254435 
L 266.954545 14.8 
L 266.954545 14.8 
" clip-path="url(#p330d89de7a)" style="fill: none; stroke: #1f77b4; stroke-width: 1.5; stroke-linecap: square"/>
   </g>
   <g id="line2d_13">
    <path d="M 62.045455 233.369697 
L 72.703955 226.539394 
L 75.852424 219.709091 
L 78.532142 212.878788 
L 85.328039 206.048485 
L 85.913707 199.218182 
L 87.434904 192.387879 
L 98.209033 185.557576 
L 106.301646 178.727273 
L 107.28513 171.89697 
L 108.404976 165.066667 
L 108.617102 158.236364 
L 113.121282 151.406061 
L 114.202251 144.575758 
L 115.14124 137.745455 
L 115.64593 130.915152 
L 115.841955 124.084848 
L 120.77626 117.254545 
L 122.84902 110.424242 
L 122.971859 103.593939 
L 126.576599 96.763636 
L 128.981508 89.933333 
L 131.992345 83.10303 
L 136.305343 76.272727 
L 140.1051 69.442424 
L 143.808919 62.612121 
L 145.245075 55.781818 
L 152.868938 48.951515 
L 153.262492 42.121212 
L 154.642762 35.290909 
L 169.28099 28.460606 
L 170.268035 21.630303 
L 175.164328 14.8 
" clip-path="url(#p330d89de7a)" style="fill: none; stroke: #ff7f0e; stroke-width: 1.5; stroke-linecap: square"/>
   </g>
   <g id="line2d_14">
    <path d="M 175.164328 240.2 
L 175.164328 14.8 
" clip-path="url(#p330d89de7a)" style="fill: none; stroke-dasharray: 5.55,2.4; stroke-dashoffset: 0; stroke: #ff7f0e; stroke-width: 1.5"/>
   </g>
   <g id="patch_3">
    <path d="M 51.8 240.2 
L 51.8 14.8 
" style="fill: none; stroke: #000000; stroke-width: 0.8; stroke-linejoin: miter; stroke-linecap: square"/>
   </g>
   <g id="patch_4">
    <path d="M 277.2 240.2 
L 277.2 14.8 
" style="fill: none; stroke: #000000; stroke-width: 0.8; stroke-linejoin: miter; stroke-linecap: square"/>
   </g>
   <g id="patch_5">
    <path d="M 51.8 240.2 
L 277.2 240.2 
" style="fill: none; stroke: #000000; stroke-width: 0.8; stroke-linejoin: miter; stroke-linecap: square"/>
   </g>
   <g id="patch_6">
    <path d="M 51.8 14.8 
L 277.2 14.8 
" style="fill: none; stroke: #000000; stroke-width: 0.8; stroke-linejoin: miter; stroke-linecap: square"/>
   </g>
   <g id="text_14">
    <g id="patch_7">
     <path d="M 72.703955 49.435625 
L 113.26208 49.435625 
Q 122.86208 49.435625 122.86208 39.835625 
L 122.86208 28.221875 
Q 122.86208 18.621875 113.26208 18.621875 
L 72.703955 18.621875 
Q 63.103955 18.621875 63.103955 28.221875 
L 63.103955 39.835625 
Q 63.103955 49.435625 72.703955 49.435625 
z
" style="fill: #ffffff; stroke: #ff7f0e; stroke-linejoin: miter"/>
    </g>
    <!-- n = 33 -->
    <g transform="translate(72.703955 37.34)scale(0.12 -0.12)">
     <defs>
      <path id="DejaVuSans-3d" d="M 678 2906 
L 4684 2906 
L 4684 2381 
L 678 2381 
L 678 2906 
z
M 678 1631 
L 4684 1631 
L 4684 1100 
L 678 1100 
L 678 1631 
z
" transform="scale(0.015625)"/>
     </defs>
     <use xlink:href="#DejaVuSans-6e"/>
     <use xlink:href="#DejaVuSans-20" x="63.378906"/>
     <use xlink:href="#DejaVuSans-3d" x="95.166016"/>
     <use xlink:href="#DejaVuSans-20" x="178.955078"/>
     <use xlink:href="#DejaVuSans-33" x="210.742188"/>
     <use xlink:href="#DejaVuSans-33" x="274.365234"/>
    </g>
   </g>
   <g id="text_15">
    <g id="patch_8">
     <path d="M 216.744265 229.755625 
L 264.93739 229.755625 
Q 274.53739 229.755625 274.53739 220.155625 
L 274.53739 208.541875 
Q 274.53739 198.941875 264.93739 198.941875 
L 216.744265 198.941875 
Q 207.144265 198.941875 207.144265 208.541875 
L 207.144265 220.155625 
Q 207.144265 229.755625 216.744265 229.755625 
z
" style="fill: #ffffff; stroke: #1f77b4; stroke-linejoin: miter"/>
    </g>
    <!-- n = 496 -->
    <g transform="translate(216.744265 217.66)scale(0.12 -0.12)">
     <defs>
      <path id="DejaVuSans-39" d="M 703 97 
L 703 672 
Q 941 559 1184 500 
Q 1428 441 1663 441 
Q 2288 441 2617 861 
Q 2947 1281 2994 2138 
Q 2813 1869 2534 1725 
Q 2256 1581 1919 1581 
Q 1219 1581 811 2004 
Q 403 2428 403 3163 
Q 403 3881 828 4315 
Q 1253 4750 1959 4750 
Q 2769 4750 3195 4129 
Q 3622 3509 3622 2328 
Q 3622 1225 3098 567 
Q 2575 -91 1691 -91 
Q 1453 -91 1209 -44 
Q 966 3 703 97 
z
M 1959 2075 
Q 2384 2075 2632 2365 
Q 2881 2656 2881 3163 
Q 2881 3666 2632 3958 
Q 2384 4250 1959 4250 
Q 1534 4250 1286 3958 
Q 1038 3666 1038 3163 
Q 1038 2656 1286 2365 
Q 1534 2075 1959 2075 
z
" transform="scale(0.015625)"/>
     </defs>
     <use xlink:href="#DejaVuSans-6e"/>
     <use xlink:href="#DejaVuSans-20" x="63.378906"/>
     <use xlink:href="#DejaVuSans-3d" x="95.166016"/>
     <use xlink:href="#DejaVuSans-20" x="178.955078"/>
     <use xlink:href="#DejaVuSans-34" x="210.742188"/>
     <use xlink:href="#DejaVuSans-39" x="274.365234"/>
     <use xlink:href="#DejaVuSans-36" x="337.988281"/>
    </g>
   </g>
  </g>
 </g>
 <defs>
  <clipPath id="p330d89de7a">
   <rect x="51.8" y="14.8" width="225.4" height="225.4"/>
  </clipPath>
 </defs>
</svg>
